{"glyphs":{"0":{"ha":646,"x_min":56,"x_max":602,"o":"m 329 0 q 221 7 271 0 q 96 68 136 18 q 56 210 56 117 q 60 389 56 265 q 74 807 66 688 q 135 956 80 910 q 329 1001 191 1001 q 528 951 472 1001 q 585 807 578 906 q 591 631 588 751 q 602 210 602 332 q 546 52 602 101 q 436 7 507 16 q 329 0 387 0 m 329 170 q 358 220 349 170 q 366 311 363 254 q 370 587 370 383 q 361 784 370 727 q 329 841 353 841 q 297 784 305 841 q 289 552 289 727 q 291 349 289 430 q 300 219 292 269 q 329 170 309 170 z "},"1":{"ha":473,"x_min":-3,"x_max":425,"o":"m 329 0 q 190 31 209 0 q 180 66 180 45 l 174 672 l 152 643 q 111 618 132 618 q 45 652 87 618 q -3 720 -3 690 q 195 976 -3 753 q 302 1001 217 1001 q 406 979 382 1001 q 425 919 425 961 q 420 682 425 866 q 409 320 415 498 q 397 83 402 142 q 377 18 393 37 q 329 0 362 0 z "},"2":{"ha":641,"x_min":40,"x_max":609,"o":"m 190 0 q 92 18 119 0 q 60 98 60 39 l 61 264 q 78 378 61 334 q 183 489 107 455 q 249 514 216 504 q 344 560 319 536 q 372 635 372 587 q 300 842 372 842 q 262 768 262 842 q 271 669 262 703 q 275 645 275 653 q 255 600 275 614 q 174 584 231 584 q 77 599 102 584 q 56 630 59 609 q 40 759 40 722 q 109 948 40 894 q 326 1001 174 1001 q 485 972 427 1001 q 536 936 515 958 q 602 760 591 880 q 609 587 609 683 q 552 435 609 492 q 432 359 513 397 q 346 308 382 336 q 309 228 310 279 l 309 210 q 313 197 309 201 q 327 193 316 193 q 475 190 416 192 q 558 188 525 188 q 597 165 587 188 q 609 74 609 141 q 595 37 609 48 q 545 22 581 25 q 190 0 337 0 z "},"3":{"ha":647,"x_min":41,"x_max":616,"o":"m 307 0 q 213 4 260 0 q 79 66 121 11 q 41 210 41 116 q 54 277 41 257 q 126 305 71 305 q 234 293 204 305 q 260 267 256 284 q 262 239 262 254 q 270 187 262 205 q 307 169 278 169 q 342 196 332 169 q 352 276 352 224 q 342 333 352 316 q 304 350 332 350 q 253 363 267 350 q 239 403 239 377 q 263 509 239 495 q 291 516 275 516 q 354 538 335 516 q 371 569 365 552 q 380 649 380 593 q 377 734 380 701 q 302 842 369 842 q 264 762 264 842 q 273 669 264 700 q 277 645 277 653 q 254 598 277 612 q 176 584 231 584 q 79 599 104 584 q 58 630 61 609 l 45 708 q 42 759 42 730 q 121 956 42 903 q 328 1001 187 1001 q 528 948 461 1001 q 606 805 588 901 q 616 662 616 742 q 554 458 616 536 q 549 444 549 452 q 553 429 549 436 q 586 210 586 368 q 307 0 586 0 z "},"4":{"ha":654,"x_min":-2,"x_max":641,"o":"m 487 0 q 349 31 367 0 q 339 66 339 45 q 339 123 339 123 q 321 124 338 124 q 251 121 311 124 q 148 117 191 117 q 42 138 79 117 q 2 182 5 159 q -2 214 -2 204 q 14 277 -2 243 q 340 960 246 777 q 412 1000 359 996 q 461 1001 435 1001 q 556 985 532 1001 q 584 919 584 967 q 575 536 584 760 q 567 311 567 313 q 572 305 567 305 l 590 305 q 616 298 606 305 q 641 191 641 283 q 627 154 641 165 q 577 139 612 142 l 564 138 q 561 131 562 138 l 556 83 q 536 18 551 37 q 487 0 521 0 m 333 309 q 336 313 336 309 q 332 530 336 530 q 326 518 330 530 q 266 314 266 324 q 333 309 266 309 z "},"5":{"ha":610,"x_min":41,"x_max":597,"o":"m 307 0 q 213 4 260 0 q 127 26 165 7 q 64 89 88 45 q 41 210 41 132 q 56 281 41 262 q 126 305 75 305 q 223 297 191 305 q 259 267 254 289 q 262 239 262 254 q 272 187 262 205 q 311 169 282 169 q 353 209 342 169 q 363 319 363 250 q 247 461 363 461 l 106 461 q 55 518 55 461 q 58 943 55 625 q 122 1000 59 994 q 163 1001 140 1001 q 347 998 267 1001 q 498 995 422 995 q 524 988 513 995 q 549 881 549 973 q 534 844 549 855 q 485 829 520 832 q 302 812 410 821 q 288 807 291 812 q 284 790 284 803 l 288 655 q 299 626 288 633 q 342 616 311 618 q 550 515 490 606 q 597 309 597 445 q 549 101 597 174 q 307 0 482 0 z "},"6":{"ha":652,"x_min":56,"x_max":623,"o":"m 345 169 q 389 203 377 169 q 401 314 401 237 q 398 340 401 327 q 342 372 391 372 q 294 370 296 372 q 293 343 293 369 q 295 261 293 298 q 345 169 300 169 m 365 0 q 202 14 259 0 q 56 210 56 49 q 105 924 56 848 q 189 984 133 966 q 335 1001 245 1001 q 533 958 476 1001 q 597 807 591 914 q 603 691 603 721 q 562 641 603 657 q 488 629 531 629 q 404 642 428 629 q 380 686 380 656 q 369 806 380 771 q 335 842 357 842 q 299 788 309 842 q 289 606 289 735 q 290 543 289 545 q 293 542 290 542 l 404 542 q 497 533 456 542 q 566 500 538 525 q 623 310 623 450 q 612 146 623 208 q 581 64 603 94 q 494 11 553 23 q 365 0 444 0 z "},"7":{"ha":492,"x_min":-2,"x_max":467,"o":"m 229 0 q 141 13 171 0 q 111 70 111 26 q 170 449 111 92 q 229 807 229 806 q 227 809 229 809 q 144 811 182 810 q 50 813 83 813 q 18 823 33 813 q -2 927 -2 836 q 12 964 -2 952 q 62 979 26 976 q 410 1001 271 1001 q 456 987 443 1001 q 467 941 467 975 q 441 688 467 905 q 363 83 388 238 q 323 15 356 33 q 229 0 297 0 z "},"8":{"ha":671,"x_min":41,"x_max":632,"o":"m 388 599 q 394 606 391 600 q 425 739 425 676 q 362 845 425 845 q 285 745 285 845 q 315 658 285 696 q 380 602 336 631 q 388 599 385 599 m 331 0 q 41 247 41 0 q 133 503 41 372 q 136 509 136 507 q 132 515 136 511 q 53 743 53 600 q 81 907 53 851 q 123 958 96 938 q 337 1001 181 1001 q 566 916 488 1001 q 632 734 632 845 q 552 504 632 621 q 549 496 549 499 q 555 483 549 490 q 632 258 632 399 q 573 60 632 117 q 465 10 534 22 q 331 0 408 0 m 314 155 q 380 185 359 155 q 400 256 400 215 q 364 350 400 309 q 297 405 342 374 q 292 407 294 407 q 288 402 290 407 q 256 274 256 336 q 260 214 256 241 q 276 171 263 187 q 314 155 288 155 z "},"9":{"ha":661,"x_min":28,"x_max":631,"o":"m 413 0 q 359 4 391 0 q 272 29 304 12 q 240 87 240 46 q 245 121 240 102 q 331 451 331 446 q 326 457 331 455 q 246 459 320 459 q 28 691 28 459 q 40 834 28 775 q 111 956 56 918 q 322 1001 175 1001 q 545 955 475 1001 q 620 840 604 918 q 631 712 631 785 q 572 360 631 583 l 493 69 q 465 15 483 31 q 413 0 446 0 m 363 629 q 370 637 369 629 q 376 726 376 683 q 362 803 376 774 q 304 832 348 832 q 260 805 271 832 q 250 720 250 778 q 309 629 250 629 l 363 629 z "}," ":{"ha":345,"x_min":0,"x_max":0,"o":""}," ":{"ha":345,"x_min":0,"x_max":0,"o":""},"!":{"ha":320,"x_min":34,"x_max":286,"o":"m 164 281 q 63 302 90 281 q 34 381 34 323 q 41 718 34 465 q 47 943 47 884 q 73 989 47 978 q 195 1001 102 1001 q 244 987 229 1001 q 264 926 259 972 q 273 771 268 883 q 282 539 278 659 q 286 365 286 419 q 263 300 286 319 q 164 281 239 281 m 123 0 q 73 10 89 0 q 58 33 63 16 q 50 140 50 56 q 83 187 50 176 q 198 199 117 199 q 248 186 233 199 q 266 150 261 175 q 271 58 271 125 q 242 13 271 25 q 123 0 209 0 z "},"\"":{"ha":496,"x_min":34,"x_max":463,"o":"m 127 571 q 63 615 82 571 q 39 732 43 659 q 34 925 34 806 q 54 984 34 966 q 134 1001 75 1001 q 186 997 165 1001 q 217 979 207 992 q 228 938 228 966 q 222 749 228 832 q 195 619 216 667 q 127 571 174 571 m 362 571 q 297 615 317 571 q 273 732 278 659 q 269 925 269 806 q 289 984 269 966 q 368 1001 309 1001 q 420 997 399 1001 q 452 979 441 992 q 463 938 463 966 q 457 749 463 832 q 430 619 451 667 q 362 571 408 571 z "},"#":{"ha":863,"x_min":34,"x_max":829,"o":"m 549 0 q 455 17 480 0 q 429 75 429 34 q 448 256 429 91 l 448 260 q 441 264 448 264 l 372 264 q 359 248 361 264 q 345 83 350 128 q 299 11 338 27 q 212 0 273 0 q 145 6 172 0 q 105 29 119 12 q 92 79 92 46 q 111 247 92 92 l 112 252 q 102 255 112 255 q 56 266 69 255 q 34 349 34 284 q 62 439 34 419 q 110 450 77 450 l 130 450 q 138 454 137 450 q 153 589 153 581 q 146 597 153 597 l 102 597 q 50 624 62 597 q 41 691 41 643 q 53 763 41 742 q 115 791 68 791 q 173 793 169 791 q 197 943 182 797 q 211 977 199 964 q 254 996 222 990 q 353 1001 286 1001 q 400 987 387 1001 q 413 931 413 973 q 410 854 413 905 q 407 802 407 804 q 409 792 407 795 q 421 789 410 789 l 506 788 q 514 790 512 788 q 534 943 517 791 q 548 977 536 964 q 591 996 559 990 q 690 1001 623 1001 q 736 987 723 1001 q 749 935 749 974 q 746 850 749 904 q 742 792 742 795 q 743 787 742 789 q 769 785 745 785 q 806 779 794 785 q 829 671 829 764 q 815 634 829 646 q 766 619 801 622 l 733 617 q 728 610 728 616 q 715 450 728 603 q 717 445 715 446 q 771 444 718 444 q 799 436 787 444 q 822 330 822 422 q 808 292 822 304 q 758 277 793 280 l 715 275 q 701 268 705 274 q 696 248 698 262 q 682 83 686 128 q 637 12 675 28 q 549 0 611 0 m 462 447 q 474 458 473 447 q 492 601 492 597 q 486 606 492 606 q 392 602 395 604 q 389 592 390 600 q 378 455 378 460 q 386 448 378 448 l 462 447 z "},"$":{"ha":637,"x_min":34,"x_max":603,"o":"m 321 -122 q 253 -109 275 -122 q 231 -51 231 -96 l 231 -7 q 218 3 231 2 q 133 26 172 7 q 45 210 45 68 q 58 276 45 256 q 132 305 75 305 q 245 290 218 305 q 264 268 261 281 q 267 239 267 254 q 275 187 267 205 q 312 169 283 169 q 347 195 336 169 q 357 301 357 220 q 337 345 357 332 q 307 358 325 353 q 180 366 272 366 q 69 419 104 366 q 34 587 34 471 q 39 743 34 673 q 63 867 43 814 q 239 996 104 975 q 244 1000 244 997 l 244 1063 q 252 1103 245 1090 q 348 1123 264 1123 q 381 1110 371 1123 q 395 1063 392 1097 q 399 1002 397 1050 q 408 994 399 996 q 551 932 506 981 q 603 759 603 876 q 600 708 603 730 q 588 630 598 689 q 566 599 584 609 q 468 584 541 584 q 404 592 426 584 q 375 613 382 600 q 368 645 368 627 q 372 669 368 653 q 381 762 381 700 q 342 842 381 842 q 271 635 271 842 q 286 561 271 578 q 342 544 301 544 l 450 544 q 551 499 516 544 q 588 363 583 458 q 591 210 591 318 q 566 90 591 133 q 415 3 522 15 q 406 -5 406 3 q 406 -48 406 -34 l 406 -62 q 385 -112 406 -102 q 321 -122 363 -122 z "},"%":{"ha":504,"x_min":34,"x_max":470,"o":"m 144 772 q 156 777 153 772 q 159 853 159 782 q 145 933 159 933 q 130 859 130 933 l 130 806 q 136 774 130 777 q 144 772 139 772 m 144 701 q 64 714 87 701 q 34 775 34 730 q 56 976 34 951 q 144 1001 78 1001 q 229 981 206 1001 q 248 931 245 964 q 255 775 255 836 q 223 713 255 730 q 144 701 199 701 m 359 71 q 368 73 365 71 q 373 83 371 75 q 374 127 374 92 l 374 153 q 360 233 374 233 q 345 159 345 233 q 350 74 345 76 q 359 71 354 71 m 359 0 q 284 10 308 0 q 249 75 249 26 q 271 275 249 250 q 359 300 293 300 q 443 280 420 300 q 463 231 460 264 q 470 75 470 135 q 439 13 470 30 q 359 0 416 0 m 88 0 q 50 5 63 0 q 37 28 37 11 q 42 54 37 38 q 345 965 340 948 q 365 991 349 982 q 431 1001 381 1001 q 453 981 453 1001 q 450 956 453 970 q 163 43 433 892 q 149 17 157 27 q 88 0 132 0 z "},"&":{"ha":644,"x_min":34,"x_max":610,"o":"m 345 -122 q 277 -109 299 -122 q 254 -43 254 -96 q 252 5 254 3 q 245 7 250 7 q 65 210 65 39 q 98 429 65 368 q 102 444 102 436 q 98 456 102 452 q 34 662 34 535 q 90 915 34 841 q 252 996 141 983 q 266 1000 262 998 q 269 1010 269 1003 l 269 1075 q 275 1101 269 1090 q 372 1123 288 1123 q 406 1110 395 1123 q 420 1019 420 1091 l 420 1004 q 435 991 420 994 q 568 920 527 975 q 609 759 609 865 q 593 630 609 721 q 572 599 590 609 q 474 584 547 584 q 391 602 414 584 q 374 645 374 615 q 380 676 374 653 q 387 762 387 700 q 349 842 387 842 q 283 786 300 842 q 271 680 271 746 l 271 658 q 279 574 271 600 q 297 538 284 554 q 360 516 315 516 q 387 509 376 516 q 411 403 411 495 q 397 363 411 377 q 347 350 383 350 q 309 333 319 350 q 298 276 298 316 q 344 169 298 169 q 381 187 373 169 q 389 239 389 205 q 391 267 389 254 q 431 298 396 289 q 524 305 461 305 q 597 278 578 305 q 610 210 610 258 q 587 91 610 134 q 445 4 547 15 q 432 0 434 3 q 430 -7 430 -3 l 430 -62 q 409 -112 430 -102 q 345 -122 387 -122 z "},"'":{"ha":262,"x_min":34,"x_max":228,"o":"m 127 571 q 63 615 82 571 q 39 732 43 659 q 34 925 34 806 q 54 984 34 966 q 134 1001 75 1001 q 186 997 165 1001 q 217 979 207 992 q 228 938 228 966 q 222 749 228 832 q 195 619 216 667 q 127 571 174 571 z "},"(":{"ha":404,"x_min":34,"x_max":370,"o":"m 298 -149 q 250 -125 267 -149 q 70 235 105 76 q 34 500 34 395 q 250 1126 34 825 q 298 1150 267 1150 q 347 1133 324 1150 q 370 1092 370 1116 q 365 1071 370 1082 q 296 775 310 940 q 283 500 283 610 q 366 -73 283 127 q 370 -92 370 -83 q 347 -133 370 -116 q 298 -149 324 -149 z "},")":{"ha":404,"x_min":34,"x_max":370,"o":"m 106 -149 q 57 -133 79 -149 q 34 -92 34 -116 q 38 -73 34 -83 q 121 500 121 127 q 107 775 121 610 q 39 1071 94 940 q 34 1092 34 1082 q 57 1133 34 1116 q 106 1150 79 1150 q 154 1126 136 1150 q 370 500 370 825 q 334 235 370 395 q 154 -125 298 76 q 106 -149 136 -149 z "},"*":{"ha":484,"x_min":34,"x_max":450,"o":"m 245 568 q 186 579 205 568 q 167 628 167 590 q 166 660 167 660 l 165 659 q 109 635 127 635 q 87 643 100 635 q 54 684 73 650 q 34 739 34 718 q 61 774 34 759 q 83 788 83 787 q 61 803 83 791 q 34 838 34 817 q 34 849 34 838 q 53 891 35 859 q 109 941 81 941 q 145 928 125 941 l 173 914 q 175 966 175 914 q 180 987 175 979 q 264 1001 191 1001 q 293 992 284 1001 q 305 956 302 984 q 308 916 307 943 q 313 909 308 909 q 321 912 315 909 q 391 941 378 941 q 403 938 395 941 q 420 918 410 936 q 450 846 450 864 q 434 823 450 832 q 379 788 379 793 q 435 753 379 786 q 450 730 450 745 q 420 658 450 712 q 391 636 408 636 q 360 646 380 636 q 319 663 320 663 q 318 661 318 663 l 319 618 q 300 576 319 585 q 245 568 281 568 z "},"+":{"ha":598,"x_min":34,"x_max":564,"o":"m 322 235 q 215 260 230 235 q 208 286 208 271 q 206 405 208 404 q 184 406 203 406 q 154 405 179 406 q 97 404 128 404 q 47 424 60 404 q 34 498 34 445 q 46 570 34 549 q 110 597 62 597 l 189 597 q 203 606 203 597 l 202 690 q 226 751 202 735 q 302 766 247 766 q 376 753 357 766 q 396 703 396 740 q 395 664 396 692 q 393 607 393 635 q 406 594 393 595 q 513 591 482 591 q 554 567 543 591 q 564 477 564 542 q 550 440 564 452 q 519 428 540 432 q 395 418 494 422 q 382 407 383 417 q 375 300 378 336 q 360 250 372 264 q 322 235 348 235 z "},",":{"ha":356,"x_min":68,"x_max":288,"o":"m 142 -194 q 114 -182 126 -194 q 102 -155 102 -170 q 115 -130 102 -142 q 194 -33 182 -64 q 205 1 205 -1 q 203 2 205 2 q 189 1 203 2 q 140 0 176 0 q 81 21 94 0 q 68 140 68 43 q 94 184 68 173 q 216 199 125 199 q 272 181 257 199 q 288 118 288 163 l 288 86 q 267 -52 288 2 q 167 -182 246 -106 q 142 -194 155 -194 z "},"-":{"ha":460,"x_min":34,"x_max":426,"o":"m 92 410 q 47 427 60 410 q 34 498 34 444 q 47 568 34 545 q 104 591 60 591 q 303 587 235 591 q 378 585 347 585 q 416 562 406 585 q 426 479 426 538 q 413 444 426 455 q 366 430 399 433 q 92 410 176 410 z "},"­":{"ha":460,"x_min":34,"x_max":426,"o":"m 92 410 q 47 427 60 410 q 34 498 34 444 q 47 568 34 545 q 104 591 60 591 q 303 587 235 591 q 378 585 347 585 q 416 562 406 585 q 426 479 426 538 q 413 444 426 455 q 366 430 399 433 q 92 410 176 410 z "},".":{"ha":357,"x_min":68,"x_max":289,"o":"m 141 0 q 92 10 107 0 q 75 35 80 17 q 68 140 68 60 q 88 182 68 170 q 216 199 119 199 q 267 186 252 199 q 280 165 275 179 q 289 58 289 142 q 259 13 289 24 q 141 0 227 0 z "},"/":{"ha":313,"x_min":34,"x_max":279,"o":"m 92 0 q 48 7 63 0 q 34 38 34 14 q 171 965 34 45 q 188 991 174 982 q 251 1001 202 1001 q 279 970 279 1001 q 158 45 279 929 q 138 8 154 16 q 92 0 121 0 z "},":":{"ha":357,"x_min":68,"x_max":289,"o":"m 141 0 q 92 10 107 0 q 75 35 80 17 q 68 140 68 60 q 88 182 68 170 q 216 199 119 199 q 267 186 252 199 q 280 165 275 179 q 289 58 289 142 q 259 13 289 24 q 141 0 227 0 m 141 550 q 92 560 107 550 q 75 585 80 567 q 68 690 68 610 q 88 732 68 720 q 216 749 119 749 q 267 736 252 749 q 280 715 275 729 q 289 608 289 692 q 259 563 289 574 q 141 550 227 550 z "},";":{"ha":357,"x_min":68,"x_max":289,"o":"m 142 -194 q 114 -182 126 -194 q 102 -155 102 -170 q 115 -130 102 -142 q 194 -33 182 -64 q 205 1 205 -1 q 203 2 205 2 q 189 1 203 2 q 140 0 176 0 q 81 21 94 0 q 68 140 68 43 q 94 184 68 173 q 216 199 125 199 q 272 181 257 199 q 288 118 288 163 l 288 86 q 267 -52 288 2 q 167 -182 246 -106 q 142 -194 155 -194 m 141 550 q 92 560 107 550 q 75 585 80 567 q 68 690 68 610 q 88 732 68 720 q 216 749 119 749 q 267 736 252 749 q 280 715 275 729 q 289 608 289 692 q 259 563 289 574 q 141 550 227 550 z "},"<":{"ha":589,"x_min":34,"x_max":555,"o":"m 481 277 q 286 340 459 277 q 52 442 82 413 q 34 503 34 458 q 43 571 34 546 q 81 606 52 596 q 412 705 226 650 q 486 724 477 724 q 518 704 503 724 q 551 627 533 684 q 555 607 555 616 q 505 556 555 576 q 385 507 385 510 q 500 471 385 506 q 555 414 555 454 q 544 353 555 389 q 519 297 532 317 q 481 277 506 277 z "},"=":{"ha":598,"x_min":34,"x_max":564,"o":"m 97 530 q 53 543 66 530 q 34 624 34 561 q 45 695 34 674 q 110 724 61 724 q 397 720 250 724 q 513 718 480 718 q 540 711 529 718 q 564 604 564 696 q 550 566 564 578 q 500 551 536 554 q 381 542 460 547 q 220 533 302 537 q 97 530 138 530 m 501 277 q 379 281 460 277 q 218 290 297 285 q 98 299 138 295 q 48 314 62 302 q 34 351 34 326 q 43 437 34 411 q 85 465 53 465 q 201 467 118 465 q 489 471 349 471 q 553 444 536 471 q 564 372 564 422 q 551 297 564 317 q 501 277 538 277 z "},">":{"ha":589,"x_min":34,"x_max":555,"o":"m 107 277 q 70 297 83 277 q 45 353 56 317 q 34 414 34 389 q 88 471 34 454 q 204 507 204 506 q 83 556 204 510 q 34 607 34 576 q 37 627 34 616 q 71 704 56 684 q 102 724 86 724 q 176 705 111 724 q 507 606 363 650 q 546 571 537 596 q 555 503 555 546 q 538 442 555 458 q 304 340 507 413 q 107 277 130 277 z "},"?":{"ha":612,"x_min":34,"x_max":578,"o":"m 259 281 q 156 303 183 281 q 129 380 129 325 q 220 627 129 573 q 267 650 245 642 q 307 669 290 659 q 345 747 345 692 q 341 804 345 786 q 326 827 336 822 q 300 832 316 832 q 263 814 271 832 q 255 762 255 795 q 252 734 255 747 q 228 708 248 717 q 119 696 198 696 q 50 719 69 696 q 34 791 34 739 q 58 912 34 869 q 85 949 69 933 q 120 975 100 964 q 206 997 159 994 q 300 1001 253 1001 q 396 997 347 1001 q 578 791 578 983 q 522 593 578 654 q 471 546 498 566 q 427 507 448 528 q 381 363 381 458 q 353 296 381 315 q 259 281 328 281 m 229 0 q 179 10 195 0 q 166 26 171 15 q 156 140 156 49 q 193 189 156 177 q 304 199 226 199 q 354 186 339 199 q 369 163 363 178 q 376 58 376 140 q 349 14 376 25 q 229 0 316 0 z "},"@":{"ha":901,"x_min":34,"x_max":867,"o":"m 608 159 q 615 165 615 159 q 616 280 615 216 q 618 427 618 349 q 592 429 618 429 q 554 422 566 429 q 538 393 542 416 q 534 320 534 370 q 543 212 534 248 q 593 159 555 159 l 608 159 m 757 0 l 560 0 q 405 31 456 0 q 346 90 366 54 q 302 388 302 168 q 385 554 302 500 q 555 598 453 598 q 615 599 614 598 q 616 603 616 600 q 583 790 613 744 q 473 832 555 832 l 391 832 q 254 625 254 832 l 256 66 q 253 39 256 51 q 218 8 248 17 q 120 0 187 0 q 63 22 81 0 q 42 67 48 39 q 35 171 35 102 l 34 708 q 292 1001 34 1001 l 582 1001 q 857 791 857 1001 l 858 464 q 864 195 858 355 q 867 82 867 111 q 839 14 867 28 q 757 0 810 0 z "},"A":{"ha":686,"x_min":3,"x_max":674,"o":"m 530 0 q 460 15 486 0 q 425 75 435 31 q 401 212 416 110 q 397 216 401 216 q 367 214 395 216 q 280 208 338 211 q 273 200 275 207 q 254 75 261 107 q 218 16 243 31 q 150 0 193 0 q 31 18 66 0 q 3 72 3 31 q 21 187 3 90 q 207 977 156 939 q 260 997 228 992 q 334 1001 292 1001 q 458 983 423 1001 q 667 133 526 948 q 674 74 674 92 q 647 19 674 34 q 530 0 612 0 m 370 393 q 376 397 376 393 q 340 633 376 412 q 339 639 340 639 q 337 633 338 639 q 301 398 317 510 q 304 395 301 395 q 370 393 340 395 z "},"B":{"ha":692,"x_min":56,"x_max":636,"o":"m 378 0 l 174 0 q 87 18 117 0 q 56 100 56 37 q 64 943 56 191 q 72 977 64 964 q 191 1001 88 1001 l 383 1001 q 554 957 486 1001 q 636 791 636 903 q 597 506 636 591 q 592 491 592 496 q 603 469 592 486 q 636 352 636 422 q 629 234 636 321 q 597 93 622 142 q 533 28 576 52 q 378 0 481 0 m 353 159 q 379 164 368 159 q 395 189 390 169 q 404 284 404 215 q 392 379 404 362 q 347 393 382 393 l 306 393 q 302 389 302 393 q 308 168 306 259 q 309 162 308 164 q 353 159 310 159 m 345 562 q 393 606 380 562 q 404 723 404 643 q 400 795 404 772 q 387 824 397 815 q 347 832 377 832 l 298 832 q 289 829 291 832 q 287 817 287 826 q 294 620 287 755 q 297 563 296 564 q 345 562 298 562 z "},"C":{"ha":634,"x_min":42,"x_max":589,"o":"m 321 0 q 153 19 205 0 q 42 210 42 59 q 45 389 42 265 q 59 807 52 688 q 112 949 64 905 q 321 1001 168 1001 q 519 958 461 1001 q 583 807 576 915 q 589 691 589 721 q 548 642 589 658 q 473 629 517 629 q 391 642 415 629 q 366 686 366 655 q 355 806 366 771 q 321 842 343 842 q 284 788 294 842 q 275 606 275 735 q 277 366 275 463 q 289 218 279 268 q 321 169 298 169 q 358 206 350 169 q 366 314 366 243 q 368 342 366 330 q 407 372 373 363 q 502 380 438 380 q 559 359 541 380 q 582 299 577 338 q 587 210 587 261 q 550 68 587 117 q 415 4 507 12 q 321 0 368 0 z "},"D":{"ha":701,"x_min":55,"x_max":636,"o":"m 377 0 l 173 0 q 85 18 116 0 q 55 100 55 37 q 57 361 55 192 q 63 943 63 870 q 82 985 63 973 q 127 1000 100 997 q 165 1001 146 1001 l 382 1001 q 553 957 484 1001 q 636 790 635 903 q 636 564 636 677 l 635 418 q 603 109 633 193 q 532 28 584 57 q 377 0 479 0 m 353 159 q 378 164 367 159 q 403 284 403 176 l 403 723 q 394 813 403 794 q 345 832 385 832 l 292 832 q 286 827 286 832 q 307 169 300 507 q 309 161 307 163 q 353 159 311 159 z "},"E":{"ha":610,"x_min":56,"x_max":578,"o":"m 163 0 q 84 22 111 0 q 56 100 56 45 q 64 943 56 191 q 82 985 64 972 q 163 1001 107 1001 q 351 998 259 1001 q 527 995 439 995 q 555 988 543 995 q 578 881 578 973 q 564 844 578 855 q 296 812 542 825 q 288 802 288 811 q 294 608 288 719 q 300 465 298 536 q 302 451 300 454 q 315 448 305 448 q 446 445 395 448 q 509 443 482 443 q 535 437 524 443 q 559 330 559 422 q 545 292 559 304 q 496 277 531 280 q 311 261 420 269 q 306 255 306 260 l 307 202 q 527 188 307 188 q 555 181 543 188 q 578 74 578 166 q 564 37 578 48 q 514 22 550 25 q 163 0 304 0 z "},"F":{"ha":591,"x_min":56,"x_max":578,"o":"m 186 0 q 77 27 104 0 q 56 100 56 50 q 61 688 56 269 q 64 943 64 900 q 126 999 64 993 q 163 1001 145 1001 l 530 996 q 570 964 559 995 q 578 881 578 939 q 564 844 578 855 q 514 829 549 832 q 294 812 451 822 q 289 810 290 812 q 288 804 288 809 q 298 477 293 662 q 306 453 299 459 q 332 447 312 448 l 508 444 q 536 436 524 443 q 559 330 559 422 q 545 292 559 304 q 495 277 530 280 q 319 261 423 269 q 308 257 310 260 q 305 244 305 254 q 307 125 305 173 q 309 83 309 98 q 279 15 309 33 q 186 0 254 0 z "},"G":{"ha":688,"x_min":42,"x_max":678,"o":"m 350 0 q 188 14 245 0 q 42 210 42 50 q 45 389 42 265 q 59 807 51 676 q 115 952 64 908 q 321 1001 171 1001 q 467 984 411 1001 q 539 939 512 970 q 583 806 578 895 q 588 691 588 731 q 549 642 588 659 q 473 629 518 629 q 374 656 391 629 q 366 686 366 669 q 321 842 366 842 q 284 788 294 842 q 274 606 274 735 q 286 280 274 391 q 338 169 298 169 q 380 181 362 169 q 409 235 398 194 q 422 361 418 270 q 414 370 422 370 l 386 370 q 340 390 349 370 q 331 451 331 410 q 343 516 331 494 q 397 538 355 538 q 570 534 519 538 q 634 532 605 532 q 657 526 648 532 q 673 499 667 520 q 678 433 678 478 q 651 393 678 401 q 644 388 645 391 q 642 378 642 385 q 644 310 644 345 q 596 75 644 142 q 486 11 560 24 q 350 0 429 0 z "},"H":{"ha":747,"x_min":56,"x_max":685,"o":"m 562 0 q 463 18 490 0 q 432 98 432 40 q 435 531 432 214 q 422 546 435 546 l 319 546 q 302 523 302 546 q 306 349 302 513 q 309 82 309 185 q 290 23 309 41 q 186 0 267 0 q 84 21 112 0 q 56 98 56 42 q 63 935 56 188 q 100 989 64 976 q 212 1001 133 1001 q 261 982 245 1001 q 281 918 276 964 q 290 748 285 874 q 294 732 290 736 q 309 728 298 728 q 414 727 367 727 q 433 731 428 727 q 438 747 438 734 q 440 935 438 819 q 450 970 440 956 q 588 1001 468 1001 q 637 982 621 1001 q 656 918 652 964 q 668 681 662 859 q 680 319 675 503 q 685 82 685 135 q 660 18 685 35 q 562 0 635 0 z "},"I":{"ha":368,"x_min":56,"x_max":308,"o":"m 185 0 q 82 22 108 0 q 56 98 56 45 q 60 682 56 231 q 63 935 63 891 q 73 970 63 956 q 212 1001 92 1001 q 260 982 245 1001 q 280 918 275 964 q 291 681 285 859 q 303 319 298 503 q 308 82 308 135 q 275 12 308 29 q 185 0 250 0 z "},"J":{"ha":576,"x_min":5,"x_max":511,"o":"m 239 0 q 102 35 149 0 q 36 141 55 70 q 5 435 5 252 q 38 481 5 465 q 120 498 71 498 q 219 471 202 498 q 227 440 227 458 q 231 218 227 276 q 254 159 234 159 q 283 202 279 159 q 286 292 286 233 q 281 656 286 528 q 276 943 276 797 q 286 977 276 964 q 313 993 292 987 q 425 1001 344 1001 q 473 987 458 1001 q 492 927 488 972 q 511 514 511 725 q 501 194 511 357 q 431 39 494 81 q 239 0 374 0 z "},"K":{"ha":690,"x_min":56,"x_max":644,"o":"m 576 0 q 437 31 456 0 q 428 66 428 45 q 423 204 428 151 q 324 379 412 323 q 311 385 316 385 q 302 372 302 385 q 309 82 309 119 q 285 19 309 37 q 186 0 262 0 q 86 20 113 0 q 56 98 56 41 q 63 935 56 188 q 97 988 64 975 q 212 1001 130 1001 q 261 982 245 1001 q 280 918 276 964 q 294 625 287 848 q 301 610 294 610 q 316 616 306 610 q 424 807 413 674 q 428 935 428 853 q 437 970 428 956 q 576 1001 456 1001 q 627 983 610 1001 q 644 918 644 965 q 514 501 644 632 q 511 496 511 498 q 514 492 511 494 q 614 321 584 425 q 644 83 644 218 q 627 18 644 36 q 576 0 610 0 z "},"L":{"ha":549,"x_min":56,"x_max":547,"o":"m 162 0 q 83 22 111 0 q 56 100 56 45 q 61 688 56 234 q 63 943 63 900 q 87 988 63 977 q 212 1001 117 1001 q 260 987 245 1001 q 273 965 268 980 q 306 212 290 911 q 310 197 306 202 q 330 192 315 193 q 495 188 478 188 q 523 181 511 188 q 547 74 547 166 q 532 37 547 48 q 482 21 518 25 q 162 0 277 0 z "},"M":{"ha":854,"x_min":55,"x_max":779,"o":"m 648 0 q 550 18 575 0 q 526 82 526 36 q 543 532 526 123 q 550 720 550 704 q 549 724 550 724 q 546 719 548 724 q 497 623 521 667 q 417 548 455 548 q 334 633 382 548 q 294 708 313 670 q 286 721 288 721 q 283 715 283 721 q 296 410 283 713 q 308 82 308 107 q 276 13 308 31 q 185 0 251 0 q 77 26 104 0 q 55 98 55 47 q 60 682 55 264 q 63 935 63 891 q 137 998 63 991 q 184 1001 161 1001 q 252 999 227 1001 q 329 946 307 994 q 416 766 411 766 q 428 781 420 766 q 486 903 463 844 q 505 946 496 926 q 581 999 526 994 q 650 1001 604 1001 q 700 998 672 1001 q 770 935 770 991 q 773 682 770 891 q 779 98 779 264 q 739 14 779 33 q 648 0 711 0 z "},"N":{"ha":768,"x_min":56,"x_max":706,"o":"m 583 0 q 505 9 528 0 q 464 51 475 20 q 297 520 299 520 q 291 333 295 520 q 281 83 287 145 q 261 18 276 37 q 212 0 245 0 q 73 30 92 0 q 64 66 64 45 q 58 644 64 139 q 56 903 56 811 q 94 987 56 966 q 193 1001 121 1001 q 261 994 237 1001 q 304 949 290 987 l 446 555 q 453 545 450 545 q 458 561 458 545 q 471 970 458 950 q 609 1001 489 1001 q 658 982 642 1001 q 677 918 673 964 q 689 681 683 859 q 701 319 696 503 q 706 82 706 135 q 673 13 706 30 q 583 0 648 0 z "},"O":{"ha":661,"x_min":41,"x_max":599,"o":"m 320 0 q 224 4 273 0 q 41 210 41 18 q 45 389 41 265 q 59 807 52 688 q 117 954 64 910 q 320 1001 174 1001 q 467 983 411 1001 q 541 937 513 969 q 582 807 577 894 q 589 631 585 751 q 599 210 599 332 q 574 89 599 132 q 544 52 561 67 q 507 26 528 36 q 416 4 465 7 q 320 0 368 0 m 320 169 q 353 218 343 169 q 365 366 363 268 q 367 606 367 463 q 357 788 367 735 q 320 842 347 842 q 284 788 294 842 q 274 606 274 735 q 276 366 274 463 q 288 218 278 268 q 320 169 298 169 z "},"P":{"ha":663,"x_min":56,"x_max":636,"o":"m 186 0 q 87 20 114 0 q 56 100 56 41 q 64 943 56 191 q 82 985 64 972 q 166 1001 108 1001 l 383 1001 q 554 957 486 1001 q 636 791 636 903 q 598 505 636 587 q 533 435 577 462 q 378 404 481 405 l 313 403 q 302 395 302 403 q 305 283 302 393 q 309 83 309 174 q 286 19 309 38 q 186 0 262 0 m 345 562 q 395 618 383 562 q 404 723 404 654 q 393 815 404 799 q 347 832 383 832 l 294 832 q 287 827 287 832 q 293 688 289 802 q 296 571 296 574 q 298 566 296 569 q 345 562 300 562 z "},"Q":{"ha":663,"x_min":43,"x_max":600,"o":"m 321 169 q 354 218 344 169 q 366 366 363 268 q 368 606 368 463 q 358 788 368 735 q 321 842 348 842 q 284 788 294 842 q 275 606 275 735 q 277 366 275 463 q 289 218 279 268 q 321 169 298 169 m 408 -123 q 381 -104 397 -123 q 322 -28 356 -73 q 225 4 303 -3 q 135 26 176 7 q 43 210 43 68 q 45 388 43 265 q 52 631 48 511 q 60 807 56 751 q 91 924 64 881 q 175 984 119 966 q 321 1001 231 1001 q 468 984 412 1001 q 551 924 524 966 q 583 807 578 881 q 590 631 586 751 q 597 388 594 511 q 600 210 600 265 q 483 16 600 52 q 479 12 479 15 q 488 -3 479 7 q 505 -41 505 -24 q 468 -93 505 -62 q 408 -123 431 -123 z "},"R":{"ha":692,"x_min":56,"x_max":648,"o":"m 580 0 q 441 31 460 0 q 432 66 432 45 q 425 205 432 132 q 384 334 418 279 q 331 395 350 389 q 308 401 312 401 q 302 395 302 401 l 302 392 q 309 83 309 121 q 275 13 309 30 q 186 0 250 0 q 82 23 108 0 q 56 100 56 46 q 61 688 56 269 q 64 943 64 900 q 72 977 64 964 q 191 1001 87 1001 l 382 1001 q 553 957 485 1001 q 635 791 635 903 q 629 664 635 729 q 613 549 623 593 q 577 475 602 506 q 567 453 567 461 q 576 431 567 446 q 648 83 648 317 q 631 18 648 36 q 580 0 613 0 m 344 562 q 391 603 378 562 q 404 723 404 641 q 394 814 404 796 q 346 832 385 832 l 297 832 q 287 821 287 832 q 296 574 296 612 q 313 562 296 562 l 344 562 z "},"S":{"ha":648,"x_min":33,"x_max":602,"o":"m 311 0 q 217 4 264 0 q 80 71 123 11 q 45 210 45 119 q 56 274 45 255 q 130 305 73 305 q 237 293 208 305 q 263 267 259 284 q 266 239 266 254 q 274 187 266 205 q 311 169 281 169 q 346 195 335 169 q 356 301 356 220 q 317 355 356 341 q 180 366 283 366 q 99 388 132 366 q 33 587 33 431 q 39 760 33 683 q 127 954 51 899 q 316 1001 191 1001 q 490 974 428 1001 q 559 922 534 955 q 602 759 602 867 q 586 630 602 722 q 522 587 579 591 q 467 584 495 584 q 390 598 414 584 q 366 645 366 612 q 373 676 366 653 q 380 762 380 700 q 341 842 380 842 q 270 635 270 842 q 285 562 270 578 q 341 546 300 546 l 435 546 q 525 524 493 546 q 587 368 581 483 q 589 265 589 318 l 589 210 q 497 26 589 68 q 407 4 456 7 q 311 0 357 0 z "},"T":{"ha":574,"x_min":-2,"x_max":561,"o":"m 313 0 q 210 21 237 0 q 182 98 182 43 q 186 495 182 195 q 189 800 189 796 q 187 807 189 804 q 177 810 185 810 q 61 807 98 807 q 9 830 22 807 q -2 901 -2 849 q 7 968 -2 947 q 74 1001 22 1001 q 383 997 214 1001 q 509 995 477 995 q 551 969 541 995 q 561 881 561 943 q 547 844 561 855 q 497 829 532 832 q 420 823 471 826 q 414 821 416 823 q 413 816 413 819 q 423 551 418 705 q 432 261 428 397 q 435 82 435 125 q 396 10 435 26 q 313 0 371 0 z "},"U":{"ha":676,"x_min":49,"x_max":606,"o":"m 328 0 q 231 4 280 0 q 75 89 119 12 q 49 210 49 132 l 49 292 q 89 987 49 949 q 137 1001 104 1001 q 256 990 226 1001 q 286 943 286 979 q 283 690 286 841 q 281 458 281 547 q 283 286 281 339 q 302 178 286 193 q 328 169 311 169 q 358 192 348 169 q 370 258 366 211 q 374 463 374 316 q 372 709 374 568 q 371 943 371 844 q 391 986 371 975 q 519 1001 420 1001 q 568 987 553 1001 q 587 926 583 972 q 604 620 601 779 q 606 331 606 460 l 606 210 q 424 4 606 18 q 328 0 374 0 z "},"V":{"ha":656,"x_min":5,"x_max":638,"o":"m 317 0 q 243 4 275 0 q 159 75 176 12 q 39 712 104 283 q 9 893 21 827 q 5 926 5 912 q 33 982 5 967 q 144 1001 67 1001 q 199 996 176 1001 q 256 926 247 985 q 321 277 277 780 q 322 268 321 268 q 323 276 323 268 q 359 667 340 479 q 389 926 378 854 q 422 986 395 971 q 494 1001 449 1001 q 612 982 577 1001 q 638 928 638 967 q 635 893 638 911 q 611 739 625 837 q 492 92 550 325 q 442 18 477 36 q 317 0 406 0 z "},"W":{"ha":857,"x_min":57,"x_max":780,"o":"m 651 0 q 583 3 605 0 q 507 56 529 7 q 418 240 422 240 q 330 55 415 240 q 254 3 309 7 q 185 0 228 0 q 138 3 163 0 q 64 66 64 10 q 57 903 57 813 q 90 983 57 962 q 186 1001 117 1001 q 255 996 227 1001 q 292 976 279 991 q 309 919 309 958 q 292 470 309 877 q 286 290 286 300 q 288 283 286 283 q 294 291 290 283 q 342 378 326 352 q 418 453 387 453 q 498 378 456 453 q 533 311 516 345 q 550 279 548 279 q 551 282 551 279 q 544 470 551 299 q 527 919 527 877 q 552 984 527 966 q 650 1001 578 1001 q 752 980 725 1001 q 780 903 780 959 q 775 319 780 736 q 772 66 772 110 q 701 3 772 10 q 651 0 673 0 z "},"X":{"ha":644,"x_min":10,"x_max":625,"o":"m 479 0 q 434 11 448 0 q 412 41 420 22 q 336 303 398 72 q 330 321 331 321 q 256 58 329 321 q 182 0 239 0 q 108 12 151 0 q 35 41 60 24 q 10 87 10 57 q 24 137 10 108 q 192 500 192 495 q 186 517 192 505 q 24 863 81 741 q 10 914 10 892 q 35 959 10 943 q 71 977 50 969 q 187 1001 134 1001 q 261 943 235 1001 q 326 684 278 906 q 330 673 328 673 q 414 959 335 673 q 434 989 420 978 q 479 1001 448 1001 q 584 983 515 1001 q 625 939 625 972 q 614 888 625 919 q 460 515 598 840 q 456 500 456 507 q 460 487 456 494 q 614 112 585 195 q 625 62 625 82 q 584 17 625 27 q 479 0 515 0 z "},"Y":{"ha":638,"x_min":22,"x_max":604,"o":"m 316 0 q 222 16 250 0 q 187 97 187 35 q 188 227 187 115 q 189 449 189 338 q 181 463 189 460 q 24 670 31 499 q 22 779 22 734 q 50 987 22 961 q 98 1001 64 1001 q 196 995 165 1001 q 237 977 228 989 q 246 943 246 964 q 248 837 246 886 q 249 733 249 788 q 254 682 249 705 q 313 632 264 632 q 355 646 341 632 q 376 733 376 667 q 378 837 376 788 q 379 943 379 886 q 389 977 379 964 q 527 1001 406 1001 q 576 987 561 1001 q 604 779 604 961 q 601 670 604 734 q 442 462 594 499 q 431 448 431 459 q 435 304 431 439 q 439 82 439 170 q 414 18 439 36 q 316 0 390 0 z "},"Z":{"ha":580,"x_min":5,"x_max":566,"o":"m 469 0 q 209 4 324 0 q 120 6 147 6 q 29 35 62 6 q 5 87 5 55 q 10 115 5 100 q 111 388 52 248 q 231 664 170 529 q 299 817 299 813 q 296 818 299 818 q 223 812 295 818 q 90 807 151 807 q 35 836 47 807 q 26 901 26 855 q 43 979 26 958 q 102 1001 59 1001 q 361 997 247 1001 q 451 995 423 995 q 542 966 508 995 q 566 914 566 946 q 561 886 566 901 q 304 195 451 534 q 301 187 301 190 q 307 184 301 184 q 481 194 433 194 q 536 164 524 194 q 544 100 544 145 q 534 31 544 52 q 469 0 519 0 z "},"[":{"ha":394,"x_min":34,"x_max":360,"o":"m 162 -149 q 60 -127 86 -149 q 34 -51 34 -104 q 41 1093 34 131 q 106 1148 41 1142 q 146 1150 127 1150 q 249 1148 205 1150 q 327 1146 288 1146 q 345 1142 338 1146 q 360 1073 360 1133 q 351 1048 360 1056 q 319 1038 342 1041 q 268 1033 274 1034 q 261 1025 261 1031 q 264 962 261 1019 q 272 711 267 905 q 286 -18 286 184 q 289 -25 286 -22 q 327 -28 291 -28 q 345 -32 338 -28 q 360 -101 360 -41 q 351 -125 360 -118 q 319 -135 342 -133 q 274 -141 296 -138 q 162 -149 219 -149 z "},"\\":{"ha":313,"x_min":34,"x_max":279,"o":"m 221 0 q 175 8 191 0 q 155 45 159 16 q 34 970 34 929 q 62 1001 34 1001 q 125 991 111 1001 q 142 965 139 982 q 279 38 279 45 q 264 7 279 14 q 221 0 250 0 z "},"]":{"ha":394,"x_min":34,"x_max":360,"o":"m 232 -149 q 120 -141 175 -149 q 75 -135 98 -138 q 43 -125 52 -133 q 34 -101 34 -118 q 49 -32 34 -41 q 67 -28 56 -28 q 105 -25 103 -28 q 108 -18 108 -22 q 123 711 108 184 q 130 962 127 905 q 133 1025 133 1019 q 126 1033 133 1031 q 75 1038 120 1034 q 43 1048 52 1041 q 34 1073 34 1056 q 49 1142 34 1133 q 67 1146 56 1146 q 145 1148 106 1146 q 248 1150 189 1150 q 288 1148 267 1150 q 353 1093 353 1142 q 360 -51 360 131 q 334 -127 360 -104 q 232 -149 308 -149 z "},"^":{"ha":480,"x_min":34,"x_max":446,"o":"m 340 518 q 292 564 311 518 q 248 673 250 673 q 237 646 246 673 q 213 569 229 620 q 159 519 198 519 q 103 529 136 519 q 52 552 69 540 q 34 587 34 565 q 92 768 34 609 q 186 985 161 959 q 243 1001 201 1001 q 306 993 282 1001 q 338 958 329 985 q 401 749 371 852 q 446 583 446 593 q 444 569 446 578 q 421 548 441 560 q 357 522 401 536 q 340 518 348 518 z "},"_":{"ha":598,"x_min":34,"x_max":564,"o":"m 97 -262 q 47 -241 60 -262 q 34 -168 34 -220 q 46 -96 34 -117 q 110 -68 62 -68 q 513 -74 482 -74 q 554 -99 543 -74 q 564 -188 564 -123 q 550 -225 564 -214 q 519 -237 540 -233 q 311 -252 494 -243 q 97 -262 128 -262 z "},"`":{"ha":279,"x_min":34,"x_max":245,"o":"m 211 1077 q 196 1082 203 1077 l 43 1211 q 34 1227 34 1219 q 52 1257 34 1239 q 83 1275 70 1275 q 103 1264 92 1275 l 238 1130 q 245 1113 245 1122 q 235 1088 245 1099 q 211 1077 224 1077 z "},"a":{"ha":665,"x_min":40,"x_max":606,"o":"m 347 159 q 354 164 354 159 l 355 281 q 356 427 356 349 q 353 429 356 429 l 330 429 q 292 422 304 429 q 279 405 283 418 q 273 320 273 385 q 281 214 273 251 q 332 159 293 159 l 347 159 m 495 0 l 299 1 q 144 33 196 2 q 94 77 113 51 q 47 252 57 127 q 40 388 40 342 q 123 554 40 500 q 294 598 191 598 q 358 599 357 598 q 359 663 359 600 q 348 802 359 764 q 316 832 338 832 q 276 781 284 832 q 271 707 271 752 q 269 659 271 671 q 214 625 263 633 q 136 621 186 621 q 78 642 96 621 q 60 675 66 654 q 50 791 50 708 q 74 913 50 869 q 222 998 116 989 q 316 1001 269 1001 q 412 997 363 1001 q 503 975 461 994 q 595 791 595 932 l 597 464 q 604 195 597 387 q 606 82 606 111 q 578 16 606 35 q 495 0 554 0 z "},"b":{"ha":698,"x_min":66,"x_max":647,"o":"m 389 0 l 176 0 q 138 2 158 0 q 75 57 75 8 q 68 640 75 131 q 66 901 66 809 q 93 978 66 956 q 197 1001 119 1001 l 394 1001 q 564 957 496 1001 q 647 791 647 903 q 602 494 647 581 q 601 489 601 492 q 604 480 601 485 q 647 352 647 430 q 642 274 647 320 q 639 234 640 258 q 610 97 632 146 q 545 28 589 54 q 389 0 493 0 m 363 159 q 389 164 378 159 q 414 284 414 176 q 411 357 414 334 q 395 387 407 380 q 357 393 382 393 q 306 391 306 393 q 303 323 306 389 q 297 165 301 258 q 303 159 297 159 l 363 159 m 355 562 q 401 600 389 562 q 414 723 414 637 q 406 813 414 793 q 357 832 397 832 q 318 830 318 832 q 315 751 317 795 q 311 566 311 665 q 315 562 311 562 l 355 562 z "},"c":{"ha":642,"x_min":56,"x_max":602,"o":"m 334 0 q 125 52 181 0 q 73 194 78 96 q 59 612 66 313 q 56 791 56 736 q 167 982 56 941 q 334 1001 219 1001 q 429 997 381 1001 q 564 933 521 989 q 601 791 601 884 q 596 701 601 740 q 573 642 591 663 q 515 621 555 621 q 420 628 452 621 q 382 659 387 637 q 379 687 379 671 q 371 795 379 758 q 334 832 363 832 q 302 783 312 832 q 290 635 292 733 q 288 394 288 538 q 298 213 288 266 q 334 159 308 159 q 368 195 357 159 q 380 315 380 230 q 404 359 380 346 q 487 372 429 372 q 562 359 531 372 q 602 310 602 343 q 597 194 602 280 q 532 43 590 85 q 334 0 475 0 z "},"d":{"ha":705,"x_min":66,"x_max":647,"o":"m 363 159 q 390 164 378 159 q 414 284 414 176 l 414 723 q 405 815 414 798 q 357 832 395 832 l 322 832 q 318 827 318 832 q 317 770 318 823 q 309 574 315 717 q 297 172 297 324 q 308 159 297 159 l 363 159 m 388 0 l 176 0 q 135 2 157 0 q 75 57 75 7 q 72 312 75 101 q 66 901 66 733 q 101 984 66 963 q 197 1001 129 1001 l 393 1001 q 564 957 496 1001 q 647 790 647 903 l 646 418 q 614 109 645 193 q 544 28 595 57 q 388 0 492 0 z "},"e":{"ha":650,"x_min":55,"x_max":601,"o":"m 334 0 q 187 18 243 0 q 121 56 146 30 q 72 194 77 100 q 65 370 68 250 q 55 791 55 686 q 238 996 55 975 q 334 1001 287 1001 q 495 969 437 1001 q 570 876 546 941 q 600 637 600 797 l 600 589 q 597 527 600 556 q 570 468 593 490 q 493 446 548 446 q 288 445 290 446 q 287 394 287 444 q 297 213 287 266 q 334 159 307 159 q 379 315 379 159 q 419 366 379 353 q 486 372 442 372 q 573 353 541 372 q 601 310 601 338 q 596 195 601 270 q 526 39 589 81 q 334 0 468 0 m 386 634 q 399 647 399 634 q 390 799 399 766 q 350 832 382 832 q 303 787 317 832 q 290 648 290 743 q 305 635 290 636 l 386 634 z "},"f":{"ha":606,"x_min":5,"x_max":581,"o":"m 208 0 q 103 23 129 0 q 77 100 77 46 q 78 341 77 222 q 78 345 78 343 q 68 347 77 347 q 19 365 33 347 q 5 441 5 384 q 18 515 5 490 q 75 541 31 541 q 79 544 79 541 l 79 791 q 112 929 79 884 q 202 988 144 974 q 351 1001 255 1001 q 474 987 422 1001 q 542 945 516 977 q 581 791 581 898 q 564 658 581 692 q 496 621 545 621 q 418 625 446 621 q 363 659 368 633 q 360 687 360 671 q 356 798 360 763 q 335 832 353 832 q 315 800 319 832 q 313 727 313 777 q 313 614 313 671 q 318 540 313 543 q 331 538 323 538 q 468 536 410 538 q 517 534 500 534 q 544 528 533 534 q 568 420 568 513 q 553 384 568 395 q 504 368 539 372 q 338 358 401 358 q 325 349 325 358 q 328 298 325 343 q 330 83 330 252 q 296 12 330 29 q 208 0 271 0 z "},"g":{"ha":669,"x_min":39,"x_max":620,"o":"m 336 0 q 106 65 171 0 q 51 242 51 121 q 66 399 51 313 q 111 440 72 431 q 186 446 135 446 q 267 429 244 446 q 286 385 286 414 q 279 341 286 376 q 273 238 273 306 q 311 159 273 159 q 345 182 329 159 q 382 394 382 235 q 380 473 382 444 q 377 506 377 503 q 376 508 377 508 q 333 502 374 508 q 250 496 292 496 q 78 559 127 496 q 39 697 39 609 q 72 882 39 823 q 234 960 115 960 q 298 957 266 960 q 334 954 330 954 q 344 958 342 954 q 384 992 355 983 q 461 1001 414 1001 q 559 985 535 1001 q 589 919 584 968 q 620 443 620 600 q 614 266 620 347 q 528 55 602 117 q 336 0 463 0 m 299 690 q 349 699 322 690 q 355 705 355 701 l 345 792 q 336 797 345 795 q 294 800 313 800 q 266 741 267 800 q 272 702 266 714 q 299 690 278 690 z "},"h":{"ha":726,"x_min":68,"x_max":679,"o":"m 556 0 q 448 26 474 0 q 428 93 428 46 q 431 534 431 488 q 377 640 431 640 q 312 611 312 640 q 306 399 312 595 q 290 83 300 202 q 271 18 286 37 q 222 0 256 0 q 83 31 102 0 q 74 66 74 45 l 68 907 q 93 979 68 958 q 196 1001 118 1001 q 291 985 267 1001 q 319 919 319 968 l 318 839 q 326 827 318 827 q 359 830 334 827 q 419 833 385 833 q 503 829 460 833 q 582 804 545 825 q 667 600 662 758 q 679 82 679 258 q 646 13 679 31 q 556 0 621 0 z "},"i":{"ha":355,"x_min":54,"x_max":307,"o":"m 184 0 q 82 19 111 0 q 54 87 54 37 q 60 315 54 118 q 68 705 68 626 q 77 736 68 724 q 216 764 96 764 q 265 747 250 764 q 285 690 280 731 q 296 496 291 629 q 304 234 301 363 q 307 73 307 105 q 274 12 307 26 q 184 0 249 0 m 130 802 q 81 812 96 802 q 66 831 72 818 q 57 943 57 854 q 66 974 57 961 q 205 1001 85 1001 q 256 988 241 1001 q 270 966 265 981 q 278 861 278 942 q 249 815 278 827 q 130 802 216 802 z "},"j":{"ha":509,"x_min":7,"x_max":458,"o":"m 201 0 q 55 46 102 0 q 7 186 7 92 q 29 304 7 277 q 78 322 44 322 q 172 308 148 322 q 193 256 193 296 l 193 214 q 208 169 193 169 q 220 177 216 169 q 224 229 224 186 l 225 697 q 235 733 225 718 q 373 764 253 764 q 422 745 407 764 q 458 271 458 703 l 458 210 q 389 35 458 79 q 307 7 355 14 q 201 0 260 0 m 288 802 q 239 812 254 802 q 224 833 229 819 q 215 943 215 857 q 238 985 215 973 q 363 1001 269 1001 q 414 988 399 1001 q 427 968 422 981 q 436 861 436 944 q 408 816 436 827 q 288 802 376 802 z "},"k":{"ha":693,"x_min":65,"x_max":653,"o":"m 585 0 q 446 31 465 0 q 437 66 437 45 q 432 204 437 151 q 333 379 420 323 q 319 385 325 385 q 311 372 311 385 q 317 82 317 119 q 294 19 317 37 q 195 0 271 0 q 95 20 121 0 q 65 98 65 41 q 72 935 65 188 q 105 988 73 975 q 221 1001 138 1001 q 270 982 254 1001 q 289 918 285 964 q 302 625 296 848 q 310 610 303 610 q 325 616 315 610 q 433 807 422 674 q 437 935 437 853 q 446 970 437 956 q 585 1001 465 1001 q 636 983 618 1001 q 653 918 653 965 q 523 501 653 632 q 520 496 520 498 q 523 492 520 494 q 623 321 593 425 q 653 83 653 218 q 636 18 653 36 q 585 0 618 0 z "},"l":{"ha":524,"x_min":66,"x_max":532,"o":"m 222 0 q 84 31 102 0 q 75 66 75 45 q 72 319 75 110 q 66 903 66 736 q 94 980 66 958 q 197 1001 121 1001 q 296 982 272 1001 q 319 919 319 964 q 313 711 319 871 q 298 209 298 389 q 301 193 298 199 q 313 188 304 188 q 384 192 320 188 q 471 196 448 196 q 520 173 509 196 q 532 100 532 150 q 520 30 532 53 q 467 5 508 7 q 222 0 348 0 z "},"m":{"ha":1120,"x_min":68,"x_max":1059,"o":"m 221 0 q 82 31 100 0 q 73 66 73 45 l 68 912 q 104 987 68 969 q 195 1001 132 1001 q 258 997 232 1001 q 298 978 284 992 q 308 974 302 974 q 316 976 311 974 q 418 1001 378 1001 q 537 989 500 1001 q 617 926 588 972 q 623 922 620 922 q 633 928 627 922 q 768 994 690 977 q 812 1001 798 1001 q 894 997 853 1001 q 968 972 935 993 q 1048 767 1042 926 q 1055 520 1052 669 q 1059 87 1059 202 q 1034 22 1059 41 q 937 4 1009 4 q 831 28 859 4 q 808 96 808 48 l 812 701 q 804 783 812 760 q 770 807 795 807 q 688 787 720 807 q 656 724 656 767 q 658 481 656 623 q 663 225 661 340 q 665 87 665 111 q 638 21 665 39 q 542 4 612 4 q 441 24 469 4 q 414 98 414 45 l 417 701 q 409 783 417 760 q 376 807 401 807 q 316 777 317 807 q 298 248 310 539 q 289 83 293 125 q 270 18 285 37 q 221 0 254 0 z "},"n":{"ha":726,"x_min":66,"x_max":667,"o":"m 222 0 q 83 31 102 0 q 74 66 74 45 q 72 319 74 110 q 66 903 66 770 q 98 983 66 962 q 197 1001 125 1001 q 262 996 236 1001 q 302 975 289 991 q 307 972 305 972 q 315 975 309 972 q 420 1001 376 1001 q 501 997 460 1001 q 576 972 542 993 q 656 767 650 926 q 661 520 659 669 q 667 87 667 196 q 652 33 667 51 q 627 14 643 20 q 544 4 602 4 q 454 18 481 4 q 428 40 437 26 q 414 103 414 61 q 418 701 418 655 q 411 783 418 760 q 377 807 403 807 q 317 777 318 807 q 291 83 299 174 q 271 18 287 37 q 222 0 256 0 z "},"o":{"ha":670,"x_min":56,"x_max":613,"o":"m 334 0 q 188 17 243 0 q 104 77 132 35 q 73 194 77 120 q 65 370 69 250 q 58 613 61 490 q 56 791 56 736 q 81 912 56 869 q 148 975 106 956 q 238 997 189 994 q 334 1001 287 1001 q 430 997 381 1001 q 520 975 479 994 q 587 912 562 956 q 613 791 613 869 q 610 613 613 736 q 603 370 607 490 q 595 194 599 250 q 564 77 591 120 q 480 17 536 35 q 334 0 425 0 m 334 159 q 371 213 361 159 q 380 394 380 266 q 378 635 380 538 q 367 783 376 733 q 334 832 357 832 q 301 783 311 832 q 290 635 292 733 q 288 394 288 538 q 297 213 288 266 q 334 159 307 159 z "},"p":{"ha":667,"x_min":66,"x_max":646,"o":"m 222 0 q 105 11 135 0 q 74 57 75 21 q 66 901 66 838 q 81 965 66 943 q 109 988 91 980 q 197 1001 136 1001 l 393 1001 q 564 956 495 1001 q 646 791 646 903 q 614 519 646 610 q 543 435 595 466 q 364 403 487 403 l 311 403 q 305 398 305 403 q 301 264 305 394 q 291 74 296 135 q 271 14 287 28 q 222 0 256 0 m 355 562 q 402 604 389 562 q 414 723 414 641 q 410 795 414 772 q 394 825 406 819 q 357 832 382 832 q 319 831 320 832 q 316 788 318 831 q 311 566 311 663 q 315 562 311 562 l 355 562 z "},"q":{"ha":669,"x_min":20,"x_max":600,"o":"m 355 562 q 359 569 359 562 q 370 823 365 715 q 368 830 370 829 q 310 832 366 832 q 272 825 285 832 q 259 808 264 821 q 253 723 253 788 q 263 608 253 646 q 312 562 275 562 l 355 562 m 470 0 q 372 19 396 0 q 347 83 347 37 q 351 276 347 155 q 355 400 355 397 q 279 404 355 404 q 124 435 176 405 q 53 520 72 466 q 20 791 20 610 q 103 957 20 903 q 273 1001 171 1001 l 490 1001 q 566 990 543 1001 q 592 943 592 977 q 595 688 592 900 q 600 100 600 269 q 562 15 600 35 q 470 0 534 0 z "},"r":{"ha":633,"x_min":66,"x_max":613,"o":"m 222 0 q 83 31 102 0 q 74 66 74 45 q 71 319 74 110 q 66 903 66 736 q 102 985 66 965 q 196 1001 129 1001 q 296 968 272 1001 q 339 946 312 946 q 381 959 352 946 q 442 972 410 972 q 613 720 613 972 q 592 554 613 580 q 543 536 576 536 q 425 566 444 536 q 415 602 415 581 l 414 729 q 386 812 414 812 q 329 750 359 812 q 311 569 315 723 q 290 83 302 220 q 271 18 286 37 q 222 0 256 0 z "},"s":{"ha":648,"x_min":41,"x_max":610,"o":"m 326 0 q 153 27 214 0 q 83 79 109 46 q 41 242 41 134 q 56 371 41 279 q 121 415 63 410 q 176 417 147 417 q 252 403 229 417 q 276 356 276 389 q 269 325 276 348 q 262 239 262 301 q 301 159 262 159 q 372 366 372 159 q 357 439 372 423 q 301 455 342 455 l 207 455 q 117 478 149 455 q 55 633 61 518 q 53 736 53 683 l 53 791 q 145 975 53 932 q 236 997 186 994 q 332 1001 285 1001 q 426 998 378 1001 q 562 930 519 990 q 597 791 597 882 q 587 727 597 746 q 512 696 570 696 q 405 708 435 696 q 379 734 383 717 q 376 762 376 747 q 369 814 376 795 q 332 832 361 832 q 297 806 307 832 q 286 700 286 781 q 325 646 286 660 q 463 635 359 635 q 544 614 511 635 q 610 414 610 570 q 604 241 610 318 q 515 47 591 102 q 326 0 452 0 z "},"t":{"ha":590,"x_min":12,"x_max":560,"o":"m 343 0 q 239 7 286 0 q 104 98 138 21 q 86 210 86 140 q 84 579 86 578 q 80 580 83 580 q 58 580 78 580 q 24 606 37 581 q 12 680 12 631 q 16 732 12 711 q 33 763 20 753 q 82 774 47 774 q 84 901 84 774 q 114 981 84 960 q 214 1001 142 1001 q 304 988 279 1001 q 336 918 336 971 q 334 831 336 889 q 331 770 331 774 q 337 763 331 763 q 490 752 368 763 q 539 737 526 749 q 553 699 553 725 q 530 593 553 607 q 502 586 519 586 q 450 585 486 586 q 323 583 388 583 q 319 269 319 583 q 321 200 319 219 q 341 169 326 169 q 362 203 359 169 q 366 314 366 238 q 369 342 366 330 q 475 380 377 380 q 532 359 514 380 q 555 299 551 338 q 560 210 560 261 q 529 66 560 114 q 343 0 486 0 z "},"u":{"ha":730,"x_min":61,"x_max":661,"o":"m 531 0 q 465 5 492 0 q 425 26 438 10 q 420 28 422 28 q 412 26 417 28 q 308 0 351 0 q 227 4 267 0 q 152 29 186 8 q 72 234 77 75 q 66 481 68 332 q 61 914 61 805 q 75 968 61 950 q 100 987 84 980 q 184 997 125 997 q 273 983 245 997 q 313 903 313 964 l 309 291 q 317 216 309 239 q 351 193 325 193 q 410 224 409 193 q 437 918 428 827 q 456 982 441 964 q 505 1001 471 1001 q 644 970 625 1001 q 653 935 653 956 q 656 682 653 891 q 661 98 661 231 q 629 18 661 39 q 531 0 602 0 z "},"v":{"ha":663,"x_min":12,"x_max":647,"o":"m 330 0 q 216 24 236 0 q 199 54 205 35 q 89 463 138 261 q 12 919 12 781 q 40 977 12 961 q 176 1001 82 1001 q 234 986 212 1001 q 262 928 257 970 q 324 337 271 863 q 330 313 327 313 q 335 336 332 313 q 397 928 390 880 q 426 986 402 970 q 488 1001 449 1001 q 619 977 576 1001 q 647 918 647 960 q 514 237 647 698 q 444 24 456 39 q 330 0 422 0 z "},"w":{"ha":859,"x_min":66,"x_max":789,"o":"m 661 0 q 592 3 614 0 q 517 56 538 7 q 428 240 431 240 q 340 55 425 240 q 263 3 318 7 q 195 0 237 0 q 148 3 172 0 q 73 66 74 10 q 66 903 66 813 q 99 983 66 962 q 196 1001 126 1001 q 264 996 237 1001 q 302 976 289 991 q 319 919 319 958 q 302 470 319 877 q 295 290 295 300 q 297 283 295 283 q 303 291 299 283 q 351 378 335 352 q 428 453 396 453 q 508 378 466 453 q 543 311 526 345 q 559 279 557 279 q 561 282 561 279 q 553 470 561 299 q 536 919 536 877 q 562 984 536 966 q 659 1001 587 1001 q 762 980 734 1001 q 789 903 789 959 q 785 319 789 736 q 782 66 782 110 q 711 3 782 10 q 661 0 683 0 z "},"x":{"ha":637,"x_min":9,"x_max":625,"o":"m 479 0 q 433 11 448 0 q 411 41 419 22 q 336 290 397 72 q 330 308 330 308 q 256 58 328 308 q 181 0 239 0 q 107 12 151 0 q 35 41 60 24 q 9 87 9 57 q 23 137 9 108 q 191 500 191 495 q 186 517 191 505 q 23 863 80 741 q 9 914 9 892 q 35 959 9 943 q 71 977 49 969 q 186 1001 133 1001 q 260 943 234 1001 q 325 705 277 906 q 330 695 327 695 q 414 959 334 695 q 433 989 419 978 q 479 1001 448 1001 q 583 983 515 1001 q 625 939 625 972 q 614 888 625 919 q 459 515 597 840 q 456 500 456 507 q 459 487 456 494 q 614 112 584 195 q 625 62 625 82 q 583 17 625 27 q 479 0 515 0 z "},"y":{"ha":696,"x_min":41,"x_max":643,"o":"m 347 0 q 178 21 239 0 q 90 89 117 41 q 64 220 64 136 q 76 349 64 277 q 98 381 80 371 q 141 393 115 391 q 196 395 168 395 q 259 388 238 395 q 289 366 281 380 q 296 335 296 353 q 293 304 296 326 q 283 220 283 244 q 321 159 283 159 q 359 182 339 159 q 406 394 405 237 q 401 454 406 454 l 395 452 q 235 432 305 432 q 118 461 160 432 q 58 548 75 490 q 41 688 41 605 q 54 919 41 783 q 70 972 57 954 q 98 993 79 986 q 180 1001 123 1001 q 253 994 224 1001 q 306 913 306 981 q 304 890 306 907 q 289 711 289 777 q 296 645 289 665 q 320 625 303 625 q 382 640 340 625 q 391 647 391 642 q 381 761 391 651 q 372 913 372 871 q 397 981 372 961 q 496 1001 422 1001 q 591 987 568 1001 q 623 919 619 970 q 637 684 631 831 q 643 443 643 537 q 635 266 643 347 q 508 33 616 93 q 347 0 448 0 z "},"z":{"ha":574,"x_min":6,"x_max":566,"o":"m 469 0 q 210 4 325 0 q 121 6 148 6 q 30 35 63 6 q 6 87 6 55 q 11 115 6 100 q 111 388 52 248 q 231 664 170 529 q 300 817 300 813 q 297 818 300 818 q 224 812 296 818 q 91 807 152 807 q 36 836 48 807 q 27 901 27 855 q 43 979 27 958 q 103 1001 60 1001 q 362 997 248 1001 q 452 995 424 995 q 543 966 509 995 q 566 914 566 946 q 562 886 566 901 q 304 195 452 534 q 302 187 302 190 q 308 184 302 184 q 481 194 434 194 q 537 164 525 194 q 545 100 545 145 q 534 31 545 52 q 469 0 519 0 z "},"{":{"ha":473,"x_min":34,"x_max":439,"o":"m 406 -149 q 118 -61 185 -149 q 84 11 87 -21 q 81 56 81 43 q 117 241 81 120 q 146 378 146 340 q 66 446 146 446 q 42 464 50 446 q 34 500 34 481 q 40 537 34 520 q 66 555 45 555 q 126 571 108 555 q 145 603 144 587 q 146 623 146 619 q 139 680 146 649 q 117 760 130 717 q 81 945 81 881 q 118 1063 81 1015 q 406 1150 185 1150 q 423 1146 416 1150 q 439 1076 439 1137 q 397 1042 439 1042 q 345 1026 361 1042 q 329 995 330 1010 q 328 975 328 979 q 355 843 328 936 q 389 656 389 724 q 385 608 389 631 q 332 513 376 553 q 323 500 323 505 q 332 488 323 496 q 383 408 376 448 q 389 344 389 368 q 355 158 389 277 q 328 26 328 65 q 345 -24 328 -8 q 397 -41 361 -41 q 430 -49 420 -41 q 439 -75 439 -58 q 435 -124 439 -109 q 423 -144 431 -140 q 406 -149 416 -149 z "},"|":{"ha":786,"x_min":305,"x_max":481,"o":"m 395 -149 q 328 -136 350 -149 q 305 -78 305 -123 q 319 1102 305 -33 q 326 1128 319 1118 q 422 1150 339 1150 q 456 1137 446 1150 q 470 1090 467 1124 q 474 887 473 1057 q 477 503 476 718 q 480 113 479 288 q 481 -90 481 -61 q 459 -139 481 -129 q 395 -149 437 -149 z "},"}":{"ha":473,"x_min":34,"x_max":439,"o":"m 67 -149 q 50 -144 57 -149 q 38 -124 42 -140 q 34 -75 34 -109 q 43 -49 34 -58 q 75 -41 52 -41 q 128 -24 112 -41 q 144 26 144 -8 q 118 158 144 65 q 83 344 83 277 q 90 408 83 368 q 140 488 96 448 q 149 500 149 496 q 141 513 149 505 q 87 608 97 553 q 83 656 83 631 q 118 843 83 724 q 144 975 144 936 q 144 995 144 979 q 127 1026 143 1010 q 75 1042 112 1042 q 34 1076 34 1042 q 50 1146 34 1137 q 67 1150 57 1150 q 355 1063 288 1150 q 391 945 391 1015 q 355 760 391 881 q 334 680 342 717 q 327 623 327 649 q 328 603 327 619 q 347 571 329 587 q 406 555 365 555 q 433 537 427 555 q 439 500 439 520 q 431 464 439 481 q 406 446 422 446 q 327 378 327 446 q 355 241 327 340 q 391 56 391 120 q 389 11 391 43 q 355 -61 386 -21 q 67 -149 288 -149 z "},"~":{"ha":597,"x_min":34,"x_max":564,"o":"m 403 382 q 325 395 359 382 q 263 425 291 409 q 222 445 242 436 q 184 453 203 453 q 136 399 161 453 q 104 382 127 382 q 58 396 81 382 q 34 430 34 410 q 35 437 34 433 q 96 573 58 528 q 196 619 134 619 q 277 606 243 619 q 337 576 311 592 q 376 556 357 564 q 415 548 395 548 q 461 602 437 548 q 495 619 469 619 q 541 606 518 619 q 564 571 564 592 q 556 534 564 566 q 530 463 548 501 q 503 420 519 438 q 403 382 468 382 z "},"¡":{"ha":320,"x_min":34,"x_max":286,"o":"m 156 720 q 257 699 230 720 q 286 620 286 677 q 279 283 286 536 q 273 58 273 117 q 248 12 273 23 q 125 0 218 0 q 76 14 92 0 q 56 75 61 28 q 47 230 52 118 q 38 462 42 342 q 34 636 34 582 q 57 701 34 682 q 156 720 81 720 m 197 1001 q 247 991 231 1001 q 262 968 257 984 q 271 860 271 945 q 237 813 271 825 q 122 802 203 802 q 72 814 87 802 q 54 851 59 826 q 50 943 50 876 q 78 987 50 976 q 197 1001 111 1001 z "},"¢":{"ha":614,"x_min":34,"x_max":581,"o":"m 332 -85 q 271 -76 285 -85 q 258 -51 258 -67 l 258 -3 q 253 1 258 1 q 102 41 155 4 q 34 210 34 90 q 37 388 34 265 q 44 631 40 511 q 51 807 48 751 q 102 947 56 903 q 248 998 149 991 q 258 1007 258 998 l 258 1052 q 271 1077 258 1068 q 332 1086 285 1086 q 357 1058 357 1086 l 357 1012 q 370 1000 357 1000 q 522 949 474 994 q 576 807 570 905 q 581 691 581 722 q 564 655 581 669 q 520 635 547 642 q 466 629 494 629 q 398 636 421 629 q 367 656 375 643 q 359 686 359 669 q 347 806 359 771 q 313 842 335 842 q 276 788 286 842 q 267 606 267 735 q 269 366 267 463 q 280 218 271 268 q 313 169 290 169 q 350 206 342 169 q 358 314 358 243 q 361 342 358 330 q 396 372 366 363 q 494 380 426 380 q 551 359 533 380 q 574 299 569 338 q 579 210 579 261 q 512 37 579 85 q 361 1 461 1 q 357 -5 357 1 l 357 -52 q 351 -77 357 -70 q 332 -85 345 -85 z "},"£":{"ha":691,"x_min":34,"x_max":657,"o":"m 98 0 q 46 22 60 0 q 34 94 34 41 q 37 139 34 119 q 54 180 40 159 q 112 307 112 270 q 89 311 112 311 q 43 332 53 311 q 34 393 34 352 q 46 457 34 436 q 100 479 59 479 q 102 479 102 479 q 88 554 102 485 q 64 733 64 676 q 114 947 64 890 q 221 995 149 987 q 348 1001 275 1001 q 522 974 459 1001 q 581 933 557 958 q 633 759 633 878 q 623 659 633 721 q 557 614 615 619 q 503 612 531 612 q 429 624 453 612 q 402 673 402 637 q 407 705 402 682 q 412 762 412 727 q 373 842 412 842 q 316 804 332 842 q 301 696 301 771 q 319 536 301 646 q 328 481 324 509 q 484 473 330 473 q 508 467 498 473 q 528 375 528 454 q 516 343 528 353 q 473 330 503 333 q 347 321 433 326 q 342 316 342 321 q 333 246 340 281 q 326 206 326 212 q 334 200 326 200 q 460 205 353 200 q 606 210 573 210 q 632 204 622 210 q 657 96 657 189 q 643 59 657 71 q 222 7 622 41 q 98 0 134 0 z "},"¤":{"ha":519,"x_min":34,"x_max":485,"o":"m 371 267 q 334 283 353 267 l 331 283 q 260 275 296 275 q 177 290 216 275 l 175 291 q 168 284 174 291 q 139 269 154 269 q 50 328 111 269 q 34 361 34 343 q 54 404 34 380 l 53 406 q 34 500 34 450 q 54 596 34 557 q 35 639 35 620 q 50 672 35 657 q 139 731 111 731 q 168 716 154 731 l 174 710 q 260 726 220 726 q 330 715 296 726 l 333 715 q 370 734 352 734 q 441 690 398 734 q 478 643 472 659 q 485 617 485 626 q 473 583 485 601 q 485 500 485 547 q 474 419 485 461 q 475 414 474 416 q 485 382 485 398 q 441 310 485 353 q 394 272 410 278 q 371 267 378 267 m 260 420 q 316 444 292 420 q 339 500 339 467 q 316 556 339 533 q 260 580 292 580 q 203 556 227 580 q 180 500 180 533 q 203 444 180 467 q 260 420 227 420 z "},"¥":{"ha":650,"x_min":34,"x_max":616,"o":"m 328 0 q 220 26 247 0 q 199 106 199 48 q 197 118 199 117 q 122 119 196 119 q 98 125 108 119 q 78 217 78 137 q 90 249 78 239 q 133 262 102 259 q 195 267 154 264 q 198 268 197 267 q 199 274 199 269 q 198 280 199 280 q 132 278 189 278 q 87 298 96 278 q 78 359 78 319 q 90 424 78 403 q 143 446 102 446 l 195 445 q 200 446 199 445 q 201 453 201 447 q 199 460 201 459 q 189 463 197 461 q 37 670 43 499 q 34 779 34 734 q 62 987 34 961 q 111 1001 77 1001 q 231 989 201 1001 q 258 943 258 979 q 260 837 258 886 q 261 733 261 788 q 266 682 261 705 q 325 632 276 632 q 367 646 353 632 q 389 733 389 667 q 390 837 389 788 q 391 943 391 886 q 400 976 391 964 q 433 994 408 987 q 539 1001 465 1001 q 588 987 572 1001 q 616 779 616 961 q 613 670 616 734 q 448 460 606 494 q 443 458 444 460 q 442 451 442 457 q 449 441 442 441 q 528 440 505 440 q 551 434 541 440 q 572 342 572 421 q 559 310 572 320 q 517 297 547 300 q 447 290 447 292 l 447 281 q 450 279 447 279 q 473 280 452 279 q 517 281 495 281 q 562 260 553 281 q 572 200 572 240 q 560 135 572 156 q 507 114 548 114 l 453 114 q 451 82 451 114 q 426 18 451 35 q 328 0 401 0 z "},"§":{"ha":494,"x_min":34,"x_max":460,"o":"m 248 -113 q 176 -111 212 -113 q 43 47 43 -100 q 53 98 43 83 q 109 121 66 121 q 195 109 174 121 q 213 70 213 100 q 219 30 213 44 q 248 16 225 16 q 274 36 266 16 q 282 117 282 56 q 237 191 282 174 q 191 204 217 199 q 138 220 165 210 q 34 445 34 259 q 52 588 34 546 q 55 600 55 594 q 51 618 55 606 q 36 710 39 658 q 34 840 34 762 q 174 998 34 987 q 248 1001 212 1001 q 320 998 283 1001 q 397 974 367 994 q 452 840 452 937 q 442 789 452 804 q 386 767 428 767 q 299 779 321 767 q 282 818 282 787 q 276 858 282 844 q 248 872 270 872 q 221 852 229 872 q 213 770 213 832 q 258 697 213 714 q 302 684 278 689 q 409 633 372 669 q 460 443 460 580 q 457 356 460 393 q 440 294 453 319 q 439 288 439 292 q 441 277 439 284 q 458 182 456 236 q 460 93 460 139 l 460 47 q 321 -111 460 -100 q 248 -113 283 -113 m 260 363 q 271 372 262 363 q 279 435 279 380 q 241 522 279 498 q 234 525 236 525 q 230 522 233 525 q 216 452 216 504 q 252 368 216 391 q 260 363 258 363 z "},"¨":{"ha":373,"x_min":34,"x_max":339,"o":"m 100 1073 l 71 1073 q 41 1086 48 1074 q 34 1122 34 1098 q 40 1157 34 1145 q 65 1168 45 1168 q 105 1168 85 1168 q 131 1157 125 1168 q 137 1122 137 1147 q 130 1085 137 1097 q 100 1073 123 1073 m 302 1073 l 273 1073 q 243 1086 250 1074 q 236 1122 236 1098 q 242 1157 236 1145 q 267 1168 248 1168 q 307 1168 288 1168 q 333 1157 327 1168 q 339 1122 339 1147 q 332 1085 339 1097 q 302 1073 325 1073 z "},"©":{"ha":977,"x_min":6,"x_max":958,"o":"m 486 200 q 428 202 457 200 q 318 326 318 211 q 320 433 318 359 q 324 579 321 507 q 328 684 326 650 q 368 776 332 751 q 486 801 404 801 q 603 776 567 801 q 644 684 640 751 q 646 615 646 633 q 625 586 646 595 q 577 577 603 577 q 525 587 537 577 q 513 612 513 596 q 486 705 513 705 q 464 673 469 705 q 458 564 458 642 q 461 368 458 435 q 486 301 465 301 q 508 323 503 301 q 513 389 513 346 q 529 421 513 414 q 594 429 546 429 q 629 416 618 429 q 643 380 640 403 q 646 326 646 357 q 613 229 646 260 q 542 202 589 206 q 486 200 514 200 m 482 24 q 243 88 351 24 q 106 208 162 136 q 6 500 6 337 q 70 740 6 632 q 181 869 115 815 q 482 977 312 977 q 722 912 614 977 q 833 822 785 875 q 958 500 958 686 q 894 261 958 369 q 722 89 830 153 q 482 24 614 24 m 482 92 q 688 147 595 92 q 812 259 762 191 q 890 500 890 366 q 785 775 890 660 q 482 909 661 909 q 277 854 370 909 q 172 766 216 818 q 74 500 74 651 q 129 295 74 388 q 207 199 161 240 q 482 92 323 92 z "},"«":{"ha":680,"x_min":34,"x_max":646,"o":"m 275 273 q 248 283 260 273 q 153 368 201 326 q 39 477 46 459 q 34 500 34 488 q 59 550 34 527 q 154 634 106 593 q 248 718 202 675 q 273 728 258 728 q 347 675 296 728 q 359 646 359 661 q 336 604 359 629 q 251 510 300 564 q 246 500 246 505 q 252 490 246 496 l 336 397 q 359 353 359 371 q 347 326 359 340 q 275 273 296 273 m 561 273 q 534 283 546 273 q 439 368 488 326 q 326 477 332 459 q 320 500 320 488 q 345 550 320 527 q 440 634 392 593 q 534 718 488 675 q 559 728 545 728 q 633 675 582 728 q 646 646 646 661 q 623 604 646 629 q 537 510 587 564 q 532 500 532 505 q 538 490 532 496 l 623 397 q 646 353 646 371 q 633 326 646 340 q 561 273 583 273 z "},"¬":{"ha":598,"x_min":34,"x_max":564,"o":"m 505 170 q 417 180 443 170 q 391 222 391 190 q 390 336 390 321 q 378 350 390 350 q 296 344 372 350 q 97 338 219 338 q 41 370 52 338 q 34 433 34 389 q 47 507 34 486 q 109 533 63 533 q 307 530 216 533 q 513 527 398 527 q 540 520 529 527 q 564 413 564 505 l 564 234 q 547 183 564 195 q 505 170 530 170 z "},"®":{"ha":1020,"x_min":34,"x_max":986,"o":"m 648 200 q 564 218 576 200 q 558 239 558 227 q 534 402 558 352 q 483 441 517 436 q 480 435 480 441 q 483 293 480 353 q 484 250 484 263 q 466 209 484 217 q 410 200 448 200 q 352 211 371 200 q 332 260 332 222 q 336 614 332 376 l 337 766 q 351 794 337 787 q 414 801 365 801 l 529 801 q 600 790 564 801 q 681 675 681 764 q 641 479 681 520 q 637 473 637 475 q 640 467 637 471 q 688 250 688 400 q 678 211 688 222 q 648 200 667 200 m 506 538 q 532 557 524 538 q 541 634 541 577 q 535 689 541 678 q 507 700 530 700 l 479 700 q 471 696 471 700 q 477 542 472 688 q 482 538 477 538 l 506 538 m 510 24 q 271 88 378 24 q 134 208 190 136 q 34 500 34 337 q 98 740 34 632 q 209 869 142 815 q 510 977 340 977 q 749 912 642 977 q 861 822 813 875 q 986 500 986 686 q 922 261 986 369 q 750 89 858 153 q 510 24 642 24 m 510 92 q 715 147 623 92 q 840 259 789 191 q 918 500 918 366 q 812 775 918 660 q 510 909 689 909 q 304 854 397 909 q 199 766 244 818 q 102 500 102 651 q 157 295 102 388 q 235 199 189 240 q 510 92 351 92 z "},"¯":{"ha":598,"x_min":34,"x_max":564,"o":"m 97 1104 q 47 1125 60 1104 q 34 1198 34 1145 q 46 1270 34 1249 q 110 1298 62 1298 q 513 1292 482 1292 q 554 1267 543 1292 q 564 1178 564 1242 q 550 1141 564 1152 q 519 1128 540 1133 q 311 1114 494 1123 q 97 1104 128 1104 z "},"°":{"ha":511,"x_min":34,"x_max":477,"o":"m 255 559 q 99 624 163 559 q 34 780 34 688 q 99 936 34 871 q 255 1001 163 1001 q 412 936 347 1001 q 477 780 477 871 q 412 624 477 688 q 255 559 347 559 m 255 649 q 348 687 309 649 q 386 780 386 726 q 348 872 386 834 q 255 911 309 911 q 162 872 201 911 q 124 780 124 834 q 162 687 124 726 q 255 649 201 649 z "},"±":{"ha":598,"x_min":34,"x_max":564,"o":"m 322 235 q 215 260 230 235 q 208 286 208 271 q 206 405 208 404 q 184 406 203 406 q 154 405 179 406 q 97 404 128 404 q 47 424 60 404 q 34 498 34 445 q 46 570 34 549 q 110 597 62 597 l 189 597 q 203 606 203 597 l 202 690 q 226 751 202 735 q 302 766 247 766 q 376 753 357 766 q 396 703 396 740 q 395 664 396 692 q 393 607 393 635 q 406 594 393 595 q 513 591 482 591 q 554 567 543 591 q 564 477 564 542 q 550 440 564 452 q 519 428 540 432 q 395 418 494 422 q 382 407 383 417 q 375 300 378 336 q 360 250 372 264 q 322 235 348 235 m 97 0 q 43 27 56 0 q 34 94 34 47 q 49 171 34 150 q 110 194 65 194 q 304 191 195 194 q 513 188 416 188 q 555 160 545 188 q 564 74 564 134 q 550 37 564 49 q 500 22 536 25 q 288 7 414 14 q 97 0 162 0 z "},"´":{"ha":279,"x_min":34,"x_max":245,"o":"m 68 1077 q 45 1088 56 1077 q 34 1113 34 1099 q 42 1130 34 1122 l 176 1264 q 197 1275 187 1275 q 228 1257 210 1275 q 245 1227 245 1239 q 236 1211 245 1219 l 83 1082 q 68 1077 77 1077 z "},"¶":{"ha":772,"x_min":34,"x_max":739,"o":"m 591 -95 q 488 -73 515 -95 q 461 3 461 -51 q 465 429 461 130 q 469 886 469 783 q 442 887 469 887 q 414 884 414 887 q 422 -38 414 805 q 401 -85 422 -75 q 338 -95 380 -95 q 269 -82 292 -95 q 247 -27 247 -70 q 254 509 247 94 q 252 518 254 513 q 245 522 250 522 q 81 605 139 522 q 34 760 34 671 q 58 876 34 821 q 130 966 81 931 q 254 1001 179 1001 l 694 1001 q 730 986 722 1001 q 739 943 739 972 q 732 901 739 915 q 701 887 726 887 l 692 887 q 688 884 688 887 q 691 831 688 883 q 700 590 694 779 q 714 -13 714 119 q 676 -84 714 -68 q 591 -95 651 -95 z "},"·":{"ha":345,"x_min":68,"x_max":256,"o":"m 130 416 q 88 425 101 416 q 74 446 79 431 q 68 536 68 467 q 85 570 68 560 q 194 585 111 585 q 237 574 224 585 q 248 557 244 568 q 256 465 256 536 q 231 427 256 437 q 130 416 203 416 z "},"∙":{"ha":345,"x_min":68,"x_max":256,"o":"m 130 416 q 88 425 101 416 q 74 446 79 431 q 68 536 68 467 q 85 570 68 560 q 194 585 111 585 q 237 574 224 585 q 248 557 244 568 q 256 465 256 536 q 231 427 256 437 q 130 416 203 416 z "},"¸":{"ha":271,"x_min":34,"x_max":237,"o":"m 65 -258 q 42 -246 50 -258 q 34 -219 34 -234 q 42 -191 34 -203 q 65 -179 50 -179 q 131 -160 105 -179 q 156 -121 156 -142 q 141 -92 156 -104 q 92 -79 125 -80 q 59 -52 59 -78 q 78 37 59 -43 q 95 54 83 54 q 114 52 104 54 q 131 45 125 49 q 138 33 138 41 q 133 11 138 30 q 128 -10 128 -9 q 134 -14 128 -13 q 211 -58 185 -26 q 237 -127 237 -90 q 192 -219 237 -179 q 65 -258 146 -258 z "},"»":{"ha":680,"x_min":34,"x_max":646,"o":"m 119 273 q 47 326 97 273 q 34 353 34 340 q 57 397 34 371 l 142 490 q 147 500 147 496 q 142 510 147 505 q 57 604 93 564 q 34 646 34 629 q 47 675 34 661 q 121 728 98 728 q 146 718 135 728 q 239 634 191 675 q 334 550 288 593 q 359 500 359 527 q 355 477 359 488 q 240 368 347 459 q 146 283 192 326 q 119 273 134 273 m 405 273 q 333 326 383 273 q 320 353 320 340 q 343 397 320 371 l 428 490 q 433 500 433 496 q 429 510 433 505 q 343 604 379 564 q 320 646 320 629 q 333 675 320 661 q 407 728 384 728 q 432 718 421 728 q 526 634 477 675 q 621 550 574 593 q 646 500 646 527 q 641 477 646 488 q 526 368 633 459 q 432 283 478 326 q 405 273 420 273 z "},"¼":{"ha":844,"x_min":68,"x_max":776,"o":"m 248 456 q 173 473 183 456 q 168 492 168 481 q 163 821 164 821 q 152 807 163 821 q 130 793 141 793 q 94 810 115 793 q 68 848 68 832 q 175 987 68 867 q 234 1001 187 1001 q 284 993 267 1001 q 300 956 300 985 q 298 827 300 928 q 292 630 295 727 q 286 501 288 533 q 275 466 283 476 q 248 456 267 456 m 234 0 q 196 5 209 0 q 182 28 182 11 q 188 54 182 38 q 490 965 486 948 q 511 991 495 982 q 576 1001 527 1001 q 599 981 599 1001 q 595 956 599 970 q 309 43 578 892 q 294 17 303 27 q 234 0 278 0 m 692 0 q 616 17 627 0 q 611 37 611 25 q 610 68 611 68 q 564 66 608 68 q 478 64 520 64 q 426 116 426 64 q 435 151 426 132 q 612 523 555 412 q 638 542 621 539 q 678 545 656 545 q 728 537 711 545 q 745 500 745 530 q 740 285 745 398 q 735 170 735 172 q 739 167 735 167 q 763 163 757 167 q 776 104 776 154 q 737 75 776 75 q 730 65 731 75 q 729 45 730 56 q 719 10 727 20 q 692 0 710 0 m 608 169 q 610 170 610 169 q 606 286 608 286 q 594 252 605 286 q 577 196 583 218 q 572 172 572 174 q 574 169 572 169 l 608 169 z "},"½":{"ha":840,"x_min":68,"x_max":772,"o":"m 248 456 q 173 473 183 456 q 168 492 168 481 q 163 821 164 821 q 152 807 163 821 q 130 793 141 793 q 94 810 115 793 q 68 848 68 832 q 175 987 68 867 q 234 1001 187 1001 q 284 993 267 1001 q 300 956 300 985 q 298 827 300 928 q 292 630 295 727 q 286 501 288 533 q 275 466 283 476 q 248 456 267 456 m 231 0 q 192 5 205 0 q 179 28 179 11 q 184 54 179 38 q 487 965 482 948 q 508 991 492 982 q 573 1001 524 1001 q 595 981 595 1001 q 592 956 595 970 q 305 43 575 892 q 291 17 300 27 q 231 0 275 0 m 545 0 q 491 10 509 0 q 474 54 474 20 l 475 144 q 529 260 475 231 q 576 279 552 273 q 621 299 608 290 q 644 346 644 315 q 605 458 644 458 q 588 446 593 458 q 584 415 584 434 q 588 368 585 381 q 591 351 591 355 q 581 327 591 336 q 536 318 570 318 q 494 322 513 318 q 463 413 463 328 q 484 498 463 469 q 618 545 516 545 q 739 504 704 545 q 769 414 764 473 q 772 319 772 372 q 758 258 772 281 q 677 195 736 222 q 629 168 649 183 q 610 124 610 152 q 611 107 610 109 q 619 105 613 105 q 700 104 668 104 q 746 102 727 102 q 770 81 764 102 q 772 41 772 68 q 739 9 772 12 q 545 0 643 0 z "},"¾":{"ha":943,"x_min":68,"x_max":876,"o":"m 213 456 q 115 471 145 456 q 68 570 68 493 q 74 605 68 595 q 115 623 83 623 q 173 616 157 623 q 189 586 189 609 q 193 558 189 568 q 213 548 197 548 q 237 606 237 548 q 232 637 237 628 q 211 647 227 647 q 184 654 191 647 q 176 675 176 661 q 189 734 176 726 q 204 737 195 737 q 245 760 235 737 q 252 812 252 775 l 252 827 q 239 900 252 878 q 210 914 230 914 q 189 871 189 914 q 193 824 189 837 q 197 807 197 812 q 186 783 197 793 q 142 774 176 774 q 100 778 119 774 q 68 869 68 785 q 102 968 68 939 q 224 1001 138 1001 q 324 979 290 1001 q 366 928 353 960 q 381 817 381 888 q 347 705 381 747 q 345 698 345 702 q 347 689 345 694 q 365 570 365 656 q 213 456 365 456 m 293 0 q 255 5 268 0 q 241 28 241 11 q 247 54 241 38 q 549 965 545 948 q 570 991 554 982 q 635 1001 586 1001 q 658 981 658 1001 q 654 956 658 970 q 368 43 637 892 q 353 17 362 27 q 293 0 337 0 m 791 0 q 716 17 726 0 q 711 37 711 25 q 710 68 711 68 q 664 66 707 68 q 578 64 620 64 q 526 116 526 64 q 534 151 526 132 q 712 523 654 412 q 738 542 720 539 q 778 545 756 545 q 828 537 811 545 q 844 500 844 530 q 840 285 844 398 q 835 170 835 172 q 838 167 835 167 q 863 163 857 167 q 876 104 876 154 q 837 75 876 75 q 830 65 831 75 q 829 45 829 56 q 818 10 827 20 q 791 0 810 0 m 708 169 q 709 170 709 169 q 705 286 708 286 q 694 252 705 286 q 677 196 683 218 q 671 172 671 174 q 674 169 671 169 l 708 169 z "},"¿":{"ha":612,"x_min":34,"x_max":578,"o":"m 353 720 q 456 698 429 720 q 484 621 484 676 q 392 374 484 428 q 345 351 368 359 q 306 332 323 342 q 267 254 267 309 q 272 197 267 215 q 286 174 276 179 q 313 169 296 169 q 350 187 342 169 q 357 239 357 205 q 360 267 357 254 q 385 292 364 284 q 493 305 414 305 q 562 282 543 305 q 578 210 578 262 q 555 89 578 132 q 528 52 543 67 q 492 26 512 36 q 407 4 454 7 q 313 0 359 0 q 216 4 266 0 q 34 210 34 18 q 90 408 34 347 q 141 455 115 435 q 185 494 165 473 q 231 637 231 543 q 260 704 231 686 q 353 720 284 720 m 384 1001 q 433 991 418 1001 q 446 975 441 986 q 456 860 456 952 q 420 812 456 824 q 309 802 387 802 q 258 814 273 802 q 243 838 249 823 q 236 943 236 861 q 264 987 236 976 q 384 1001 296 1001 z "},"À":{"ha":683,"x_min":3,"x_max":674,"o":"m 530 0 q 460 15 486 0 q 425 75 435 31 q 401 212 416 110 q 397 216 401 216 q 367 214 395 216 q 280 208 338 211 q 273 200 275 207 q 254 75 261 107 q 218 16 243 31 q 150 0 193 0 q 31 18 66 0 q 3 72 3 31 q 21 187 3 90 q 207 977 156 939 q 260 997 228 992 q 334 1001 292 1001 q 458 983 423 1001 q 667 133 526 948 q 674 74 674 92 q 647 19 674 34 q 530 0 612 0 m 370 393 q 376 397 376 393 q 340 633 376 412 q 339 639 340 639 q 337 633 338 639 q 301 398 317 510 q 304 395 301 395 q 370 393 340 395 m 372 1077 q 357 1082 364 1077 l 205 1211 q 195 1227 195 1219 q 213 1257 195 1239 q 244 1275 231 1275 q 264 1264 254 1275 l 399 1130 q 407 1113 407 1122 q 396 1088 407 1099 q 372 1077 385 1077 z "},"Á":{"ha":683,"x_min":3,"x_max":674,"o":"m 530 0 q 460 15 486 0 q 425 75 435 31 q 401 212 416 110 q 397 216 401 216 q 367 214 395 216 q 280 208 338 211 q 273 200 275 207 q 254 75 261 107 q 218 16 243 31 q 150 0 193 0 q 31 18 66 0 q 3 72 3 31 q 21 187 3 90 q 207 977 156 939 q 260 997 228 992 q 334 1001 292 1001 q 458 983 423 1001 q 667 133 526 948 q 674 74 674 92 q 647 19 674 34 q 530 0 612 0 m 370 393 q 376 397 376 393 q 340 633 376 412 q 339 639 340 639 q 337 633 338 639 q 301 398 317 510 q 304 395 301 395 q 370 393 340 395 m 300 1077 q 277 1088 288 1077 q 266 1113 266 1099 q 274 1130 266 1122 l 408 1264 q 429 1275 419 1275 q 459 1257 441 1275 q 477 1227 477 1239 q 468 1211 477 1219 l 315 1082 q 300 1077 309 1077 z "},"Â":{"ha":683,"x_min":3,"x_max":674,"o":"m 530 0 q 460 15 486 0 q 425 75 435 31 q 401 212 416 110 q 397 216 401 216 q 367 214 395 216 q 280 208 338 211 q 273 200 275 207 q 254 75 261 107 q 218 16 243 31 q 150 0 193 0 q 31 18 66 0 q 3 72 3 31 q 21 187 3 90 q 207 977 156 939 q 260 997 228 992 q 334 1001 292 1001 q 458 983 423 1001 q 667 133 526 948 q 674 74 674 92 q 647 19 674 34 q 530 0 612 0 m 370 393 q 376 397 376 393 q 340 633 376 412 q 339 639 340 639 q 337 633 338 639 q 301 398 317 510 q 304 395 301 395 q 370 393 340 395 m 467 1075 q 452 1080 458 1075 q 336 1176 340 1176 q 220 1082 333 1176 q 206 1077 214 1077 q 182 1088 193 1077 q 171 1113 171 1099 q 179 1131 171 1122 l 313 1264 q 336 1275 325 1275 q 359 1263 347 1275 l 493 1128 q 501 1110 501 1120 q 490 1086 501 1097 q 467 1075 479 1075 z "},"Ã":{"ha":683,"x_min":3,"x_max":674,"o":"m 530 0 q 460 15 486 0 q 425 75 435 31 q 401 212 416 110 q 397 216 401 216 q 367 214 395 216 q 280 208 338 211 q 273 200 275 207 q 254 75 261 107 q 218 16 243 31 q 150 0 193 0 q 31 18 66 0 q 3 72 3 31 q 21 187 3 90 q 207 977 156 939 q 260 997 228 992 q 334 1001 292 1001 q 458 983 423 1001 q 667 133 526 948 q 674 74 674 92 q 647 19 674 34 q 530 0 612 0 m 370 393 q 376 397 376 393 q 340 633 376 412 q 339 639 340 639 q 337 633 338 639 q 301 398 317 510 q 304 395 301 395 q 370 393 340 395 m 410 1075 q 321 1097 376 1075 q 255 1120 267 1120 q 218 1088 233 1120 q 200 1077 213 1077 q 180 1082 189 1077 q 172 1098 172 1088 q 181 1133 172 1103 q 212 1183 191 1163 q 263 1203 233 1203 q 346 1181 298 1203 q 418 1158 394 1158 q 454 1190 437 1158 q 474 1202 460 1202 q 501 1180 501 1202 q 493 1139 501 1165 q 468 1094 485 1114 q 410 1075 450 1075 z "},"Ä":{"ha":683,"x_min":3,"x_max":674,"o":"m 530 0 q 460 15 486 0 q 425 75 435 31 q 401 212 416 110 q 397 216 401 216 q 367 214 395 216 q 280 208 338 211 q 273 200 275 207 q 254 75 261 107 q 218 16 243 31 q 150 0 193 0 q 31 18 66 0 q 3 72 3 31 q 21 187 3 90 q 207 977 156 939 q 260 997 228 992 q 334 1001 292 1001 q 458 983 423 1001 q 667 133 526 948 q 674 74 674 92 q 647 19 674 34 q 530 0 612 0 m 370 393 q 376 397 376 393 q 340 633 376 412 q 339 639 340 639 q 337 633 338 639 q 301 398 317 510 q 304 395 301 395 q 370 393 340 395 m 250 1073 l 221 1073 q 191 1086 198 1074 q 184 1122 184 1098 q 190 1157 184 1145 q 215 1168 195 1168 q 255 1168 235 1168 q 281 1157 275 1168 q 287 1122 287 1147 q 280 1085 287 1097 q 250 1073 273 1073 m 452 1073 l 423 1073 q 393 1086 400 1074 q 386 1122 386 1098 q 392 1157 386 1145 q 417 1168 397 1168 q 457 1168 437 1168 q 483 1157 477 1168 q 489 1122 489 1147 q 482 1085 489 1097 q 452 1073 475 1073 z "},"Å":{"ha":683,"x_min":3,"x_max":674,"o":"m 530 0 q 460 15 486 0 q 425 75 435 31 q 401 212 416 110 q 397 216 401 216 q 367 214 395 216 q 280 208 338 211 q 273 200 275 207 q 254 75 261 107 q 218 16 243 31 q 150 0 193 0 q 31 18 66 0 q 3 72 3 31 q 21 187 3 90 q 207 977 156 939 q 260 997 228 992 q 334 1001 292 1001 q 458 983 423 1001 q 667 133 526 948 q 674 74 674 92 q 647 19 674 34 q 530 0 612 0 m 370 393 q 376 397 376 393 q 340 633 376 412 q 339 639 340 639 q 337 633 338 639 q 301 398 317 510 q 304 395 301 395 q 370 393 340 395 m 336 1031 q 250 1067 285 1031 q 214 1154 214 1103 q 250 1240 214 1204 q 336 1275 285 1275 q 424 1239 389 1275 q 459 1152 459 1202 q 424 1066 459 1101 q 336 1031 389 1031 m 336 1069 q 397 1093 372 1069 q 421 1152 421 1118 q 397 1212 421 1187 q 336 1237 372 1237 q 277 1213 301 1237 q 252 1154 252 1189 q 277 1094 252 1119 q 336 1069 301 1069 z "},"Æ":{"ha":935,"x_min":3,"x_max":906,"o":"m 490 0 q 411 22 439 0 q 384 100 384 45 l 385 202 q 383 211 385 211 q 280 208 308 210 q 273 200 275 207 q 254 75 261 107 q 218 16 243 31 q 150 0 193 0 q 31 18 66 0 q 3 72 3 31 q 21 187 3 90 q 207 977 156 939 q 259 997 228 992 q 486 1001 291 1001 q 679 998 587 1001 q 854 995 767 995 q 881 989 871 995 q 906 881 906 973 q 892 844 906 855 q 624 812 869 825 q 615 802 615 811 q 621 608 615 719 q 627 465 625 536 q 630 451 627 454 q 643 448 633 448 q 774 445 722 448 q 836 443 810 443 q 863 437 852 443 q 887 330 887 422 q 873 292 887 304 q 823 277 859 280 q 641 261 747 269 q 633 255 633 260 l 634 202 q 854 188 634 188 q 882 181 871 188 q 906 74 906 166 q 892 37 906 48 q 842 22 878 25 q 490 0 631 0 m 347 394 l 385 395 q 386 402 386 395 q 372 656 386 505 q 358 808 359 808 q 329 606 357 808 q 301 401 301 404 q 347 394 301 394 z "},"Ç":{"ha":631,"x_min":42,"x_max":589,"o":"m 274 -258 q 251 -246 259 -258 q 243 -219 243 -234 q 251 -191 243 -203 q 274 -179 258 -179 q 339 -160 314 -179 q 365 -121 365 -142 q 350 -92 365 -104 q 301 -79 334 -80 q 268 -52 268 -78 q 273 -25 268 -46 q 278 -2 278 -5 q 273 1 278 1 q 230 3 268 1 q 153 19 192 5 q 42 210 42 59 q 45 389 42 265 q 59 807 52 688 q 112 949 64 905 q 321 1001 168 1001 q 519 958 461 1001 q 583 807 576 915 q 589 691 589 721 q 548 642 589 658 q 473 629 517 629 q 391 642 415 629 q 366 686 366 655 q 355 806 366 771 q 321 842 343 842 q 284 788 294 842 q 275 606 275 735 q 277 366 275 463 q 289 218 279 268 q 321 169 298 169 q 358 206 350 169 q 366 314 366 243 q 368 342 366 330 q 407 372 373 363 q 502 380 438 380 q 559 359 541 380 q 582 299 577 338 q 587 210 587 261 q 550 68 587 117 q 415 4 507 12 q 340 0 377 1 q 337 -10 339 0 q 342 -14 337 -13 q 420 -58 394 -26 q 446 -127 446 -90 q 400 -219 446 -179 q 274 -258 355 -258 z "},"È":{"ha":593,"x_min":42,"x_max":564,"o":"m 149 0 q 70 22 97 0 q 42 100 42 45 q 50 943 42 191 q 68 985 50 972 q 149 1001 93 1001 q 337 998 245 1001 q 513 995 425 995 q 541 988 529 995 q 564 881 564 973 q 550 844 564 855 q 282 812 528 825 q 273 802 273 811 q 279 608 273 719 q 286 465 283 536 q 288 451 286 454 q 301 448 291 448 q 432 445 380 448 q 494 443 468 443 q 521 437 510 443 q 545 330 545 422 q 531 292 545 304 q 481 277 517 280 q 297 261 406 269 q 292 255 292 260 l 292 202 q 513 188 292 188 q 541 181 529 188 q 564 74 564 166 q 550 37 564 48 q 500 22 536 25 q 149 0 290 0 m 339 1077 q 324 1082 331 1077 l 172 1211 q 162 1227 162 1219 q 180 1257 162 1239 q 211 1275 198 1275 q 231 1264 220 1275 l 366 1130 q 374 1113 374 1122 q 363 1088 374 1099 q 339 1077 352 1077 z "},"É":{"ha":593,"x_min":42,"x_max":564,"o":"m 149 0 q 70 22 97 0 q 42 100 42 45 q 50 943 42 191 q 68 985 50 972 q 149 1001 93 1001 q 337 998 245 1001 q 513 995 425 995 q 541 988 529 995 q 564 881 564 973 q 550 844 564 855 q 282 812 528 825 q 273 802 273 811 q 279 608 273 719 q 286 465 283 536 q 288 451 286 454 q 301 448 291 448 q 432 445 380 448 q 494 443 468 443 q 521 437 510 443 q 545 330 545 422 q 531 292 545 304 q 481 277 517 280 q 297 261 406 269 q 292 255 292 260 l 292 202 q 513 188 292 188 q 541 181 529 188 q 564 74 564 166 q 550 37 564 48 q 500 22 536 25 q 149 0 290 0 m 267 1077 q 243 1088 254 1077 q 233 1113 233 1099 q 241 1130 233 1122 l 375 1264 q 395 1275 386 1275 q 426 1257 408 1275 q 444 1227 444 1239 q 435 1211 444 1219 l 282 1082 q 267 1077 275 1077 z "},"Ê":{"ha":593,"x_min":42,"x_max":564,"o":"m 149 0 q 70 22 97 0 q 42 100 42 45 q 50 943 42 191 q 68 985 50 972 q 149 1001 93 1001 q 337 998 245 1001 q 513 995 425 995 q 541 988 529 995 q 564 881 564 973 q 550 844 564 855 q 282 812 528 825 q 273 802 273 811 q 279 608 273 719 q 286 465 283 536 q 288 451 286 454 q 301 448 291 448 q 432 445 380 448 q 494 443 468 443 q 521 437 510 443 q 545 330 545 422 q 531 292 545 304 q 481 277 517 280 q 297 261 406 269 q 292 255 292 260 l 292 202 q 513 188 292 188 q 541 181 529 188 q 564 74 564 166 q 550 37 564 48 q 500 22 536 25 q 149 0 290 0 m 433 1075 q 418 1080 425 1075 q 302 1176 307 1176 q 187 1082 300 1176 q 173 1077 180 1077 q 149 1088 159 1077 q 138 1113 138 1099 q 146 1131 138 1122 l 280 1264 q 303 1275 292 1275 q 326 1263 314 1275 l 460 1128 q 468 1110 468 1120 q 457 1086 468 1097 q 433 1075 446 1075 z "},"Ë":{"ha":593,"x_min":42,"x_max":564,"o":"m 149 0 q 70 22 97 0 q 42 100 42 45 q 50 943 42 191 q 68 985 50 972 q 149 1001 93 1001 q 337 998 245 1001 q 513 995 425 995 q 541 988 529 995 q 564 881 564 973 q 550 844 564 855 q 282 812 528 825 q 273 802 273 811 q 279 608 273 719 q 286 465 283 536 q 288 451 286 454 q 301 448 291 448 q 432 445 380 448 q 494 443 468 443 q 521 437 510 443 q 545 330 545 422 q 531 292 545 304 q 481 277 517 280 q 297 261 406 269 q 292 255 292 260 l 292 202 q 513 188 292 188 q 541 181 529 188 q 564 74 564 166 q 550 37 564 48 q 500 22 536 25 q 149 0 290 0 m 216 1073 l 188 1073 q 158 1086 165 1074 q 151 1122 151 1098 q 156 1157 151 1145 q 182 1168 162 1168 q 222 1168 202 1168 q 248 1157 241 1168 q 254 1122 254 1147 q 247 1085 254 1097 q 216 1073 239 1073 m 418 1073 l 390 1073 q 360 1086 367 1074 q 353 1122 353 1098 q 358 1157 353 1145 q 384 1168 364 1168 q 424 1168 404 1168 q 450 1157 444 1168 q 456 1122 456 1147 q 449 1085 456 1097 q 418 1073 441 1073 z "},"Ì":{"ha":368,"x_min":42,"x_max":309,"o":"m 186 0 q 83 22 109 0 q 57 98 57 45 q 62 682 57 231 q 64 935 64 891 q 74 970 64 956 q 213 1001 93 1001 q 261 982 246 1001 q 281 918 277 964 q 293 681 286 859 q 304 319 299 503 q 309 82 309 135 q 276 12 309 29 q 186 0 251 0 m 219 1077 q 204 1082 211 1077 l 52 1211 q 42 1227 42 1219 q 60 1257 42 1239 q 91 1275 78 1275 q 111 1264 100 1275 l 246 1130 q 254 1113 254 1122 q 243 1088 254 1099 q 219 1077 232 1077 z "},"Í":{"ha":351,"x_min":42,"x_max":309,"o":"m 172 0 q 68 22 94 0 q 42 98 42 45 q 47 682 42 231 q 50 935 50 891 q 59 970 50 956 q 198 1001 78 1001 q 247 982 231 1001 q 267 918 262 964 q 278 681 271 859 q 289 319 284 503 q 294 82 294 135 q 261 12 294 29 q 172 0 236 0 m 132 1077 q 109 1088 119 1077 q 98 1113 98 1099 q 106 1130 98 1122 l 240 1264 q 260 1275 251 1275 q 291 1257 273 1275 q 309 1227 309 1239 q 300 1211 309 1219 l 147 1082 q 132 1077 140 1077 z "},"Î":{"ha":368,"x_min":16,"x_max":347,"o":"m 185 0 q 82 22 108 0 q 56 98 56 45 q 60 682 56 231 q 63 935 63 891 q 73 970 63 956 q 212 1001 92 1001 q 260 982 245 1001 q 280 918 275 964 q 291 681 285 859 q 303 319 298 503 q 308 82 308 135 q 275 12 308 29 q 185 0 250 0 m 312 1075 q 297 1080 304 1075 q 181 1176 185 1176 q 66 1082 178 1176 q 52 1077 59 1077 q 27 1088 38 1077 q 16 1113 16 1099 q 24 1131 16 1122 l 159 1264 q 182 1275 170 1275 q 204 1263 193 1275 l 338 1128 q 347 1110 347 1120 q 336 1086 347 1097 q 312 1075 325 1075 z "},"Ï":{"ha":406,"x_min":42,"x_max":347,"o":"m 198 0 q 95 22 121 0 q 68 98 68 45 q 73 682 68 231 q 76 935 76 891 q 85 970 76 956 q 224 1001 104 1001 q 273 982 258 1001 q 293 918 288 964 q 304 681 298 859 q 316 319 311 503 q 321 82 321 135 q 288 12 321 29 q 198 0 262 0 m 108 1073 l 79 1073 q 49 1086 56 1074 q 42 1122 42 1098 q 48 1157 42 1145 q 73 1168 54 1168 q 113 1168 94 1168 q 139 1157 133 1168 q 145 1122 145 1147 q 138 1085 145 1097 q 108 1073 131 1073 m 310 1073 l 281 1073 q 251 1086 258 1074 q 244 1122 244 1098 q 250 1157 244 1145 q 275 1168 256 1168 q 315 1168 296 1168 q 341 1157 335 1168 q 347 1122 347 1147 q 340 1085 347 1097 q 310 1073 333 1073 z "},"Ð":{"ha":703,"x_min":16,"x_max":644,"o":"m 354 168 q 402 187 393 168 q 411 278 411 206 l 411 717 q 405 805 411 779 q 387 836 399 831 q 358 842 374 842 l 305 842 q 294 829 294 842 q 300 553 294 718 q 320 541 301 541 q 353 513 353 539 q 341 456 353 464 q 327 452 335 452 q 305 449 305 452 q 311 267 305 353 q 315 174 314 215 q 319 168 315 168 l 354 168 m 391 0 l 194 0 q 92 21 119 0 q 64 99 64 42 l 66 441 q 60 449 66 449 q 23 463 30 450 q 16 502 16 475 q 22 539 16 526 q 50 551 27 551 q 67 552 67 551 l 71 943 q 132 999 71 994 q 385 1001 156 1001 q 541 972 490 1001 q 612 892 592 944 q 643 583 642 811 l 644 210 q 562 45 644 98 q 391 0 493 0 z "},"Ñ":{"ha":751,"x_min":42,"x_max":692,"o":"m 570 0 q 491 9 514 0 q 450 51 461 20 q 283 520 286 520 q 277 333 281 520 q 267 83 273 145 q 247 18 262 37 q 199 0 232 0 q 60 30 78 0 q 50 66 50 45 q 44 644 50 139 q 42 903 42 811 q 80 987 42 966 q 179 1001 107 1001 q 248 994 223 1001 q 290 949 277 987 l 432 555 q 439 545 436 545 q 444 561 444 545 q 457 970 444 950 q 595 1001 475 1001 q 644 982 629 1001 q 664 918 660 964 q 676 681 669 859 q 687 319 682 503 q 692 82 692 135 q 660 13 692 30 q 570 0 635 0 m 441 1075 q 353 1097 407 1075 q 286 1120 298 1120 q 249 1088 264 1120 q 231 1077 244 1077 q 211 1082 220 1077 q 203 1098 203 1088 q 213 1133 203 1103 q 243 1183 222 1163 q 294 1203 264 1203 q 377 1181 329 1203 q 449 1158 425 1158 q 486 1190 469 1158 q 505 1202 492 1202 q 532 1180 532 1202 q 524 1139 532 1165 q 499 1094 516 1114 q 441 1075 481 1075 z "},"Ò":{"ha":659,"x_min":42,"x_max":600,"o":"m 321 0 q 225 4 274 0 q 42 210 42 18 q 45 389 42 265 q 60 807 52 688 q 118 954 65 910 q 321 1001 174 1001 q 468 983 412 1001 q 541 937 514 969 q 583 807 578 894 q 590 631 586 751 q 600 210 600 332 q 574 89 600 132 q 545 52 562 67 q 507 26 528 36 q 417 4 466 7 q 321 0 368 0 m 321 169 q 354 218 344 169 q 366 366 363 268 q 368 606 368 463 q 358 788 368 735 q 321 842 348 842 q 284 788 294 842 q 275 606 275 735 q 277 366 275 463 q 289 218 279 268 q 321 169 298 169 m 358 1077 q 343 1082 350 1077 l 191 1211 q 181 1227 181 1219 q 199 1257 181 1239 q 230 1275 217 1275 q 250 1264 239 1275 l 385 1130 q 393 1113 393 1122 q 382 1088 393 1099 q 358 1077 371 1077 z "},"Ó":{"ha":659,"x_min":42,"x_max":600,"o":"m 321 0 q 225 4 274 0 q 42 210 42 18 q 45 389 42 265 q 60 807 52 688 q 118 954 65 910 q 321 1001 174 1001 q 468 983 412 1001 q 541 937 514 969 q 583 807 578 894 q 590 631 586 751 q 600 210 600 332 q 574 89 600 132 q 545 52 562 67 q 507 26 528 36 q 417 4 466 7 q 321 0 368 0 m 321 169 q 354 218 344 169 q 366 366 363 268 q 368 606 368 463 q 358 788 368 735 q 321 842 348 842 q 284 788 294 842 q 275 606 275 735 q 277 366 275 463 q 289 218 279 268 q 321 169 298 169 m 286 1077 q 262 1088 273 1077 q 252 1113 252 1099 q 260 1130 252 1122 l 394 1264 q 414 1275 405 1275 q 445 1257 427 1275 q 463 1227 463 1239 q 454 1211 463 1219 l 301 1082 q 286 1077 294 1077 z "},"Ô":{"ha":659,"x_min":42,"x_max":600,"o":"m 321 0 q 225 4 274 0 q 42 210 42 18 q 45 389 42 265 q 60 807 52 688 q 118 954 65 910 q 321 1001 174 1001 q 468 983 412 1001 q 541 937 514 969 q 583 807 578 894 q 590 631 586 751 q 600 210 600 332 q 574 89 600 132 q 545 52 562 67 q 507 26 528 36 q 417 4 466 7 q 321 0 368 0 m 321 169 q 354 218 344 169 q 366 366 363 268 q 368 606 368 463 q 358 788 368 735 q 321 842 348 842 q 284 788 294 842 q 275 606 275 735 q 277 366 275 463 q 289 218 279 268 q 321 169 298 169 m 452 1075 q 437 1080 444 1075 q 321 1176 326 1176 q 206 1082 319 1176 q 192 1077 199 1077 q 168 1088 178 1077 q 157 1113 157 1099 q 165 1131 157 1122 l 299 1264 q 322 1275 311 1275 q 345 1263 333 1275 l 479 1128 q 487 1110 487 1120 q 476 1086 487 1097 q 452 1075 465 1075 z "},"Õ":{"ha":659,"x_min":42,"x_max":600,"o":"m 321 0 q 225 4 274 0 q 42 210 42 18 q 45 389 42 265 q 60 807 52 688 q 118 954 65 910 q 321 1001 174 1001 q 468 983 412 1001 q 541 937 514 969 q 583 807 578 894 q 590 631 586 751 q 600 210 600 332 q 574 89 600 132 q 545 52 562 67 q 507 26 528 36 q 417 4 466 7 q 321 0 368 0 m 321 169 q 354 218 344 169 q 366 366 363 268 q 368 606 368 463 q 358 788 368 735 q 321 842 348 842 q 284 788 294 842 q 275 606 275 735 q 277 366 275 463 q 289 218 279 268 q 321 169 298 169 m 395 1075 q 307 1097 361 1075 q 241 1120 253 1120 q 203 1088 218 1120 q 186 1077 199 1077 q 166 1082 174 1077 q 157 1098 157 1088 q 167 1133 157 1103 q 198 1183 177 1163 q 249 1203 219 1203 q 332 1181 283 1203 q 404 1158 380 1158 q 440 1190 423 1158 q 460 1202 446 1202 q 487 1180 487 1202 q 479 1139 487 1165 q 453 1094 471 1114 q 395 1075 436 1075 z "},"Ö":{"ha":659,"x_min":42,"x_max":600,"o":"m 321 0 q 225 4 274 0 q 42 210 42 18 q 45 389 42 265 q 60 807 52 688 q 118 954 65 910 q 321 1001 174 1001 q 468 983 412 1001 q 541 937 514 969 q 583 807 578 894 q 590 631 586 751 q 600 210 600 332 q 574 89 600 132 q 545 52 562 67 q 507 26 528 36 q 417 4 466 7 q 321 0 368 0 m 321 169 q 354 218 344 169 q 366 366 363 268 q 368 606 368 463 q 358 788 368 735 q 321 842 348 842 q 284 788 294 842 q 275 606 275 735 q 277 366 275 463 q 289 218 279 268 q 321 169 298 169 m 235 1073 l 207 1073 q 177 1086 184 1074 q 170 1122 170 1098 q 175 1157 170 1145 q 201 1168 181 1168 q 241 1168 221 1168 q 267 1157 260 1168 q 273 1122 273 1147 q 266 1085 273 1097 q 235 1073 258 1073 m 437 1073 l 409 1073 q 379 1086 386 1074 q 372 1122 372 1098 q 377 1157 372 1145 q 403 1168 383 1168 q 443 1168 423 1168 q 469 1157 463 1168 q 475 1122 475 1147 q 468 1085 475 1097 q 437 1073 460 1073 z "},"×":{"ha":518,"x_min":34,"x_max":484,"o":"m 370 267 q 328 289 350 267 q 257 365 302 315 q 254 367 256 367 q 167 285 249 367 q 138 270 152 270 q 50 329 111 270 q 34 362 34 345 q 66 425 34 385 q 130 494 90 454 q 132 500 132 496 q 129 507 132 503 q 58 590 82 561 q 34 640 34 618 q 50 672 34 656 q 138 731 111 731 q 168 718 155 731 q 253 635 249 635 q 303 685 257 635 q 328 712 317 701 q 370 734 351 734 q 441 691 399 734 q 484 616 484 649 q 456 566 484 593 q 394 500 394 505 q 397 494 394 496 q 456 436 428 464 q 484 384 484 408 q 441 309 484 353 q 370 267 400 268 z "},"Ø":{"ha":659,"x_min":42,"x_max":600,"o":"m 321 169 q 354 218 344 169 q 366 366 363 268 q 368 606 368 463 q 366 628 368 628 q 359 595 363 628 q 307 195 307 214 q 321 169 307 169 m 279 391 q 287 427 282 391 q 338 808 338 798 q 321 842 338 842 q 284 788 294 842 q 275 606 275 735 q 279 391 275 391 m 241 -102 q 223 -99 229 -102 q 217 -85 217 -96 q 221 -55 217 -82 q 225 -22 225 -27 q 208 6 225 4 q 42 210 42 27 q 45 389 42 265 q 59 807 52 688 q 118 954 65 910 q 321 1001 174 1001 q 370 1031 366 1001 l 376 1075 q 383 1086 377 1082 q 410 1090 389 1090 q 422 1077 422 1090 q 418 1051 422 1073 q 415 1021 415 1029 q 448 989 415 997 q 541 937 511 973 q 583 807 578 894 q 590 631 586 751 q 600 210 600 332 q 574 88 600 132 q 507 26 549 45 q 417 4 466 7 q 309 1 375 1 q 279 -10 280 1 l 269 -83 q 261 -98 268 -95 q 241 -102 254 -102 z "},"Ù":{"ha":659,"x_min":42,"x_max":600,"o":"m 321 0 q 224 4 273 0 q 68 89 113 12 q 42 210 42 132 l 42 292 q 82 987 42 949 q 130 1001 97 1001 q 249 990 219 1001 q 279 943 279 979 q 276 690 279 841 q 274 458 274 547 q 276 286 274 339 q 296 178 279 193 q 321 169 304 169 q 351 192 341 169 q 363 258 359 211 q 367 463 367 316 q 366 709 367 568 q 364 943 364 844 q 385 986 364 975 q 513 1001 413 1001 q 561 987 546 1001 q 581 926 576 972 q 597 620 594 779 q 600 331 600 460 l 600 210 q 417 4 600 18 q 321 0 368 0 m 357 1077 q 342 1082 349 1077 l 189 1211 q 180 1227 180 1219 q 198 1257 180 1239 q 229 1275 216 1275 q 249 1264 238 1275 l 384 1130 q 391 1113 391 1122 q 380 1088 391 1099 q 357 1077 370 1077 z "},"Ú":{"ha":659,"x_min":42,"x_max":600,"o":"m 321 0 q 224 4 273 0 q 68 89 113 12 q 42 210 42 132 l 42 292 q 82 987 42 949 q 130 1001 97 1001 q 249 990 219 1001 q 279 943 279 979 q 276 690 279 841 q 274 458 274 547 q 276 286 274 339 q 296 178 279 193 q 321 169 304 169 q 351 192 341 169 q 363 258 359 211 q 367 463 367 316 q 366 709 367 568 q 364 943 364 844 q 385 986 364 975 q 513 1001 413 1001 q 561 987 546 1001 q 581 926 576 972 q 597 620 594 779 q 600 331 600 460 l 600 210 q 417 4 600 18 q 321 0 368 0 m 285 1077 q 261 1088 272 1077 q 250 1113 250 1099 q 258 1130 250 1122 l 393 1264 q 413 1275 404 1275 q 444 1257 426 1275 q 462 1227 462 1239 q 452 1211 462 1219 l 300 1082 q 285 1077 293 1077 z "},"Û":{"ha":659,"x_min":42,"x_max":600,"o":"m 321 0 q 224 4 273 0 q 68 89 113 12 q 42 210 42 132 l 42 292 q 82 987 42 949 q 130 1001 97 1001 q 249 990 219 1001 q 279 943 279 979 q 276 690 279 841 q 274 458 274 547 q 276 286 274 339 q 296 178 279 193 q 321 169 304 169 q 351 192 341 169 q 363 258 359 211 q 367 463 367 316 q 366 709 367 568 q 364 943 364 844 q 385 986 364 975 q 513 1001 413 1001 q 561 987 546 1001 q 581 926 576 972 q 597 620 594 779 q 600 331 600 460 l 600 210 q 417 4 600 18 q 321 0 368 0 m 451 1075 q 436 1080 443 1075 q 320 1176 324 1176 q 205 1082 317 1176 q 191 1077 198 1077 q 166 1088 177 1077 q 155 1113 155 1099 q 163 1131 155 1122 l 298 1264 q 321 1275 309 1275 q 343 1263 332 1275 l 477 1128 q 486 1110 486 1120 q 475 1086 486 1097 q 451 1075 464 1075 z "},"Ü":{"ha":659,"x_min":42,"x_max":600,"o":"m 321 0 q 224 4 273 0 q 68 89 113 12 q 42 210 42 132 l 42 292 q 82 987 42 949 q 130 1001 97 1001 q 249 990 219 1001 q 279 943 279 979 q 276 690 279 841 q 274 458 274 547 q 276 286 274 339 q 296 178 279 193 q 321 169 304 169 q 351 192 341 169 q 363 258 359 211 q 367 463 367 316 q 366 709 367 568 q 364 943 364 844 q 385 986 364 975 q 513 1001 413 1001 q 561 987 546 1001 q 581 926 576 972 q 597 620 594 779 q 600 331 600 460 l 600 210 q 417 4 600 18 q 321 0 368 0 m 234 1073 l 205 1073 q 175 1086 182 1074 q 168 1122 168 1098 q 174 1157 168 1145 q 199 1168 180 1168 q 239 1168 220 1168 q 265 1157 259 1168 q 271 1122 271 1147 q 264 1085 271 1097 q 234 1073 257 1073 m 436 1073 l 408 1073 q 377 1086 385 1074 q 370 1122 370 1098 q 376 1157 370 1145 q 401 1168 382 1168 q 441 1168 422 1168 q 467 1157 461 1168 q 473 1122 473 1147 q 466 1085 473 1097 q 436 1073 459 1073 z "},"Ý":{"ha":635,"x_min":22,"x_max":604,"o":"m 316 0 q 222 16 250 0 q 187 97 187 35 q 188 227 187 115 q 189 449 189 338 q 181 463 189 460 q 24 670 31 499 q 22 779 22 734 q 50 987 22 961 q 98 1001 64 1001 q 196 995 165 1001 q 237 977 228 989 q 246 943 246 964 q 248 837 246 886 q 249 733 249 788 q 254 682 249 705 q 313 632 264 632 q 355 646 341 632 q 376 733 376 667 q 378 837 376 788 q 379 943 379 886 q 389 977 379 964 q 527 1001 406 1001 q 576 987 561 1001 q 604 779 604 961 q 601 670 604 734 q 442 462 594 499 q 431 448 431 459 q 435 304 431 439 q 439 82 439 170 q 414 18 439 36 q 316 0 390 0 m 277 1077 q 253 1088 264 1077 q 242 1113 242 1099 q 250 1130 242 1122 l 385 1264 q 405 1275 395 1275 q 436 1257 418 1275 q 454 1227 454 1239 q 444 1211 454 1219 l 292 1082 q 277 1077 285 1077 z "},"Þ":{"ha":638,"x_min":42,"x_max":614,"o":"m 198 0 q 73 13 102 0 q 50 57 50 24 q 47 312 50 101 q 42 901 42 767 q 69 979 42 957 q 172 1001 96 1001 q 262 987 237 1001 q 288 958 281 977 q 294 918 294 943 l 293 802 q 355 800 293 800 q 511 772 460 800 q 582 691 562 744 q 614 410 614 603 q 532 245 614 299 q 361 201 463 201 l 283 201 q 273 180 273 201 q 267 74 269 106 q 247 14 262 28 q 198 0 231 0 m 324 369 q 362 376 350 369 q 378 406 374 382 q 382 498 382 429 q 367 615 382 589 q 323 641 352 641 q 288 638 288 641 q 284 545 288 635 q 280 373 280 454 q 283 369 280 369 l 324 369 z "},"ß":{"ha":964,"x_min":57,"x_max":943,"o":"m 659 0 q 486 27 548 0 q 425 70 448 43 q 374 242 374 125 q 389 370 374 290 q 410 402 393 392 q 509 417 436 417 q 591 399 568 417 q 609 356 609 386 q 602 307 609 348 q 595 238 595 267 q 634 159 595 159 q 668 175 652 159 q 695 236 685 191 q 706 366 706 280 q 691 440 706 423 q 635 457 675 457 l 541 457 q 407 538 436 457 q 389 632 393 577 q 385 772 386 686 q 330 832 383 832 q 301 802 309 832 q 292 656 292 765 q 298 462 292 580 q 309 83 309 216 q 284 18 309 36 q 186 0 260 0 q 97 14 125 0 q 57 100 57 34 q 58 446 57 275 q 59 791 59 618 q 150 966 59 920 q 360 1001 218 1001 q 559 960 503 1001 q 623 777 623 911 q 621 743 623 758 q 620 700 620 725 q 640 656 620 669 q 673 642 652 647 q 796 635 707 635 q 877 614 844 635 q 943 414 943 570 q 937 241 943 318 q 845 44 924 98 q 659 0 781 0 z "},"à":{"ha":661,"x_min":37,"x_max":603,"o":"m 344 159 q 351 164 351 159 l 351 281 q 353 427 353 349 q 349 429 353 429 l 327 429 q 289 422 301 429 q 276 405 280 418 q 269 320 269 385 q 277 214 269 251 q 328 159 290 159 l 344 159 m 492 0 l 296 1 q 141 33 193 2 q 90 77 110 51 q 44 252 54 127 q 37 388 37 342 q 120 554 37 500 q 290 598 188 598 q 355 599 354 598 q 356 663 356 600 q 345 802 356 764 q 313 832 335 832 q 273 781 281 832 q 268 707 268 752 q 265 659 268 671 q 210 625 260 633 q 132 621 182 621 q 75 642 93 621 q 57 675 63 654 q 47 791 47 708 q 71 913 47 869 q 219 998 113 989 q 313 1001 266 1001 q 409 997 360 1001 q 499 975 458 994 q 592 791 591 932 l 593 464 q 600 195 593 387 q 603 82 603 111 q 574 16 603 35 q 492 0 551 0 m 351 1077 q 336 1082 342 1077 l 183 1211 q 174 1227 174 1219 q 192 1257 174 1239 q 222 1275 210 1275 q 243 1264 232 1275 l 378 1130 q 385 1113 385 1122 q 374 1088 385 1099 q 351 1077 363 1077 z "},"á":{"ha":661,"x_min":37,"x_max":603,"o":"m 344 159 q 351 164 351 159 l 351 281 q 353 427 353 349 q 349 429 353 429 l 327 429 q 289 422 301 429 q 276 405 280 418 q 269 320 269 385 q 277 214 269 251 q 328 159 290 159 l 344 159 m 492 0 l 296 1 q 141 33 193 2 q 90 77 110 51 q 44 252 54 127 q 37 388 37 342 q 120 554 37 500 q 290 598 188 598 q 355 599 354 598 q 356 663 356 600 q 345 802 356 764 q 313 832 335 832 q 273 781 281 832 q 268 707 268 752 q 265 659 268 671 q 210 625 260 633 q 132 621 182 621 q 75 642 93 621 q 57 675 63 654 q 47 791 47 708 q 71 913 47 869 q 219 998 113 989 q 313 1001 266 1001 q 409 997 360 1001 q 499 975 458 994 q 592 791 591 932 l 593 464 q 600 195 593 387 q 603 82 603 111 q 574 16 603 35 q 492 0 551 0 m 279 1077 q 255 1088 266 1077 q 244 1113 244 1099 q 252 1130 244 1122 l 387 1264 q 407 1275 397 1275 q 438 1257 420 1275 q 456 1227 456 1239 q 446 1211 456 1219 l 294 1082 q 279 1077 287 1077 z "},"â":{"ha":661,"x_min":37,"x_max":603,"o":"m 344 159 q 351 164 351 159 l 351 281 q 353 427 353 349 q 349 429 353 429 l 327 429 q 289 422 301 429 q 276 405 280 418 q 269 320 269 385 q 277 214 269 251 q 328 159 290 159 l 344 159 m 492 0 l 296 1 q 141 33 193 2 q 90 77 110 51 q 44 252 54 127 q 37 388 37 342 q 120 554 37 500 q 290 598 188 598 q 355 599 354 598 q 356 663 356 600 q 345 802 356 764 q 313 832 335 832 q 273 781 281 832 q 268 707 268 752 q 265 659 268 671 q 210 625 260 633 q 132 621 182 621 q 75 642 93 621 q 57 675 63 654 q 47 791 47 708 q 71 913 47 869 q 219 998 113 989 q 313 1001 266 1001 q 409 997 360 1001 q 499 975 458 994 q 592 791 591 932 l 593 464 q 600 195 593 387 q 603 82 603 111 q 574 16 603 35 q 492 0 551 0 m 445 1075 q 430 1080 437 1075 q 314 1176 318 1176 q 199 1082 311 1176 q 184 1077 192 1077 q 160 1088 171 1077 q 149 1113 149 1099 q 157 1131 149 1122 l 292 1264 q 315 1275 303 1275 q 337 1263 326 1275 l 471 1128 q 479 1110 479 1120 q 469 1086 479 1097 q 445 1075 458 1075 z "},"ã":{"ha":661,"x_min":37,"x_max":603,"o":"m 344 159 q 351 164 351 159 l 351 281 q 353 427 353 349 q 349 429 353 429 l 327 429 q 289 422 301 429 q 276 405 280 418 q 269 320 269 385 q 277 214 269 251 q 328 159 290 159 l 344 159 m 492 0 l 296 1 q 141 33 193 2 q 90 77 110 51 q 44 252 54 127 q 37 388 37 342 q 120 554 37 500 q 290 598 188 598 q 355 599 354 598 q 356 663 356 600 q 345 802 356 764 q 313 832 335 832 q 273 781 281 832 q 268 707 268 752 q 265 659 268 671 q 210 625 260 633 q 132 621 182 621 q 75 642 93 621 q 57 675 63 654 q 47 791 47 708 q 71 913 47 869 q 219 998 113 989 q 313 1001 266 1001 q 409 997 360 1001 q 499 975 458 994 q 592 791 591 932 l 593 464 q 600 195 593 387 q 603 82 603 111 q 574 16 603 35 q 492 0 551 0 m 388 1075 q 300 1097 354 1075 q 233 1120 245 1120 q 196 1088 211 1120 q 178 1077 191 1077 q 158 1082 167 1077 q 150 1098 150 1088 q 160 1133 150 1103 q 191 1183 170 1163 q 241 1203 212 1203 q 324 1181 276 1203 q 396 1158 372 1158 q 433 1190 416 1158 q 452 1202 439 1202 q 479 1180 479 1202 q 471 1139 479 1165 q 446 1094 463 1114 q 388 1075 429 1075 z "},"ä":{"ha":661,"x_min":37,"x_max":603,"o":"m 344 159 q 351 164 351 159 l 351 281 q 353 427 353 349 q 349 429 353 429 l 327 429 q 289 422 301 429 q 276 405 280 418 q 269 320 269 385 q 277 214 269 251 q 328 159 290 159 l 344 159 m 492 0 l 296 1 q 141 33 193 2 q 90 77 110 51 q 44 252 54 127 q 37 388 37 342 q 120 554 37 500 q 290 598 188 598 q 355 599 354 598 q 356 663 356 600 q 345 802 356 764 q 313 832 335 832 q 273 781 281 832 q 268 707 268 752 q 265 659 268 671 q 210 625 260 633 q 132 621 182 621 q 75 642 93 621 q 57 675 63 654 q 47 791 47 708 q 71 913 47 869 q 219 998 113 989 q 313 1001 266 1001 q 409 997 360 1001 q 499 975 458 994 q 592 791 591 932 l 593 464 q 600 195 593 387 q 603 82 603 111 q 574 16 603 35 q 492 0 551 0 m 228 1073 l 199 1073 q 169 1086 176 1074 q 162 1122 162 1098 q 168 1157 162 1145 q 193 1168 174 1168 q 233 1168 214 1168 q 259 1157 253 1168 q 265 1122 265 1147 q 258 1085 265 1097 q 228 1073 251 1073 m 430 1073 l 401 1073 q 371 1086 378 1074 q 364 1122 364 1098 q 370 1157 364 1145 q 395 1168 376 1168 q 435 1168 416 1168 q 461 1157 455 1168 q 467 1122 467 1147 q 460 1085 467 1097 q 430 1073 453 1073 z "},"å":{"ha":661,"x_min":37,"x_max":603,"o":"m 344 159 q 351 164 351 159 l 351 281 q 353 427 353 349 q 349 429 353 429 l 327 429 q 289 422 301 429 q 276 405 280 418 q 269 320 269 385 q 277 214 269 251 q 328 159 290 159 l 344 159 m 492 0 l 296 1 q 141 33 193 2 q 90 77 110 51 q 44 252 54 127 q 37 388 37 342 q 120 554 37 500 q 290 598 188 598 q 355 599 354 598 q 356 663 356 600 q 345 802 356 764 q 313 832 335 832 q 273 781 281 832 q 268 707 268 752 q 265 659 268 671 q 210 625 260 633 q 132 621 182 621 q 75 642 93 621 q 57 675 63 654 q 47 791 47 708 q 71 913 47 869 q 219 998 113 989 q 313 1001 266 1001 q 409 997 360 1001 q 499 975 458 994 q 592 791 591 932 l 593 464 q 600 195 593 387 q 603 82 603 111 q 574 16 603 35 q 492 0 551 0 m 315 1031 q 228 1067 263 1031 q 193 1154 193 1103 q 228 1240 193 1204 q 315 1275 263 1275 q 402 1239 367 1275 q 437 1152 437 1202 q 402 1066 437 1101 q 315 1031 367 1031 m 315 1069 q 375 1093 351 1069 q 399 1152 399 1118 q 375 1212 399 1187 q 315 1237 351 1237 q 255 1213 279 1237 q 231 1154 231 1189 q 255 1094 231 1119 q 315 1069 279 1069 z "},"æ":{"ha":971,"x_min":57,"x_max":913,"o":"m 646 0 q 498 18 553 0 q 488 20 494 20 q 481 18 485 20 q 324 0 426 0 q 163 33 221 0 q 94 109 119 57 q 58 363 58 187 q 61 473 58 445 q 87 533 65 511 q 164 555 110 555 l 353 555 q 370 564 370 555 l 370 597 q 368 731 370 677 q 324 842 363 842 q 279 686 279 842 q 239 636 279 648 q 172 629 216 629 q 89 645 121 629 q 57 691 57 662 q 62 806 57 731 q 122 956 68 912 q 324 1001 179 1001 q 460 987 407 1001 q 484 983 474 983 q 502 986 491 983 q 646 1001 557 1001 q 807 969 749 1001 q 859 920 838 951 q 913 637 912 844 l 913 587 q 909 527 913 555 q 882 468 905 490 q 806 446 860 446 l 617 446 q 600 437 600 446 l 600 404 q 602 269 600 324 q 616 185 606 211 q 646 159 627 159 q 691 315 691 159 q 731 365 691 353 q 798 372 754 372 q 871 360 841 372 q 913 310 913 344 q 908 195 913 270 q 838 39 901 81 q 646 0 781 0 m 308 169 q 359 231 345 169 q 369 362 369 276 q 366 365 369 365 q 303 366 338 365 q 263 368 268 368 q 258 362 258 368 q 259 296 258 359 q 267 201 259 233 q 308 169 275 169 m 705 633 q 711 636 711 633 q 711 703 711 638 q 703 800 711 767 q 662 832 694 832 q 615 787 630 832 q 601 639 601 743 q 604 636 601 636 q 666 635 631 636 q 705 633 701 633 z "},"ç":{"ha":643,"x_min":57,"x_max":604,"o":"m 300 -258 q 277 -246 285 -258 q 269 -219 269 -234 q 276 -191 269 -203 q 300 -179 284 -179 q 365 -160 340 -179 q 391 -121 391 -142 q 375 -92 391 -104 q 327 -79 360 -80 q 294 -52 294 -78 q 299 -25 294 -48 q 304 -1 304 -2 q 299 1 304 1 q 133 47 186 4 q 74 194 79 91 q 67 370 71 250 q 60 613 63 490 q 57 791 57 736 q 240 998 57 983 q 336 1001 289 1001 q 430 998 382 1001 q 576 916 534 989 q 602 791 602 872 q 581 651 602 686 q 517 621 562 621 q 399 638 424 621 q 384 659 386 646 q 381 687 381 671 q 373 795 381 758 q 336 832 365 832 q 303 783 313 832 q 292 642 294 734 q 290 394 290 550 q 299 213 290 266 q 336 159 309 159 q 370 195 358 159 q 381 315 381 230 q 411 361 381 349 q 489 372 436 372 q 561 360 530 372 q 604 310 604 344 q 598 194 604 279 q 538 46 592 90 q 368 1 485 3 q 364 -5 365 1 q 363 -12 363 -10 q 367 -14 363 -13 q 445 -57 418 -24 q 471 -130 471 -89 q 426 -219 471 -180 q 300 -258 381 -258 z "},"è":{"ha":661,"x_min":57,"x_max":603,"o":"m 336 0 q 189 18 245 0 q 123 56 149 30 q 74 194 79 100 q 67 370 71 250 q 57 791 57 686 q 240 996 57 975 q 336 1001 289 1001 q 497 969 439 1001 q 572 876 548 941 q 602 637 602 797 l 602 589 q 599 527 602 556 q 572 468 595 490 q 495 446 550 446 q 290 445 292 446 q 289 394 289 444 q 299 213 289 266 q 336 159 309 159 q 381 315 381 159 q 421 366 381 353 q 488 372 444 372 q 575 353 543 372 q 603 310 603 338 q 598 195 603 270 q 528 39 591 81 q 336 0 470 0 m 388 634 q 401 647 401 634 q 392 799 401 766 q 352 832 384 832 q 306 787 319 832 q 292 648 292 743 q 307 635 292 636 l 388 634 m 359 1077 q 345 1082 351 1077 l 192 1211 q 182 1227 182 1219 q 200 1257 182 1239 q 231 1275 218 1275 q 252 1264 241 1275 l 387 1130 q 394 1113 394 1122 q 383 1088 394 1099 q 359 1077 372 1077 z "},"é":{"ha":661,"x_min":57,"x_max":603,"o":"m 336 0 q 189 18 245 0 q 123 56 149 30 q 74 194 79 100 q 67 370 71 250 q 57 791 57 686 q 240 996 57 975 q 336 1001 289 1001 q 497 969 439 1001 q 572 876 548 941 q 602 637 602 797 l 602 589 q 599 527 602 556 q 572 468 595 490 q 495 446 550 446 q 290 445 292 446 q 289 394 289 444 q 299 213 289 266 q 336 159 309 159 q 381 315 381 159 q 421 366 381 353 q 488 372 444 372 q 575 353 543 372 q 603 310 603 338 q 598 195 603 270 q 528 39 591 81 q 336 0 470 0 m 388 634 q 401 647 401 634 q 392 799 401 766 q 352 832 384 832 q 306 787 319 832 q 292 648 292 743 q 307 635 292 636 l 388 634 m 288 1077 q 264 1088 275 1077 q 253 1113 253 1099 q 261 1130 253 1122 l 395 1264 q 416 1275 406 1275 q 447 1257 429 1275 q 465 1227 465 1239 q 455 1211 465 1219 l 302 1082 q 288 1077 296 1077 z "},"ê":{"ha":661,"x_min":57,"x_max":603,"o":"m 336 0 q 189 18 245 0 q 123 56 149 30 q 74 194 79 100 q 67 370 71 250 q 57 791 57 686 q 240 996 57 975 q 336 1001 289 1001 q 497 969 439 1001 q 572 876 548 941 q 602 637 602 797 l 602 589 q 599 527 602 556 q 572 468 595 490 q 495 446 550 446 q 290 445 292 446 q 289 394 289 444 q 299 213 289 266 q 336 159 309 159 q 381 315 381 159 q 421 366 381 353 q 488 372 444 372 q 575 353 543 372 q 603 310 603 338 q 598 195 603 270 q 528 39 591 81 q 336 0 470 0 m 388 634 q 401 647 401 634 q 392 799 401 766 q 352 832 384 832 q 306 787 319 832 q 292 648 292 743 q 307 635 292 636 l 388 634 m 454 1075 q 439 1080 446 1075 q 323 1176 327 1176 q 208 1082 320 1176 q 193 1077 201 1077 q 169 1088 180 1077 q 158 1113 158 1099 q 166 1131 158 1122 l 300 1264 q 323 1275 312 1275 q 346 1263 334 1275 l 480 1128 q 488 1110 488 1120 q 477 1086 488 1097 q 454 1075 467 1075 z "},"ë":{"ha":661,"x_min":57,"x_max":603,"o":"m 336 0 q 189 18 245 0 q 123 56 149 30 q 74 194 79 100 q 67 370 71 250 q 57 791 57 686 q 240 996 57 975 q 336 1001 289 1001 q 497 969 439 1001 q 572 876 548 941 q 602 637 602 797 l 602 589 q 599 527 602 556 q 572 468 595 490 q 495 446 550 446 q 290 445 292 446 q 289 394 289 444 q 299 213 289 266 q 336 159 309 159 q 381 315 381 159 q 421 366 381 353 q 488 372 444 372 q 575 353 543 372 q 603 310 603 338 q 598 195 603 270 q 528 39 591 81 q 336 0 470 0 m 388 634 q 401 647 401 634 q 392 799 401 766 q 352 832 384 832 q 306 787 319 832 q 292 648 292 743 q 307 635 292 636 l 388 634 m 237 1073 l 208 1073 q 178 1086 185 1074 q 171 1122 171 1098 q 177 1157 171 1145 q 202 1168 182 1168 q 242 1168 222 1168 q 268 1157 262 1168 q 274 1122 274 1147 q 267 1085 274 1097 q 237 1073 260 1073 m 439 1073 l 410 1073 q 380 1086 387 1074 q 373 1122 373 1098 q 379 1157 373 1145 q 404 1168 385 1168 q 444 1168 425 1168 q 470 1157 464 1168 q 476 1122 476 1147 q 469 1085 476 1097 q 439 1073 462 1073 z "},"ì":{"ha":361,"x_min":37,"x_max":303,"o":"m 180 0 q 78 19 106 0 q 50 87 50 37 q 56 315 50 118 q 64 705 64 626 q 73 736 64 724 q 212 764 92 764 q 261 747 245 764 q 281 690 276 731 q 292 496 287 629 q 300 234 297 363 q 303 73 303 105 q 270 12 303 26 q 180 0 245 0 m 214 840 q 199 845 205 840 l 46 973 q 37 989 37 981 q 55 1020 37 1002 q 85 1038 73 1038 q 106 1027 95 1038 l 241 892 q 248 876 248 885 q 237 850 248 861 q 214 840 227 840 z "},"í":{"ha":347,"x_min":39,"x_max":308,"o":"m 170 0 q 67 19 96 0 q 39 87 39 37 q 45 315 39 118 q 53 705 53 626 q 62 736 53 724 q 201 764 81 764 q 250 747 235 764 q 270 690 265 731 q 281 496 276 629 q 289 234 286 363 q 292 73 292 105 q 259 12 292 26 q 170 0 234 0 m 131 840 q 107 850 118 840 q 96 876 96 861 q 104 892 96 885 l 239 1027 q 259 1038 250 1038 q 290 1020 272 1038 q 308 989 308 1002 q 298 973 308 981 l 146 845 q 131 840 139 840 z "},"î":{"ha":351,"x_min":11,"x_max":341,"o":"m 179 0 q 77 19 105 0 q 49 87 49 37 q 54 315 49 118 q 62 705 62 626 q 72 736 62 724 q 211 764 91 764 q 259 747 244 764 q 279 690 275 731 q 291 496 286 629 q 299 234 296 363 q 302 73 302 105 q 269 12 302 26 q 179 0 243 0 m 307 838 q 292 843 298 838 q 176 939 180 939 q 60 845 173 939 q 46 840 54 840 q 22 850 33 840 q 11 876 11 861 q 19 893 11 885 l 153 1027 q 176 1038 165 1038 q 199 1026 187 1038 l 333 890 q 341 873 341 882 q 330 848 341 859 q 307 838 319 838 z "},"ï":{"ha":381,"x_min":37,"x_max":342,"o":"m 192 0 q 90 19 118 0 q 62 87 62 37 q 67 315 62 118 q 75 705 75 626 q 85 736 75 724 q 224 764 104 764 q 272 747 257 764 q 292 690 288 731 q 303 496 298 629 q 312 234 309 363 q 315 73 315 105 q 281 12 315 26 q 192 0 256 0 m 102 836 l 74 836 q 44 848 51 836 q 37 885 37 861 q 42 920 37 908 q 68 931 48 931 q 108 931 88 931 q 134 920 127 930 q 140 884 140 909 q 133 847 140 859 q 102 836 125 836 m 304 836 l 276 836 q 246 848 253 836 q 239 885 239 861 q 244 920 239 908 q 270 931 250 931 q 310 931 290 931 q 336 920 330 930 q 342 884 342 909 q 335 847 342 859 q 304 836 328 836 z "},"ð":{"ha":683,"x_min":16,"x_max":673,"o":"m 466 0 l 269 0 q 98 45 168 0 q 16 210 16 98 q 48 481 16 391 q 119 566 68 535 q 298 598 176 598 l 352 598 q 357 603 357 598 q 359 684 357 610 q 359 685 359 684 q 359 685 359 685 q 319 683 358 685 q 247 682 281 682 q 202 702 212 682 q 193 762 193 722 q 205 825 193 804 q 257 846 216 846 l 361 846 q 367 850 366 846 q 372 927 370 904 q 391 987 376 972 q 440 1001 406 1001 q 572 984 547 1001 q 588 943 588 972 q 590 845 588 848 q 629 841 592 841 q 653 836 643 841 q 673 745 673 823 q 661 713 673 723 q 618 700 649 703 q 595 698 599 698 q 591 694 591 698 q 594 328 591 524 q 596 100 596 181 q 569 22 596 44 q 466 0 543 0 m 339 169 q 343 170 342 169 q 347 212 345 170 q 351 435 351 338 q 347 439 351 439 l 308 439 q 275 425 288 439 q 248 278 248 397 q 258 186 248 203 q 306 169 268 169 l 339 169 z "},"ñ":{"ha":715,"x_min":57,"x_max":657,"o":"m 213 0 q 74 31 93 0 q 64 66 64 45 q 62 319 64 110 q 57 903 57 770 q 89 983 57 962 q 187 1001 116 1001 q 253 996 227 1001 q 293 975 279 991 q 298 972 296 972 q 305 975 300 972 q 410 1001 367 1001 q 492 997 451 1001 q 566 972 532 993 q 646 767 641 926 q 652 520 649 669 q 657 87 657 196 q 643 33 657 51 q 617 14 633 20 q 534 4 592 4 q 444 18 472 4 q 418 40 428 26 q 404 103 404 61 q 409 701 409 655 q 401 783 409 760 q 368 807 393 807 q 308 777 309 807 q 281 83 290 174 q 262 18 277 37 q 213 0 246 0 m 430 1075 q 342 1097 396 1075 q 275 1120 288 1120 q 238 1088 253 1120 q 220 1077 233 1077 q 200 1082 209 1077 q 192 1098 192 1088 q 202 1133 192 1103 q 233 1183 212 1163 q 283 1203 254 1203 q 366 1181 318 1203 q 438 1158 414 1158 q 475 1190 458 1158 q 494 1202 481 1202 q 522 1180 522 1202 q 513 1139 522 1165 q 488 1094 505 1114 q 430 1075 471 1075 z "},"ò":{"ha":673,"x_min":57,"x_max":614,"o":"m 336 0 q 189 17 245 0 q 105 77 133 35 q 74 194 78 120 q 66 370 71 250 q 60 613 62 490 q 57 791 57 736 q 82 912 57 869 q 149 975 108 956 q 239 997 191 994 q 336 1001 288 1001 q 432 997 382 1001 q 522 975 481 994 q 589 912 563 956 q 614 791 614 869 q 611 613 614 736 q 604 370 608 490 q 597 194 600 250 q 565 77 593 120 q 482 17 538 35 q 336 0 426 0 m 336 159 q 372 213 362 159 q 382 394 382 266 q 380 635 382 538 q 368 783 378 733 q 336 832 358 832 q 303 783 313 832 q 291 635 293 733 q 289 394 289 538 q 299 213 289 266 q 336 159 309 159 m 372 1077 q 357 1082 363 1077 l 204 1211 q 195 1227 195 1219 q 213 1257 195 1239 q 243 1275 231 1275 q 264 1264 253 1275 l 399 1130 q 406 1113 406 1122 q 395 1088 406 1099 q 372 1077 385 1077 z "},"ó":{"ha":673,"x_min":57,"x_max":614,"o":"m 336 0 q 189 17 245 0 q 105 77 133 35 q 74 194 78 120 q 66 370 71 250 q 60 613 62 490 q 57 791 57 736 q 82 912 57 869 q 149 975 108 956 q 239 997 191 994 q 336 1001 288 1001 q 432 997 382 1001 q 522 975 481 994 q 589 912 563 956 q 614 791 614 869 q 611 613 614 736 q 604 370 608 490 q 597 194 600 250 q 565 77 593 120 q 482 17 538 35 q 336 0 426 0 m 336 159 q 372 213 362 159 q 382 394 382 266 q 380 635 382 538 q 368 783 378 733 q 336 832 358 832 q 303 783 313 832 q 291 635 293 733 q 289 394 289 538 q 299 213 289 266 q 336 159 309 159 m 300 1077 q 276 1088 287 1077 q 265 1113 265 1099 q 273 1130 265 1122 l 408 1264 q 428 1275 418 1275 q 459 1257 441 1275 q 477 1227 477 1239 q 467 1211 477 1219 l 315 1082 q 300 1077 308 1077 z "},"ô":{"ha":673,"x_min":57,"x_max":614,"o":"m 336 0 q 189 17 245 0 q 105 77 133 35 q 74 194 78 120 q 66 370 71 250 q 60 613 62 490 q 57 791 57 736 q 82 912 57 869 q 149 975 108 956 q 239 997 191 994 q 336 1001 288 1001 q 432 997 382 1001 q 522 975 481 994 q 589 912 563 956 q 614 791 614 869 q 611 613 614 736 q 604 370 608 490 q 597 194 600 250 q 565 77 593 120 q 482 17 538 35 q 336 0 426 0 m 336 159 q 372 213 362 159 q 382 394 382 266 q 380 635 382 538 q 368 783 378 733 q 336 832 358 832 q 303 783 313 832 q 291 635 293 733 q 289 394 289 538 q 299 213 289 266 q 336 159 309 159 m 466 1075 q 451 1080 458 1075 q 335 1176 339 1176 q 220 1082 332 1176 q 205 1077 213 1077 q 181 1088 192 1077 q 170 1113 170 1099 q 178 1131 170 1122 l 313 1264 q 336 1275 324 1275 q 358 1263 347 1275 l 492 1128 q 500 1110 500 1120 q 490 1086 500 1097 q 466 1075 479 1075 z "},"õ":{"ha":673,"x_min":57,"x_max":614,"o":"m 336 0 q 189 17 245 0 q 105 77 133 35 q 74 194 78 120 q 66 370 71 250 q 60 613 62 490 q 57 791 57 736 q 82 912 57 869 q 149 975 108 956 q 239 997 191 994 q 336 1001 288 1001 q 432 997 382 1001 q 522 975 481 994 q 589 912 563 956 q 614 791 614 869 q 611 613 614 736 q 604 370 608 490 q 597 194 600 250 q 565 77 593 120 q 482 17 538 35 q 336 0 426 0 m 336 159 q 372 213 362 159 q 382 394 382 266 q 380 635 382 538 q 368 783 378 733 q 336 832 358 832 q 303 783 313 832 q 291 635 293 733 q 289 394 289 538 q 299 213 289 266 q 336 159 309 159 m 409 1075 q 321 1097 375 1075 q 254 1120 267 1120 q 217 1088 232 1120 q 199 1077 212 1077 q 179 1082 188 1077 q 171 1098 171 1088 q 181 1133 171 1103 q 212 1183 191 1163 q 262 1203 233 1203 q 345 1181 297 1203 q 417 1158 393 1158 q 454 1190 437 1158 q 473 1202 460 1202 q 500 1180 500 1202 q 492 1139 500 1165 q 467 1094 484 1114 q 409 1075 450 1075 z "},"ö":{"ha":673,"x_min":57,"x_max":614,"o":"m 336 0 q 189 17 245 0 q 105 77 133 35 q 74 194 78 120 q 66 370 71 250 q 60 613 62 490 q 57 791 57 736 q 82 912 57 869 q 149 975 108 956 q 239 997 191 994 q 336 1001 288 1001 q 432 997 382 1001 q 522 975 481 994 q 589 912 563 956 q 614 791 614 869 q 611 613 614 736 q 604 370 608 490 q 597 194 600 250 q 565 77 593 120 q 482 17 538 35 q 336 0 426 0 m 336 159 q 372 213 362 159 q 382 394 382 266 q 380 635 382 538 q 368 783 378 733 q 336 832 358 832 q 303 783 313 832 q 291 635 293 733 q 289 394 289 538 q 299 213 289 266 q 336 159 309 159 m 249 1073 l 220 1073 q 190 1086 197 1074 q 183 1122 183 1098 q 189 1157 183 1145 q 214 1168 195 1168 q 254 1168 235 1168 q 280 1157 274 1168 q 286 1122 286 1147 q 279 1085 286 1097 q 249 1073 272 1073 m 451 1073 l 422 1073 q 392 1086 399 1074 q 385 1122 385 1098 q 391 1157 385 1145 q 416 1168 397 1168 q 456 1168 437 1168 q 482 1157 476 1168 q 488 1122 488 1147 q 481 1085 488 1097 q 451 1073 474 1073 z "},"÷":{"ha":598,"x_min":34,"x_max":564,"o":"m 97 338 q 43 366 56 338 q 34 433 34 385 q 49 509 34 488 q 110 533 65 533 q 304 530 195 533 q 513 527 416 527 q 555 498 545 527 q 564 413 564 473 q 550 375 564 387 q 500 360 536 363 q 288 345 414 352 q 97 338 162 338 m 262 61 q 212 71 228 61 q 195 97 201 79 q 189 202 189 121 q 209 243 189 231 q 337 260 239 260 q 387 248 372 260 q 401 227 396 240 q 410 119 410 203 q 380 74 410 86 q 262 61 347 61 m 262 611 q 212 621 228 611 q 195 647 201 629 q 189 752 189 671 q 209 793 189 781 q 337 810 239 810 q 387 798 372 810 q 401 777 396 790 q 410 669 410 753 q 380 624 410 636 q 262 611 347 611 z "},"ø":{"ha":673,"x_min":57,"x_max":614,"o":"m 336 159 q 372 213 362 159 q 382 394 382 266 q 376 581 382 581 q 367 537 372 581 q 321 188 321 197 q 336 159 321 159 m 292 365 q 298 396 294 365 q 352 800 351 784 q 336 832 352 832 q 303 783 313 832 q 291 635 293 733 q 289 394 289 538 q 292 365 289 365 m 256 -102 q 233 -89 233 -102 q 237 -53 233 -77 q 241 -18 241 -29 q 233 1 241 -5 q 210 12 226 7 q 106 77 136 29 q 74 194 78 120 q 66 370 71 250 q 57 791 57 649 q 82 912 57 869 q 149 975 108 956 q 239 997 191 994 q 335 1001 288 1001 q 385 1029 381 1001 l 391 1075 q 398 1086 392 1082 q 425 1090 404 1090 q 437 1077 437 1090 q 434 1052 437 1074 q 431 1025 431 1031 q 457 994 431 998 q 522 975 492 988 q 614 791 614 932 q 611 613 614 736 q 604 370 608 490 q 597 194 600 250 q 565 77 593 120 q 482 17 538 35 q 336 0 426 0 q 292 -24 295 0 l 284 -83 q 276 -98 283 -95 q 256 -102 269 -102 z "},"ù":{"ha":715,"x_min":57,"x_max":657,"o":"m 527 0 q 461 5 488 0 q 420 26 434 10 q 416 28 418 28 q 408 26 413 28 q 304 0 347 0 q 222 4 263 0 q 148 29 182 8 q 68 234 73 75 q 62 481 64 332 q 57 914 57 805 q 71 968 57 950 q 96 987 80 980 q 180 997 121 997 q 269 983 241 997 q 309 903 309 964 l 305 291 q 313 216 305 239 q 347 193 321 193 q 406 224 405 193 q 433 918 424 827 q 452 982 437 964 q 500 1001 467 1001 q 640 970 621 1001 q 649 935 649 956 q 652 682 649 891 q 657 98 657 231 q 625 18 657 39 q 527 0 598 0 m 393 1077 q 378 1082 385 1077 l 226 1211 q 216 1227 216 1219 q 234 1257 216 1239 q 265 1275 252 1275 q 286 1264 275 1275 l 420 1130 q 428 1113 428 1122 q 417 1088 428 1099 q 393 1077 406 1077 z "},"ú":{"ha":715,"x_min":57,"x_max":657,"o":"m 527 0 q 461 5 488 0 q 420 26 434 10 q 416 28 418 28 q 408 26 413 28 q 304 0 347 0 q 222 4 263 0 q 148 29 182 8 q 68 234 73 75 q 62 481 64 332 q 57 914 57 805 q 71 968 57 950 q 96 987 80 980 q 180 997 121 997 q 269 983 241 997 q 309 903 309 964 l 305 291 q 313 216 305 239 q 347 193 321 193 q 406 224 405 193 q 433 918 424 827 q 452 982 437 964 q 500 1001 467 1001 q 640 970 621 1001 q 649 935 649 956 q 652 682 649 891 q 657 98 657 231 q 625 18 657 39 q 527 0 598 0 m 321 1077 q 298 1088 309 1077 q 287 1113 287 1099 q 295 1130 287 1122 l 429 1264 q 450 1275 440 1275 q 480 1257 463 1275 q 498 1227 498 1239 q 489 1211 498 1219 l 336 1082 q 321 1077 330 1077 z "},"û":{"ha":715,"x_min":57,"x_max":657,"o":"m 527 0 q 461 5 488 0 q 420 26 434 10 q 416 28 418 28 q 408 26 413 28 q 304 0 347 0 q 222 4 263 0 q 148 29 182 8 q 68 234 73 75 q 62 481 64 332 q 57 914 57 805 q 71 968 57 950 q 96 987 80 980 q 180 997 121 997 q 269 983 241 997 q 309 903 309 964 l 305 291 q 313 216 305 239 q 347 193 321 193 q 406 224 405 193 q 433 918 424 827 q 452 982 437 964 q 500 1001 467 1001 q 640 970 621 1001 q 649 935 649 956 q 652 682 649 891 q 657 98 657 231 q 625 18 657 39 q 527 0 598 0 m 488 1075 q 473 1080 479 1075 q 357 1176 361 1176 q 241 1082 354 1176 q 227 1077 235 1077 q 203 1088 214 1077 q 192 1113 192 1099 q 200 1131 192 1122 l 334 1264 q 357 1275 346 1275 q 380 1263 368 1275 l 514 1128 q 522 1110 522 1120 q 511 1086 522 1097 q 488 1075 500 1075 z "},"ü":{"ha":715,"x_min":57,"x_max":657,"o":"m 527 0 q 461 5 488 0 q 420 26 434 10 q 416 28 418 28 q 408 26 413 28 q 304 0 347 0 q 222 4 263 0 q 148 29 182 8 q 68 234 73 75 q 62 481 64 332 q 57 914 57 805 q 71 968 57 950 q 96 987 80 980 q 180 997 121 997 q 269 983 241 997 q 309 903 309 964 l 305 291 q 313 216 305 239 q 347 193 321 193 q 406 224 405 193 q 433 918 424 827 q 452 982 437 964 q 500 1001 467 1001 q 640 970 621 1001 q 649 935 649 956 q 652 682 649 891 q 657 98 657 231 q 625 18 657 39 q 527 0 598 0 m 271 1073 l 242 1073 q 212 1086 219 1074 q 205 1122 205 1098 q 211 1157 205 1145 q 236 1168 216 1168 q 276 1168 256 1168 q 302 1157 296 1168 q 308 1122 308 1147 q 301 1085 308 1097 q 271 1073 294 1073 m 473 1073 l 444 1073 q 414 1086 421 1074 q 407 1122 407 1098 q 413 1157 407 1145 q 438 1168 418 1168 q 478 1168 458 1168 q 504 1157 498 1168 q 510 1122 510 1147 q 503 1085 510 1097 q 473 1073 496 1073 z "},"ý":{"ha":697,"x_min":37,"x_max":639,"o":"m 342 0 q 174 21 235 0 q 86 89 113 41 q 60 220 60 136 q 72 349 60 277 q 94 381 76 371 q 137 393 111 391 q 192 395 163 395 q 255 388 234 395 q 284 366 277 380 q 292 335 292 353 q 289 304 292 326 q 279 220 279 244 q 317 159 279 159 q 355 182 335 159 q 401 394 401 237 q 397 454 401 454 l 391 452 q 231 432 301 432 q 114 461 156 432 q 54 548 71 490 q 37 688 37 605 q 50 919 37 783 q 66 972 53 954 q 94 993 75 986 q 176 1001 119 1001 q 249 994 220 1001 q 302 913 302 981 q 300 890 302 907 q 285 711 285 777 q 292 645 285 665 q 316 625 299 625 q 378 640 336 625 q 387 647 387 642 q 377 761 387 651 q 368 913 368 871 q 393 981 368 961 q 492 1001 418 1001 q 587 987 564 1001 q 619 919 615 970 q 633 684 627 831 q 639 443 639 537 q 631 266 639 347 q 504 33 612 93 q 342 0 444 0 m 302 1077 q 278 1088 289 1077 q 267 1113 267 1099 q 275 1130 267 1122 l 410 1264 q 430 1275 420 1275 q 461 1257 443 1275 q 479 1227 479 1239 q 469 1211 479 1219 l 317 1082 q 302 1077 310 1077 z "},"þ":{"ha":648,"x_min":57,"x_max":629,"o":"m 213 0 q 88 13 117 0 q 64 57 64 24 q 62 312 64 101 q 57 901 57 767 q 84 979 57 957 q 187 1001 111 1001 q 277 987 252 1001 q 303 958 296 977 q 309 918 309 943 l 308 802 q 370 800 308 800 q 526 772 475 800 q 597 691 577 744 q 629 410 629 603 q 547 245 629 299 q 376 201 477 201 l 298 201 q 288 180 288 201 q 281 74 284 106 q 262 14 277 28 q 213 0 246 0 m 339 369 q 377 376 365 369 q 393 406 389 382 q 397 498 397 429 q 382 615 397 589 q 338 641 367 641 q 303 638 303 641 q 299 545 303 635 q 295 373 295 454 q 298 369 295 369 l 339 369 z "},"ÿ":{"ha":697,"x_min":37,"x_max":639,"o":"m 342 0 q 174 21 235 0 q 86 89 113 41 q 60 220 60 136 q 72 349 60 277 q 94 381 76 371 q 137 393 111 391 q 192 395 163 395 q 255 388 234 395 q 284 366 277 380 q 292 335 292 353 q 289 304 292 326 q 279 220 279 244 q 317 159 279 159 q 355 182 335 159 q 401 394 401 237 q 397 454 401 454 l 391 452 q 231 432 301 432 q 114 461 156 432 q 54 548 71 490 q 37 688 37 605 q 50 919 37 783 q 66 972 53 954 q 94 993 75 986 q 176 1001 119 1001 q 249 994 220 1001 q 302 913 302 981 q 300 890 302 907 q 285 711 285 777 q 292 645 285 665 q 316 625 299 625 q 378 640 336 625 q 387 647 387 642 q 377 761 387 651 q 368 913 368 871 q 393 981 368 961 q 492 1001 418 1001 q 587 987 564 1001 q 619 919 615 970 q 633 684 627 831 q 639 443 639 537 q 631 266 639 347 q 504 33 612 93 q 342 0 444 0 m 251 1073 l 222 1073 q 192 1086 199 1074 q 185 1122 185 1098 q 191 1157 185 1145 q 216 1168 197 1168 q 256 1168 237 1168 q 282 1157 276 1168 q 288 1122 288 1147 q 281 1085 288 1097 q 251 1073 274 1073 m 453 1073 l 425 1073 q 394 1086 401 1074 q 387 1122 387 1098 q 393 1157 387 1145 q 418 1168 399 1168 q 458 1168 439 1168 q 484 1157 478 1168 q 490 1122 490 1147 q 483 1085 490 1097 q 453 1073 476 1073 z "},"ı":{"ha":313,"x_min":39,"x_max":292,"o":"m 170 0 q 67 19 96 0 q 39 87 39 37 q 45 315 39 118 q 53 705 53 626 q 62 736 53 724 q 201 764 81 764 q 250 747 235 764 q 270 690 265 731 q 281 496 276 629 q 289 234 286 363 q 292 73 292 105 q 259 12 292 26 q 170 0 234 0 z "},"̀":{"ha":279,"x_min":34,"x_max":245,"o":"m 211 1077 q 196 1082 203 1077 l 43 1211 q 34 1227 34 1219 q 52 1257 34 1239 q 83 1275 70 1275 q 103 1264 92 1275 l 238 1130 q 245 1113 245 1122 q 235 1088 245 1099 q 211 1077 224 1077 z "},"́":{"ha":279,"x_min":34,"x_max":245,"o":"m 68 1077 q 45 1088 56 1077 q 34 1113 34 1099 q 42 1130 34 1122 l 176 1264 q 197 1275 187 1275 q 228 1257 210 1275 q 245 1227 245 1239 q 236 1211 245 1219 l 83 1082 q 68 1077 77 1077 z "},"̂":{"ha":398,"x_min":34,"x_max":364,"o":"m 330 1075 q 315 1080 321 1075 q 199 1176 203 1176 q 83 1082 196 1176 q 69 1077 77 1077 q 45 1088 56 1077 q 34 1113 34 1099 q 42 1131 34 1122 l 176 1264 q 199 1275 188 1275 q 222 1263 210 1275 l 356 1128 q 364 1110 364 1120 q 353 1086 364 1097 q 330 1075 342 1075 z "},"̃":{"ha":397,"x_min":34,"x_max":363,"o":"m 272 1075 q 184 1097 238 1075 q 117 1120 130 1120 q 80 1088 95 1120 q 62 1077 75 1077 q 42 1082 51 1077 q 34 1098 34 1088 q 44 1133 34 1103 q 75 1183 54 1163 q 125 1203 96 1203 q 208 1181 160 1203 q 280 1158 256 1158 q 317 1190 300 1158 q 336 1202 323 1202 q 363 1180 363 1202 q 355 1139 363 1165 q 330 1094 347 1114 q 272 1075 313 1075 z "},"̄":{"ha":398,"x_min":34,"x_max":364,"o":"m 335 1075 l 65 1077 q 40 1087 46 1077 q 34 1118 34 1097 q 39 1147 34 1137 q 60 1157 43 1157 l 338 1154 q 359 1145 355 1154 q 364 1116 364 1135 q 358 1085 364 1095 q 335 1075 353 1075 z "},"̇":{"ha":171,"x_min":34,"x_max":137,"o":"m 100 1073 l 71 1073 q 41 1086 48 1074 q 34 1122 34 1098 q 40 1157 34 1145 q 65 1168 45 1168 q 105 1168 85 1168 q 131 1157 125 1168 q 137 1122 137 1147 q 130 1085 137 1097 q 100 1073 123 1073 z "},"̈":{"ha":373,"x_min":34,"x_max":339,"o":"m 100 1073 l 71 1073 q 41 1086 48 1074 q 34 1122 34 1098 q 40 1157 34 1145 q 65 1168 45 1168 q 105 1168 85 1168 q 131 1157 125 1168 q 137 1122 137 1147 q 130 1085 137 1097 q 100 1073 123 1073 m 302 1073 l 273 1073 q 243 1086 250 1074 q 236 1122 236 1098 q 242 1157 236 1145 q 267 1168 248 1168 q 307 1168 288 1168 q 333 1157 327 1168 q 339 1122 339 1147 q 332 1085 339 1097 q 302 1073 325 1073 z "},"̊":{"ha":313,"x_min":34,"x_max":279,"o":"m 156 1031 q 69 1067 104 1031 q 34 1154 34 1103 q 69 1240 34 1204 q 156 1275 104 1275 q 243 1239 208 1275 q 279 1152 279 1202 q 243 1066 279 1101 q 156 1031 208 1031 m 156 1069 q 216 1093 192 1069 q 241 1152 241 1118 q 216 1212 241 1187 q 156 1237 192 1237 q 96 1213 121 1237 q 72 1154 72 1189 q 96 1094 72 1119 q 156 1069 121 1069 z "},"̌":{"ha":398,"x_min":34,"x_max":364,"o":"m 330 1275 q 353 1264 342 1275 q 364 1240 364 1253 q 356 1222 364 1230 l 222 1086 q 199 1075 210 1075 q 176 1086 188 1075 l 42 1219 q 34 1237 34 1227 q 45 1262 34 1251 q 69 1273 56 1273 q 83 1267 77 1273 q 199 1174 196 1174 q 315 1270 203 1174 q 330 1275 321 1275 z "},"̧":{"ha":271,"x_min":34,"x_max":237,"o":"m 65 -258 q 42 -246 50 -258 q 34 -219 34 -234 q 42 -191 34 -203 q 65 -179 50 -179 q 131 -160 105 -179 q 156 -121 156 -142 q 141 -92 156 -104 q 92 -79 125 -80 q 59 -52 59 -78 q 78 37 59 -43 q 95 54 83 54 q 114 52 104 54 q 131 45 125 49 q 138 33 138 41 q 133 11 138 30 q 128 -10 128 -9 q 134 -14 128 -13 q 211 -58 185 -26 q 237 -127 237 -90 q 192 -219 237 -179 q 65 -258 146 -258 z "},"–":{"ha":1055,"x_min":34,"x_max":1021,"o":"m 97 338 q 43 366 56 338 q 34 433 34 385 q 49 509 34 488 q 110 533 65 533 q 304 530 195 533 q 970 527 873 527 q 1013 498 1002 527 q 1021 413 1021 473 q 1007 375 1021 387 q 958 360 993 363 q 516 345 871 352 q 97 338 162 338 z "},"—":{"ha":1393,"x_min":34,"x_max":1359,"o":"m 97 338 q 43 366 56 338 q 34 433 34 385 q 49 509 34 488 q 110 533 65 533 q 304 530 195 533 q 1308 527 1211 527 q 1350 498 1340 527 q 1359 413 1359 473 q 1345 375 1359 387 q 1295 360 1331 363 q 685 345 1208 352 q 97 338 162 338 z "},"‘":{"ha":288,"x_min":34,"x_max":254,"o":"m 180 1001 q 208 989 196 1001 q 220 962 220 977 q 208 937 220 949 q 128 840 140 871 q 117 806 117 808 q 119 805 117 805 q 133 806 119 805 q 182 807 146 807 q 241 786 229 807 q 254 667 254 764 q 228 623 254 634 q 106 608 197 608 q 50 626 65 608 q 34 689 35 644 l 34 721 q 55 859 34 805 q 155 989 76 913 q 180 1001 168 1001 z "},"’":{"ha":288,"x_min":34,"x_max":254,"o":"m 108 608 q 80 620 92 608 q 68 647 68 632 q 81 672 68 660 q 160 770 149 738 q 172 803 172 802 q 170 804 172 804 q 155 803 169 804 q 106 802 142 802 q 47 824 60 802 q 34 943 34 845 q 60 987 34 975 q 182 1001 92 1001 q 238 983 223 1001 q 254 920 254 965 l 254 888 q 233 750 254 804 q 133 621 212 696 q 108 608 121 608 z "},"‚":{"ha":288,"x_min":34,"x_max":254,"o":"m 108 -196 q 80 -184 92 -196 q 68 -157 68 -172 q 81 -132 68 -144 q 160 -35 149 -66 q 172 -2 172 -3 q 170 0 172 0 q 155 -1 169 0 q 106 -2 142 -2 q 47 19 60 -2 q 34 138 34 41 q 60 182 34 171 q 182 197 92 197 q 238 179 223 197 q 254 116 254 161 l 254 84 q 233 -54 254 0 q 133 -184 212 -109 q 108 -196 121 -196 z "},"“":{"ha":597,"x_min":34,"x_max":563,"o":"m 180 1001 q 208 989 196 1001 q 220 962 220 977 q 208 937 220 949 q 128 840 140 871 q 117 806 117 808 q 119 805 117 805 q 133 806 119 805 q 182 807 146 807 q 241 786 229 807 q 254 667 254 764 q 228 623 254 634 q 106 608 197 608 q 50 626 65 608 q 34 689 35 644 l 34 721 q 55 859 34 805 q 155 989 76 913 q 180 1001 168 1001 m 489 1001 q 516 989 505 1001 q 528 962 528 977 q 516 937 528 949 q 437 840 448 871 q 425 806 425 808 q 427 805 425 805 q 441 806 428 805 q 490 807 455 807 q 550 786 537 807 q 563 667 563 764 q 536 623 563 634 q 415 608 505 608 q 358 626 374 608 q 342 689 343 644 l 342 721 q 363 859 342 805 q 464 989 385 913 q 489 1001 476 1001 z "},"”":{"ha":597,"x_min":34,"x_max":563,"o":"m 108 608 q 80 620 92 608 q 68 647 68 632 q 81 672 68 660 q 160 770 149 738 q 172 803 172 802 q 170 804 172 804 q 155 803 169 804 q 106 802 142 802 q 47 824 60 802 q 34 943 34 845 q 60 987 34 975 q 182 1001 92 1001 q 238 983 223 1001 q 254 920 254 965 l 254 888 q 233 750 254 804 q 133 621 212 696 q 108 608 121 608 m 416 608 q 389 620 401 608 q 377 647 377 632 q 389 672 377 660 q 469 770 457 738 q 480 803 480 802 q 478 804 480 804 q 464 803 477 804 q 415 802 450 802 q 355 824 368 802 q 342 943 342 845 q 369 987 342 975 q 490 1001 400 1001 q 547 983 532 1001 q 563 920 562 965 l 563 888 q 542 750 563 804 q 441 621 521 696 q 416 608 429 608 z "},"„":{"ha":597,"x_min":34,"x_max":563,"o":"m 108 -196 q 80 -184 92 -196 q 68 -157 68 -172 q 81 -132 68 -144 q 160 -35 149 -66 q 172 -2 172 -3 q 170 0 172 0 q 155 -1 169 0 q 106 -2 142 -2 q 47 19 60 -2 q 34 138 34 41 q 60 182 34 171 q 182 197 92 197 q 238 179 223 197 q 254 116 254 161 l 254 84 q 233 -54 254 0 q 133 -184 212 -109 q 108 -196 121 -196 m 416 -196 q 389 -184 401 -196 q 377 -157 377 -172 q 389 -132 377 -144 q 469 -35 457 -66 q 480 -2 480 -3 q 478 0 480 0 q 464 -1 477 0 q 415 -2 450 -2 q 355 19 368 -2 q 342 138 342 41 q 369 182 342 171 q 490 197 400 197 q 547 179 532 197 q 563 116 562 161 l 563 84 q 542 -54 563 0 q 441 -184 521 -109 q 416 -196 429 -196 z "},"†":{"ha":598,"x_min":34,"x_max":564,"o":"m 321 -243 q 215 -219 229 -243 q 208 -192 208 -208 q 207 39 208 -37 q 205 317 205 127 q 206 637 205 439 q 199 642 206 642 q 162 640 195 642 q 97 639 130 639 q 41 671 52 639 q 34 733 34 690 q 47 808 34 788 q 109 833 64 833 l 189 832 q 202 842 202 832 l 202 925 q 223 985 202 970 q 302 1001 245 1001 q 386 979 368 1001 q 396 938 396 966 q 395 903 396 924 q 393 842 393 876 q 406 829 393 830 q 512 827 481 827 q 554 802 543 827 q 564 713 564 777 q 550 675 564 687 q 499 660 536 664 q 392 653 463 656 q 382 642 382 652 q 380 432 382 577 q 374 -179 374 163 q 361 -229 374 -215 q 321 -243 347 -243 z "},"‡":{"ha":599,"x_min":34,"x_max":565,"o":"m 322 -243 q 216 -219 230 -243 q 208 -192 208 -208 q 205 -74 208 -75 q 200 -72 203 -72 q 97 -75 132 -75 q 48 -56 63 -75 q 34 20 34 -38 q 45 91 34 69 q 110 119 61 119 l 189 119 q 203 131 203 119 l 206 637 q 199 642 206 642 q 97 639 132 639 q 43 665 56 639 q 34 733 34 685 q 50 811 34 789 q 110 833 66 833 l 189 832 q 203 842 203 832 l 202 925 q 224 985 202 969 q 302 1001 245 1001 q 377 987 357 1001 q 396 938 396 973 q 395 881 396 916 q 393 842 393 845 q 406 829 393 830 q 513 827 482 827 q 541 820 530 827 q 558 788 552 812 q 565 713 565 764 q 551 675 565 687 q 500 660 536 664 q 392 652 464 656 q 383 642 383 652 l 394 129 q 406 116 394 116 q 512 115 482 116 q 553 90 543 113 q 565 -1 565 64 q 551 -37 565 -26 q 527 -49 543 -45 q 392 -60 507 -54 q 383 -71 384 -61 q 375 -178 378 -142 q 360 -229 372 -214 q 322 -243 348 -243 z "},"•":{"ha":694,"x_min":136,"x_max":575,"o":"m 280 302 q 182 322 213 302 q 149 374 159 337 q 136 583 136 422 q 176 664 136 640 q 430 699 236 699 q 530 673 500 699 q 557 632 548 659 q 575 418 575 585 q 516 328 575 352 q 280 302 451 302 z "},"…":{"ha":1389,"x_min":68,"x_max":1215,"o":"m 141 0 q 92 10 107 0 q 75 35 80 17 q 68 140 68 60 q 88 182 68 170 q 216 199 119 199 q 267 186 252 199 q 280 165 275 179 q 289 58 289 142 q 259 13 289 24 q 141 0 227 0 m 604 0 q 555 10 570 0 q 538 35 543 17 q 531 140 531 60 q 551 182 531 170 q 680 199 582 199 q 730 186 715 199 q 743 165 739 179 q 752 58 752 142 q 722 13 752 24 q 604 0 690 0 m 1067 0 q 1018 10 1034 0 q 1002 35 1006 17 q 994 140 994 60 q 1015 182 994 170 q 1143 199 1045 199 q 1193 186 1178 199 q 1206 165 1202 179 q 1215 58 1215 142 q 1185 13 1215 24 q 1067 0 1153 0 z "},"‹":{"ha":393,"x_min":34,"x_max":359,"o":"m 275 273 q 248 283 260 273 q 153 368 201 326 q 39 477 46 459 q 34 500 34 488 q 59 550 34 527 q 154 634 106 593 q 248 718 202 675 q 273 728 258 728 q 347 675 296 728 q 359 646 359 661 q 336 604 359 629 q 251 510 300 564 q 246 500 246 505 q 252 490 246 496 l 336 397 q 359 353 359 371 q 347 326 359 340 q 275 273 296 273 z "},"›":{"ha":393,"x_min":34,"x_max":359,"o":"m 119 273 q 47 326 97 273 q 34 353 34 340 q 57 397 34 371 l 142 490 q 147 500 147 496 q 142 510 147 505 q 57 604 93 564 q 34 646 34 629 q 47 675 34 661 q 121 728 98 728 q 146 718 135 728 q 239 634 191 675 q 334 550 288 593 q 359 500 359 527 q 355 477 359 488 q 240 368 347 459 q 146 283 192 326 q 119 273 134 273 z "},"⁄":{"ha":484,"x_min":34,"x_max":450,"o":"m 85 0 q 47 5 60 0 q 34 28 34 11 q 39 54 34 38 q 342 965 337 948 q 362 991 347 982 q 428 1001 378 1001 q 450 981 450 1001 q 447 956 450 970 q 160 43 430 892 q 146 17 155 27 q 85 0 130 0 z "},"∕":{"ha":484,"x_min":34,"x_max":450,"o":"m 85 0 q 47 5 60 0 q 34 28 34 11 q 39 54 34 38 q 342 965 337 948 q 362 991 347 982 q 428 1001 378 1001 q 450 981 450 1001 q 447 956 450 970 q 160 43 430 892 q 146 17 155 27 q 85 0 130 0 z "},"₣":{"ha":649,"x_min":34,"x_max":615,"o":"m 223 0 q 120 22 148 0 q 93 104 93 43 q 93 110 93 109 q 71 110 92 110 q 40 124 47 110 q 34 165 34 138 q 42 211 34 196 q 85 225 50 225 q 94 227 94 225 q 99 783 94 456 q 101 943 101 911 q 163 999 101 993 q 200 1001 182 1001 l 566 995 q 592 988 581 995 q 609 957 603 981 q 615 881 615 932 q 601 844 615 855 q 551 829 587 832 q 418 818 494 823 q 331 812 342 812 q 324 803 324 812 q 327 727 324 798 q 333 570 330 657 q 336 477 336 484 q 343 453 336 459 q 369 447 349 447 l 545 443 q 572 436 561 443 q 596 330 596 422 q 582 292 596 304 q 532 277 568 280 q 357 261 460 269 q 345 257 347 260 q 342 235 342 254 q 344 223 342 224 q 437 222 345 222 q 454 218 447 222 q 468 154 468 208 q 430 121 468 123 q 349 118 381 118 q 346 116 346 118 l 346 83 q 311 12 346 29 q 223 0 286 0 z "},"₤":{"ha":705,"x_min":34,"x_max":671,"o":"m 111 0 q 56 27 69 0 q 47 94 47 47 q 51 139 47 119 q 71 178 54 159 q 117 269 117 231 q 115 272 117 272 q 87 273 113 272 q 34 320 34 277 q 54 412 34 399 q 77 418 64 418 q 124 419 124 418 l 123 427 q 91 429 123 429 q 46 449 55 429 q 37 509 37 469 q 47 571 37 550 q 92 593 58 593 q 93 594 93 593 q 85 641 93 596 q 77 733 77 685 q 114 929 77 869 q 234 995 149 985 q 361 1001 288 1001 q 535 974 473 1001 q 602 925 576 956 q 646 759 646 870 q 635 659 646 717 q 571 614 629 619 q 517 612 545 612 q 435 629 458 612 q 416 673 416 643 q 419 700 416 682 q 425 767 425 731 q 387 842 425 842 q 331 808 348 842 q 315 696 315 775 q 338 592 315 593 q 486 590 422 590 q 510 584 500 590 q 530 492 530 571 q 518 460 530 470 q 475 447 506 450 q 393 441 437 443 q 349 439 350 439 q 348 437 348 439 q 350 423 348 423 l 462 423 q 515 402 503 423 q 528 337 528 380 q 518 276 528 296 q 473 256 509 256 q 354 259 437 256 q 350 256 351 259 q 340 213 347 234 q 339 205 339 208 q 347 200 339 200 q 473 205 368 200 q 619 210 586 210 q 661 185 650 210 q 671 96 671 159 q 656 59 671 71 q 606 43 642 47 l 418 24 q 111 0 176 0 z "},"€":{"ha":645,"x_min":5,"x_max":605,"o":"m 338 0 q 191 17 247 0 q 124 56 150 30 q 76 194 81 100 q 68 398 72 259 q 37 399 68 399 q 10 411 16 399 q 5 447 5 423 q 12 485 5 473 q 43 498 19 498 l 62 498 q 64 501 64 498 q 63 504 64 504 l 37 503 q 10 515 16 503 q 5 551 5 527 q 12 589 5 576 q 43 602 19 602 l 60 602 q 62 603 62 602 q 59 791 59 734 q 241 997 59 983 q 338 1001 290 1001 q 431 997 385 1001 q 574 921 532 989 q 604 791 604 875 q 596 688 604 722 q 576 642 590 659 q 518 621 557 621 q 422 629 454 621 q 385 659 390 637 q 382 687 382 671 q 375 795 382 758 q 338 832 367 832 q 302 773 313 832 q 292 601 292 715 q 341 599 292 599 q 365 579 360 599 q 368 541 368 567 q 336 513 368 515 l 296 512 q 291 509 291 511 l 291 498 q 296 495 291 495 l 342 494 q 365 475 360 494 q 368 437 368 463 q 336 410 368 411 l 295 408 q 291 403 291 408 l 291 394 q 301 213 291 266 q 338 159 311 159 q 371 195 359 159 q 383 315 383 230 q 410 361 383 348 q 490 372 435 372 q 572 356 540 372 q 605 310 605 340 q 600 194 605 280 q 523 35 592 76 q 338 0 465 0 z "},"™":{"ha":800,"x_min":34,"x_max":766,"o":"m 695 451 q 644 459 661 451 q 627 496 627 467 q 635 717 627 514 q 640 848 640 833 q 631 831 640 848 q 602 777 617 801 q 568 752 586 752 q 500 840 543 752 q 496 847 497 847 q 508 496 508 517 q 491 459 508 467 q 441 451 474 451 q 387 461 404 451 q 369 505 369 471 q 385 990 369 979 q 438 1001 401 1001 q 490 997 471 1001 q 519 970 509 992 q 567 872 566 872 q 616 970 572 872 q 646 997 627 992 q 692 1001 665 1001 q 724 1000 709 1001 q 762 964 762 996 q 766 505 762 924 q 749 461 766 471 q 695 451 731 451 m 206 451 q 153 461 170 451 q 135 505 135 471 q 138 893 135 545 q 134 896 138 896 q 68 895 88 895 q 40 907 45 895 q 34 946 34 920 q 41 987 34 974 q 75 1001 49 1001 q 245 999 153 1001 q 315 998 296 998 q 330 994 323 998 q 340 977 336 990 q 343 935 343 963 q 308 905 343 907 q 262 899 262 903 q 267 753 264 838 q 272 594 270 669 q 274 496 274 519 q 257 459 274 467 q 206 451 240 451 z "},"−":{"ha":598,"x_min":34,"x_max":564,"o":"m 97 338 q 43 366 56 338 q 34 433 34 385 q 49 509 34 488 q 110 533 65 533 q 304 530 195 533 q 513 527 416 527 q 555 498 545 527 q 564 413 564 473 q 550 375 564 387 q 500 360 536 363 q 288 345 414 352 q 97 338 162 338 z "},"≈":{"ha":597,"x_min":34,"x_max":564,"o":"m 403 500 q 325 514 359 500 q 263 543 291 528 q 222 563 242 555 q 184 572 203 572 q 136 519 161 572 q 104 500 127 500 q 58 514 81 500 q 34 549 34 528 q 35 555 34 552 q 96 692 58 646 q 196 738 134 738 q 277 724 243 738 q 337 695 311 711 q 376 675 357 684 q 415 667 395 667 q 461 721 437 667 q 495 738 469 738 q 541 724 518 738 q 564 690 564 711 q 556 652 564 685 q 530 582 548 620 q 503 539 519 557 q 403 500 468 500 m 403 263 q 325 277 359 263 q 263 306 291 290 q 222 326 242 317 q 184 334 203 334 q 136 281 161 334 q 104 263 127 263 q 58 277 81 263 q 34 311 34 290 q 35 318 34 314 q 96 455 58 409 q 196 500 134 500 q 277 487 243 500 q 337 457 311 473 q 376 437 357 446 q 415 429 395 429 q 461 483 437 429 q 495 500 469 500 q 541 487 518 500 q 564 452 564 473 q 556 415 564 448 q 530 345 548 382 q 503 302 519 319 q 403 263 468 263 z "},"≤":{"ha":598,"x_min":34,"x_max":564,"o":"m 481 291 q 286 354 459 291 q 52 456 82 427 q 34 517 34 472 q 43 585 34 559 q 81 619 52 610 q 412 718 226 664 q 486 737 477 737 q 518 717 503 737 q 551 640 533 697 q 555 621 555 629 q 505 570 555 589 q 385 522 385 524 q 500 485 385 520 q 555 428 555 469 q 544 367 555 403 q 519 311 532 330 q 481 291 506 291 m 97 0 q 43 27 56 0 q 34 94 34 47 q 49 171 34 150 q 110 194 65 194 q 304 191 195 194 q 513 188 416 188 q 555 160 545 188 q 564 74 564 134 q 550 37 564 49 q 500 22 536 25 q 288 7 414 14 q 97 0 162 0 z "},"≥":{"ha":598,"x_min":34,"x_max":564,"o":"m 107 291 q 70 311 83 291 q 45 367 56 330 q 34 428 34 403 q 88 485 34 469 q 204 522 204 520 q 83 570 204 524 q 34 621 34 589 q 37 640 34 629 q 71 717 56 697 q 102 737 86 737 q 176 718 111 737 q 507 619 363 664 q 546 585 537 610 q 555 517 555 559 q 538 456 555 472 q 304 354 507 427 q 107 291 130 291 m 97 0 q 43 27 56 0 q 34 94 34 47 q 49 171 34 150 q 110 194 65 194 q 304 191 195 194 q 513 188 416 188 q 555 160 545 188 q 564 74 564 134 q 550 37 564 49 q 500 22 536 25 q 288 7 414 14 q 97 0 162 0 z "},"¹":{"ha":300,"x_min":34,"x_max":267,"o":"m 214 456 q 139 473 149 456 q 134 492 134 481 q 130 821 130 821 q 118 807 129 821 q 96 793 107 793 q 60 810 81 793 q 34 848 34 832 q 141 987 34 867 q 200 1001 153 1001 q 250 993 233 1001 q 267 956 267 985 q 264 827 267 928 q 258 630 261 727 q 252 501 254 533 q 241 466 249 476 q 214 456 233 456 z "},"²":{"ha":377,"x_min":34,"x_max":343,"o":"m 115 456 q 62 466 79 456 q 45 510 45 475 l 45 600 q 100 716 45 687 q 147 736 123 728 q 192 755 179 745 q 214 802 214 771 q 176 914 214 914 q 159 902 163 914 q 155 871 155 890 q 158 824 155 837 q 161 807 161 812 q 151 783 161 793 q 107 774 141 774 q 64 778 84 774 q 34 869 34 785 q 54 955 34 925 q 189 1001 87 1001 q 309 960 275 1001 q 340 869 334 929 q 343 776 343 828 q 329 714 343 737 q 248 652 307 679 q 200 623 220 639 q 180 580 180 608 q 182 563 180 565 q 190 562 184 562 q 271 559 239 561 q 316 558 298 558 q 340 538 335 558 q 343 496 343 524 q 309 465 343 469 q 115 456 214 456 z "},"³":{"ha":381,"x_min":34,"x_max":347,"o":"m 179 456 q 81 471 111 456 q 34 570 34 493 q 40 605 34 595 q 81 623 50 623 q 139 616 123 623 q 155 586 155 609 q 159 558 155 568 q 179 548 163 548 q 203 606 203 548 q 198 637 203 628 q 177 647 193 647 q 150 654 157 647 q 142 675 142 661 q 155 734 142 726 q 170 737 161 737 q 212 760 201 737 q 218 812 218 775 l 218 827 q 205 900 218 878 q 176 914 196 914 q 155 871 155 914 q 159 824 155 837 q 163 807 163 812 q 153 783 163 793 q 108 774 142 774 q 66 778 85 774 q 35 869 35 785 q 68 968 35 939 q 190 1001 104 1001 q 290 979 256 1001 q 332 928 319 960 q 347 817 347 888 q 313 705 347 747 q 311 698 311 702 q 313 689 311 694 q 331 570 331 656 q 179 456 331 456 z "},"⁴":{"ha":418,"x_min":34,"x_max":384,"o":"m 300 456 q 224 473 235 456 q 219 492 219 481 q 218 524 219 524 q 172 522 216 524 q 86 520 128 520 q 34 572 34 520 q 43 607 34 587 q 220 979 163 867 q 247 998 229 995 q 286 1001 264 1001 q 336 993 319 1001 q 353 956 353 985 q 348 741 353 854 q 343 625 343 627 q 347 623 343 623 q 371 618 365 623 q 384 560 384 610 q 345 531 384 531 q 338 521 339 531 q 337 501 338 511 q 327 466 335 476 q 300 456 318 456 m 216 625 q 218 626 218 625 q 214 741 216 741 q 202 707 213 741 q 185 651 191 673 q 180 627 180 629 q 182 625 180 625 l 216 625 z "},"ȷ":{"ha":511,"x_min":2,"x_max":453,"o":"m 196 0 q 50 46 98 0 q 2 186 2 92 q 24 304 2 277 q 73 322 39 322 q 168 308 143 322 q 188 256 188 296 l 188 214 q 203 169 188 169 q 216 177 212 169 q 220 229 220 186 l 220 697 q 230 733 220 718 q 368 764 248 764 q 418 745 402 764 q 453 271 453 703 l 453 210 q 384 35 453 79 q 302 7 350 14 q 196 0 255 0 z "},"ʻ":{"ha":222,"x_min":34,"x_max":189,"o":"m 85 1075 q 45 1087 56 1075 q 34 1131 35 1100 l 34 1154 q 48 1251 34 1213 q 119 1341 63 1289 q 136 1350 127 1350 q 156 1341 147 1350 q 164 1322 164 1333 q 155 1305 164 1314 q 92 1214 92 1243 q 96 1213 92 1213 q 138 1214 113 1214 q 179 1199 170 1214 q 189 1116 189 1184 q 170 1085 189 1093 q 85 1075 148 1075 z "},"ʼ":{"ha":222,"x_min":34,"x_max":189,"o":"m 85 1075 q 66 1083 75 1075 q 58 1102 58 1092 q 66 1120 58 1111 q 122 1188 115 1166 q 130 1211 130 1211 q 129 1212 130 1212 q 119 1211 128 1212 q 85 1211 109 1211 q 43 1225 52 1211 q 34 1309 34 1240 q 52 1340 34 1332 q 138 1350 75 1350 q 177 1337 166 1350 q 189 1293 188 1324 l 189 1271 q 174 1174 189 1212 q 103 1084 159 1136 q 85 1075 95 1075 z "},"ˆ":{"ha":398,"x_min":34,"x_max":364,"o":"m 330 1075 q 315 1080 321 1075 q 199 1176 203 1176 q 83 1082 196 1176 q 69 1077 77 1077 q 45 1088 56 1077 q 34 1113 34 1099 q 42 1131 34 1122 l 176 1264 q 199 1275 188 1275 q 222 1263 210 1275 l 356 1128 q 364 1110 364 1120 q 353 1086 364 1097 q 330 1075 342 1075 z "},"ˇ":{"ha":398,"x_min":34,"x_max":364,"o":"m 330 1275 q 353 1264 342 1275 q 364 1240 364 1253 q 356 1222 364 1230 l 222 1086 q 199 1075 210 1075 q 176 1086 188 1075 l 42 1219 q 34 1237 34 1227 q 45 1262 34 1251 q 69 1273 56 1273 q 83 1267 77 1273 q 199 1174 196 1174 q 315 1270 203 1174 q 330 1275 321 1275 z "},"ˉ":{"ha":398,"x_min":34,"x_max":364,"o":"m 335 1075 l 65 1077 q 40 1087 46 1077 q 34 1118 34 1097 q 39 1147 34 1137 q 60 1157 43 1157 l 338 1154 q 359 1145 355 1154 q 364 1116 364 1135 q 358 1085 364 1095 q 335 1075 353 1075 z "},"ˊ":{"ha":279,"x_min":34,"x_max":245,"o":"m 68 1077 q 45 1088 56 1077 q 34 1113 34 1099 q 42 1130 34 1122 l 176 1264 q 197 1275 187 1275 q 228 1257 210 1275 q 245 1227 245 1239 q 236 1211 245 1219 l 83 1082 q 68 1077 77 1077 z "},"ˋ":{"ha":279,"x_min":34,"x_max":245,"o":"m 211 1077 q 196 1082 203 1077 l 43 1211 q 34 1227 34 1219 q 52 1257 34 1239 q 83 1275 70 1275 q 103 1264 92 1275 l 238 1130 q 245 1113 245 1122 q 235 1088 245 1099 q 211 1077 224 1077 z "},"ˍ":{"ha":598,"x_min":34,"x_max":564,"o":"m 97 -262 q 47 -241 60 -262 q 34 -168 34 -220 q 46 -96 34 -117 q 110 -68 62 -68 q 513 -74 482 -74 q 554 -99 543 -74 q 564 -188 564 -123 q 550 -225 564 -214 q 519 -237 540 -233 q 311 -252 494 -243 q 97 -262 128 -262 z "},"˘":{"ha":408,"x_min":34,"x_max":374,"o":"m 203 1077 q 41 1168 117 1077 q 34 1185 34 1177 q 44 1210 34 1200 q 70 1221 55 1221 q 85 1213 77 1221 q 203 1160 139 1160 q 324 1213 269 1160 q 338 1219 330 1219 q 362 1208 351 1219 q 374 1183 374 1197 q 366 1165 374 1174 q 203 1077 291 1077 z "},"˷":{"ha":397,"x_min":34,"x_max":363,"o":"m 272 -196 q 184 -174 238 -196 q 117 -151 130 -151 q 80 -182 95 -151 q 62 -194 75 -194 q 42 -189 51 -194 q 34 -173 34 -183 q 44 -138 34 -168 q 75 -88 54 -108 q 125 -68 96 -68 q 208 -90 160 -68 q 280 -113 256 -113 q 317 -81 300 -113 q 336 -69 323 -69 q 363 -91 363 -69 q 355 -132 363 -106 q 330 -177 347 -157 q 272 -196 313 -196 z "},"̅":{"ha":598,"x_min":34,"x_max":564,"o":"m 97 1093 q 47 1114 60 1093 q 34 1187 34 1135 q 46 1259 34 1238 q 110 1287 62 1287 q 513 1281 482 1281 q 554 1256 543 1281 q 564 1167 564 1232 q 550 1130 564 1141 q 519 1118 540 1122 q 311 1103 494 1112 q 97 1093 128 1093 z "},"̆":{"ha":408,"x_min":34,"x_max":374,"o":"m 203 1077 q 41 1168 117 1077 q 34 1185 34 1177 q 44 1210 34 1200 q 70 1221 55 1221 q 85 1213 77 1221 q 203 1160 139 1160 q 324 1213 269 1160 q 338 1219 330 1219 q 362 1208 351 1219 q 374 1183 374 1197 q 366 1165 374 1174 q 203 1077 291 1077 z "},"̐":{"ha":408,"x_min":34,"x_max":374,"o":"m 203 1077 q 41 1168 117 1077 q 34 1185 34 1177 q 44 1210 34 1200 q 70 1221 55 1221 q 85 1213 77 1221 q 203 1160 139 1160 q 324 1213 269 1160 q 338 1219 330 1219 q 362 1208 351 1219 q 374 1183 374 1197 q 366 1165 374 1174 q 203 1077 291 1077 m 218 1221 l 189 1221 q 159 1234 166 1221 q 152 1270 152 1246 q 158 1305 152 1293 q 183 1316 163 1316 q 223 1316 203 1316 q 250 1305 243 1316 q 256 1270 256 1295 q 249 1233 256 1244 q 218 1221 241 1221 z "},"̕":{"ha":222,"x_min":34,"x_max":189,"o":"m 85 1075 q 66 1083 75 1075 q 58 1102 58 1092 q 66 1120 58 1111 q 122 1188 115 1166 q 130 1211 130 1211 q 129 1212 130 1212 q 119 1211 128 1212 q 85 1211 109 1211 q 43 1225 52 1211 q 34 1309 34 1240 q 52 1340 34 1332 q 138 1350 75 1350 q 177 1337 166 1350 q 189 1293 188 1324 l 189 1271 q 174 1174 189 1212 q 103 1084 159 1136 q 85 1075 95 1075 z "},"̣":{"ha":171,"x_min":34,"x_max":137,"o":"m 100 -163 l 71 -163 q 41 -151 48 -163 q 34 -114 34 -139 q 40 -79 34 -91 q 65 -68 45 -68 q 105 -68 85 -68 q 131 -79 125 -68 q 137 -115 137 -90 q 130 -152 137 -140 q 100 -163 123 -163 z "},"̤":{"ha":373,"x_min":34,"x_max":339,"o":"m 100 -163 l 71 -163 q 41 -151 48 -163 q 34 -114 34 -139 q 40 -79 34 -91 q 65 -68 45 -68 q 105 -68 85 -68 q 131 -79 125 -68 q 137 -115 137 -90 q 130 -152 137 -140 q 100 -163 123 -163 m 302 -163 l 273 -163 q 243 -151 250 -163 q 236 -114 236 -139 q 242 -79 236 -91 q 267 -68 248 -68 q 307 -68 288 -68 q 333 -79 327 -68 q 339 -115 339 -90 q 332 -152 339 -140 q 302 -163 325 -163 z "},"̥":{"ha":313,"x_min":34,"x_max":279,"o":"m 156 -313 q 69 -276 104 -313 q 34 -189 34 -240 q 69 -103 34 -138 q 156 -68 104 -68 q 243 -104 208 -68 q 279 -191 279 -140 q 243 -277 279 -241 q 156 -313 208 -313 m 156 -275 q 216 -250 192 -275 q 241 -191 241 -226 q 216 -131 241 -156 q 156 -106 192 -106 q 96 -130 121 -106 q 72 -189 72 -155 q 96 -250 72 -224 q 156 -275 121 -275 z "},"̦":{"ha":222,"x_min":34,"x_max":189,"o":"m 85 -342 q 66 -334 75 -342 q 58 -315 58 -326 q 66 -298 58 -307 q 122 -230 115 -252 q 130 -207 130 -208 q 129 -205 130 -205 q 119 -206 128 -205 q 85 -207 109 -207 q 43 -192 52 -207 q 34 -109 34 -177 q 52 -78 34 -86 q 138 -68 75 -68 q 177 -80 166 -68 q 189 -124 188 -93 l 189 -146 q 174 -243 189 -205 q 103 -334 159 -281 q 85 -342 95 -342 z "},"̱":{"ha":398,"x_min":34,"x_max":364,"o":"m 335 -150 l 65 -148 q 40 -138 46 -148 q 34 -106 34 -127 q 39 -78 34 -87 q 60 -68 43 -68 l 338 -71 q 359 -80 355 -71 q 364 -109 364 -90 q 358 -140 364 -130 q 335 -150 353 -150 z "},"ẞ":{"ha":965,"x_min":42,"x_max":956,"o":"m 677 0 q 584 4 631 0 q 444 74 487 12 q 412 210 412 122 q 422 273 412 254 q 497 305 439 305 q 608 292 578 305 q 630 267 627 283 q 633 239 633 254 q 641 187 633 205 q 677 169 648 169 q 713 195 703 169 q 723 301 723 220 q 689 353 723 339 q 547 366 655 366 q 466 388 498 366 q 399 587 399 431 q 409 787 399 743 q 414 813 414 810 q 410 817 414 817 q 363 816 406 817 q 290 814 321 814 q 273 803 273 814 l 275 766 q 294 83 294 334 q 258 11 294 27 q 172 0 233 0 q 66 25 93 0 q 42 100 42 47 q 50 943 42 191 q 68 985 50 972 q 138 999 90 999 l 736 995 q 763 987 750 995 q 785 881 785 973 q 771 842 785 855 q 721 829 757 829 q 665 806 682 829 q 648 777 654 793 q 637 682 637 746 q 643 615 637 647 q 665 565 650 584 q 708 546 681 546 l 802 546 q 892 523 861 546 q 938 460 924 500 q 956 285 956 406 l 956 210 q 774 3 956 18 q 677 0 725 0 z "},"˙":{"ha":171,"x_min":34,"x_max":137,"o":"m 100 1073 l 71 1073 q 41 1086 48 1074 q 34 1122 34 1098 q 40 1157 34 1145 q 65 1168 45 1168 q 105 1168 85 1168 q 131 1157 125 1168 q 137 1122 137 1147 q 130 1085 137 1097 q 100 1073 123 1073 z "},"˚":{"ha":313,"x_min":34,"x_max":279,"o":"m 156 1031 q 69 1067 104 1031 q 34 1154 34 1103 q 69 1240 34 1204 q 156 1275 104 1275 q 243 1239 208 1275 q 279 1152 279 1202 q 243 1066 279 1101 q 156 1031 208 1031 m 156 1069 q 216 1093 192 1069 q 241 1152 241 1118 q 216 1212 241 1187 q 156 1237 192 1237 q 96 1213 121 1237 q 72 1154 72 1189 q 96 1094 72 1119 q 156 1069 121 1069 z "},"˛":{"ha":239,"x_min":34,"x_max":205,"o":"m 110 -248 q 57 -230 79 -248 q 34 -176 34 -212 q 59 -75 34 -132 q 127 55 85 -17 q 144 64 134 64 q 169 57 157 64 q 180 41 180 50 q 146 -36 180 35 q 109 -154 109 -112 q 124 -181 109 -181 q 144 -174 135 -181 q 159 -160 153 -168 q 174 -152 165 -152 q 196 -162 186 -153 q 205 -184 205 -172 q 203 -193 205 -189 q 162 -235 188 -221 q 110 -248 137 -248 z "},"˜":{"ha":397,"x_min":34,"x_max":363,"o":"m 272 1075 q 184 1097 238 1075 q 117 1120 130 1120 q 80 1088 95 1120 q 62 1077 75 1077 q 42 1082 51 1077 q 34 1098 34 1088 q 44 1133 34 1103 q 75 1183 54 1163 q 125 1203 96 1203 q 208 1181 160 1203 q 280 1158 256 1158 q 317 1190 300 1158 q 336 1202 323 1202 q 363 1180 363 1202 q 355 1139 363 1165 q 330 1094 347 1114 q 272 1075 313 1075 z "},"˝":{"ha":492,"x_min":34,"x_max":458,"o":"m 68 1077 q 45 1088 56 1077 q 34 1113 34 1099 q 41 1130 34 1122 l 176 1264 q 197 1275 187 1275 q 228 1257 210 1275 q 245 1227 245 1239 q 236 1211 245 1219 l 83 1082 q 68 1077 77 1077 m 280 1077 q 256 1088 267 1077 q 245 1113 245 1099 q 254 1130 245 1122 l 388 1264 q 408 1275 399 1275 q 439 1257 421 1275 q 458 1227 458 1239 q 448 1211 458 1219 l 295 1082 q 280 1077 288 1077 z "},"Ā":{"ha":683,"x_min":3,"x_max":674,"o":"m 530 0 q 460 15 486 0 q 425 75 435 31 q 401 212 416 110 q 397 216 401 216 q 367 214 395 216 q 280 208 338 211 q 273 200 275 207 q 254 75 261 107 q 218 16 243 31 q 150 0 193 0 q 31 18 66 0 q 3 72 3 31 q 21 187 3 90 q 207 977 156 939 q 260 997 228 992 q 334 1001 292 1001 q 458 983 423 1001 q 667 133 526 948 q 674 74 674 92 q 647 19 674 34 q 530 0 612 0 m 370 393 q 376 397 376 393 q 340 633 376 412 q 339 639 340 639 q 337 633 338 639 q 301 398 317 510 q 304 395 301 395 q 370 393 340 395 m 472 1075 l 202 1077 q 177 1087 183 1077 q 171 1118 171 1097 q 176 1147 171 1137 q 197 1157 180 1157 l 475 1154 q 496 1145 492 1154 q 501 1116 501 1135 q 495 1085 501 1095 q 472 1075 490 1075 z "},"ā":{"ha":661,"x_min":37,"x_max":603,"o":"m 344 159 q 351 164 351 159 l 351 281 q 353 427 353 349 q 349 429 353 429 l 327 429 q 289 422 301 429 q 276 405 280 418 q 269 320 269 385 q 277 214 269 251 q 328 159 290 159 l 344 159 m 492 0 l 296 1 q 141 33 193 2 q 90 77 110 51 q 44 252 54 127 q 37 388 37 342 q 120 554 37 500 q 290 598 188 598 q 355 599 354 598 q 356 663 356 600 q 345 802 356 764 q 313 832 335 832 q 273 781 281 832 q 268 707 268 752 q 265 659 268 671 q 210 625 260 633 q 132 621 182 621 q 75 642 93 621 q 57 675 63 654 q 47 791 47 708 q 71 913 47 869 q 219 998 113 989 q 313 1001 266 1001 q 409 997 360 1001 q 499 975 458 994 q 592 791 591 932 l 593 464 q 600 195 593 387 q 603 82 603 111 q 574 16 603 35 q 492 0 551 0 m 450 1075 l 180 1077 q 155 1087 161 1077 q 149 1118 149 1097 q 154 1147 149 1137 q 176 1157 159 1157 l 453 1154 q 475 1145 470 1154 q 479 1116 479 1135 q 474 1085 479 1095 q 450 1075 468 1075 z "},"Ă":{"ha":683,"x_min":3,"x_max":674,"o":"m 530 0 q 460 15 486 0 q 425 75 435 31 q 401 212 416 110 q 397 216 401 216 q 367 214 395 216 q 280 208 338 211 q 273 200 275 207 q 254 75 261 107 q 218 16 243 31 q 150 0 193 0 q 31 18 66 0 q 3 72 3 31 q 21 187 3 90 q 207 977 156 939 q 260 997 228 992 q 334 1001 292 1001 q 458 983 423 1001 q 667 133 526 948 q 674 74 674 92 q 647 19 674 34 q 530 0 612 0 m 370 393 q 376 397 376 393 q 340 633 376 412 q 339 639 340 639 q 337 633 338 639 q 301 398 317 510 q 304 395 301 395 q 370 393 340 395 m 336 1077 q 174 1168 249 1077 q 166 1185 166 1177 q 177 1210 166 1200 q 202 1221 187 1221 q 217 1213 209 1221 q 336 1160 271 1160 q 456 1213 401 1160 q 470 1219 463 1219 q 495 1208 484 1219 q 506 1183 506 1197 q 498 1165 506 1174 q 336 1077 423 1077 z "},"ă":{"ha":661,"x_min":37,"x_max":603,"o":"m 344 159 q 351 164 351 159 l 351 281 q 353 427 353 349 q 349 429 353 429 l 327 429 q 289 422 301 429 q 276 405 280 418 q 269 320 269 385 q 277 214 269 251 q 328 159 290 159 l 344 159 m 492 0 l 296 1 q 141 33 193 2 q 90 77 110 51 q 44 252 54 127 q 37 388 37 342 q 120 554 37 500 q 290 598 188 598 q 355 599 354 598 q 356 663 356 600 q 345 802 356 764 q 313 832 335 832 q 273 781 281 832 q 268 707 268 752 q 265 659 268 671 q 210 625 260 633 q 132 621 182 621 q 75 642 93 621 q 57 675 63 654 q 47 791 47 708 q 71 913 47 869 q 219 998 113 989 q 313 1001 266 1001 q 409 997 360 1001 q 499 975 458 994 q 592 791 591 932 l 593 464 q 600 195 593 387 q 603 82 603 111 q 574 16 603 35 q 492 0 551 0 m 314 1077 q 152 1168 227 1077 q 144 1185 144 1177 q 155 1210 144 1200 q 180 1221 165 1221 q 195 1213 187 1221 q 314 1160 250 1160 q 435 1213 379 1160 q 448 1219 441 1219 q 473 1208 462 1219 q 484 1183 484 1197 q 477 1165 484 1174 q 314 1077 401 1077 z "},"Ą":{"ha":683,"x_min":3,"x_max":674,"o":"m 549 -250 q 496 -231 519 -249 q 474 -178 474 -213 q 536 -1 474 -107 l 536 0 l 532 0 q 460 15 486 0 q 424 75 434 31 q 402 209 416 110 q 397 216 401 216 q 367 214 395 216 q 311 209 339 211 q 280 207 283 207 q 273 197 275 207 q 254 75 261 107 q 218 16 243 31 q 150 0 193 0 q 31 18 66 0 q 3 72 3 31 q 21 187 3 90 q 207 977 156 939 q 260 997 228 992 q 334 1001 292 1001 q 458 983 423 1001 q 666 138 526 948 q 674 74 674 92 q 617 7 674 18 q 603 -4 607 5 l 587 -38 q 549 -159 549 -119 q 564 -182 549 -182 q 584 -176 574 -182 q 599 -161 593 -169 q 614 -153 606 -153 q 623 -155 617 -153 q 640 -168 633 -159 q 646 -184 646 -177 q 642 -195 646 -189 q 602 -236 627 -222 q 549 -250 576 -250 m 370 393 q 376 399 376 393 q 368 458 376 403 q 340 634 359 514 q 339 639 340 639 q 337 633 338 639 q 301 399 317 511 q 301 396 301 397 q 304 395 301 395 q 352 394 336 395 q 370 393 367 393 z "},"ą":{"ha":661,"x_min":37,"x_max":602,"o":"m 344 159 q 350 164 350 159 l 351 281 q 353 427 353 349 q 349 429 353 429 l 327 429 q 289 422 301 429 q 273 393 277 416 q 269 320 269 370 q 276 222 269 256 q 295 173 282 187 q 328 159 309 159 l 344 159 m 415 -250 q 362 -231 385 -249 q 339 -178 339 -213 q 398 -7 339 -109 q 399 -3 399 -4 q 323 0 399 0 q 140 33 196 0 q 69 117 88 63 q 43 261 50 170 q 37 388 37 342 q 119 554 37 500 q 290 598 188 598 q 355 599 354 598 q 356 674 356 600 q 345 802 356 762 q 313 832 335 832 q 273 781 281 832 q 268 707 268 752 q 265 659 268 671 q 210 625 260 633 q 132 621 182 621 q 75 642 93 621 q 52 701 56 663 q 47 791 47 740 q 71 913 47 869 q 219 998 112 989 q 313 1001 266 1001 q 409 997 359 1001 q 499 975 458 994 q 592 791 591 932 q 593 464 593 559 q 600 195 593 387 q 602 82 602 111 q 574 16 602 35 q 481 -1 551 -1 q 446 -46 469 -1 q 414 -155 414 -113 q 429 -182 414 -182 q 465 -161 449 -182 q 479 -153 471 -153 q 505 -168 496 -153 q 511 -184 511 -177 q 507 -196 511 -189 q 468 -236 493 -222 q 415 -250 442 -250 z "},"Ć":{"ha":631,"x_min":42,"x_max":589,"o":"m 321 0 q 153 19 205 0 q 42 210 42 59 q 45 389 42 265 q 59 807 52 688 q 112 949 64 905 q 321 1001 168 1001 q 519 958 461 1001 q 583 807 576 915 q 589 691 589 721 q 548 642 589 658 q 473 629 517 629 q 391 642 415 629 q 366 686 366 655 q 355 806 366 771 q 321 842 343 842 q 284 788 294 842 q 275 606 275 735 q 277 366 275 463 q 289 218 279 268 q 321 169 298 169 q 358 206 350 169 q 366 314 366 243 q 368 342 366 330 q 407 372 373 363 q 502 380 438 380 q 559 359 541 380 q 582 299 577 338 q 587 210 587 261 q 550 68 587 117 q 415 4 507 12 q 321 0 368 0 m 286 1077 q 262 1088 273 1077 q 251 1113 251 1099 q 259 1130 251 1122 l 393 1264 q 414 1275 404 1275 q 445 1257 427 1275 q 463 1227 463 1239 q 453 1211 463 1219 l 300 1082 q 286 1077 294 1077 z "},"ć":{"ha":643,"x_min":57,"x_max":604,"o":"m 336 0 q 127 52 182 0 q 74 194 79 96 q 60 612 67 313 q 57 791 57 736 q 168 982 57 941 q 336 1001 220 1001 q 430 997 382 1001 q 565 933 522 989 q 602 791 602 884 q 597 701 602 740 q 574 642 592 663 q 517 621 556 621 q 422 628 453 621 q 383 659 388 637 q 380 687 380 671 q 373 795 380 758 q 336 832 365 832 q 303 783 313 832 q 292 635 294 733 q 290 394 290 538 q 299 213 290 266 q 336 159 309 159 q 370 195 358 159 q 381 315 381 230 q 406 359 381 346 q 488 372 430 372 q 563 359 532 372 q 604 310 604 343 q 598 194 604 280 q 534 43 591 85 q 336 0 476 0 m 300 1077 q 276 1088 287 1077 q 265 1113 265 1099 q 273 1130 265 1122 l 408 1264 q 428 1275 418 1275 q 459 1257 441 1275 q 477 1227 477 1239 q 467 1211 477 1219 l 315 1082 q 300 1077 308 1077 z "},"Ĉ":{"ha":631,"x_min":42,"x_max":589,"o":"m 321 0 q 153 19 205 0 q 42 210 42 59 q 45 389 42 265 q 59 807 52 688 q 112 949 64 905 q 321 1001 168 1001 q 519 958 461 1001 q 583 807 576 915 q 589 691 589 721 q 548 642 589 658 q 473 629 517 629 q 391 642 415 629 q 366 686 366 655 q 355 806 366 771 q 321 842 343 842 q 284 788 294 842 q 275 606 275 735 q 277 366 275 463 q 289 218 279 268 q 321 169 298 169 q 358 206 350 169 q 366 314 366 243 q 368 342 366 330 q 407 372 373 363 q 502 380 438 380 q 559 359 541 380 q 582 299 577 338 q 587 210 587 261 q 550 68 587 117 q 415 4 507 12 q 321 0 368 0 m 452 1075 q 437 1080 444 1075 q 321 1176 325 1176 q 205 1082 318 1176 q 191 1077 199 1077 q 167 1088 178 1077 q 156 1113 156 1099 q 164 1131 156 1122 l 298 1264 q 321 1275 310 1275 q 344 1263 332 1275 l 478 1128 q 486 1110 486 1120 q 475 1086 486 1097 q 452 1075 465 1075 z "},"ĉ":{"ha":643,"x_min":57,"x_max":604,"o":"m 336 0 q 127 52 182 0 q 74 194 79 96 q 60 612 67 313 q 57 791 57 736 q 168 982 57 941 q 336 1001 220 1001 q 430 997 382 1001 q 565 933 522 989 q 602 791 602 884 q 597 701 602 740 q 574 642 592 663 q 517 621 556 621 q 422 628 453 621 q 383 659 388 637 q 380 687 380 671 q 373 795 380 758 q 336 832 365 832 q 303 783 313 832 q 292 635 294 733 q 290 394 290 538 q 299 213 290 266 q 336 159 309 159 q 370 195 358 159 q 381 315 381 230 q 406 359 381 346 q 488 372 430 372 q 563 359 532 372 q 604 310 604 343 q 598 194 604 280 q 534 43 591 85 q 336 0 476 0 m 466 1075 q 451 1080 458 1075 q 335 1176 339 1176 q 220 1082 332 1176 q 205 1077 213 1077 q 181 1088 192 1077 q 170 1113 170 1099 q 178 1131 170 1122 l 313 1264 q 336 1275 324 1275 q 358 1263 347 1275 l 492 1128 q 500 1110 500 1120 q 490 1086 500 1097 q 466 1075 479 1075 z "},"Ċ":{"ha":631,"x_min":42,"x_max":589,"o":"m 321 0 q 153 19 205 0 q 42 210 42 59 q 45 389 42 265 q 59 807 52 688 q 112 949 64 905 q 321 1001 168 1001 q 519 958 461 1001 q 583 807 576 915 q 589 691 589 721 q 548 642 589 658 q 473 629 517 629 q 391 642 415 629 q 366 686 366 655 q 355 806 366 771 q 321 842 343 842 q 284 788 294 842 q 275 606 275 735 q 277 366 275 463 q 289 218 279 268 q 321 169 298 169 q 358 206 350 169 q 366 314 366 243 q 368 342 366 330 q 407 372 373 363 q 502 380 438 380 q 559 359 541 380 q 582 299 577 338 q 587 210 587 261 q 550 68 587 117 q 415 4 507 12 q 321 0 368 0 m 336 1073 l 307 1073 q 277 1086 284 1074 q 270 1122 270 1098 q 276 1157 270 1145 q 301 1168 281 1168 q 341 1168 321 1168 q 367 1157 361 1168 q 373 1122 373 1147 q 366 1085 373 1097 q 336 1073 359 1073 z "},"ċ":{"ha":643,"x_min":57,"x_max":604,"o":"m 336 0 q 127 52 182 0 q 74 194 79 96 q 60 612 67 313 q 57 791 57 736 q 168 982 57 941 q 336 1001 220 1001 q 430 997 382 1001 q 565 933 522 989 q 602 791 602 884 q 597 701 602 740 q 574 642 592 663 q 517 621 556 621 q 422 628 453 621 q 383 659 388 637 q 380 687 380 671 q 373 795 380 758 q 336 832 365 832 q 303 783 313 832 q 292 635 294 733 q 290 394 290 538 q 299 213 290 266 q 336 159 309 159 q 370 195 358 159 q 381 315 381 230 q 406 359 381 346 q 488 372 430 372 q 563 359 532 372 q 604 310 604 343 q 598 194 604 280 q 534 43 591 85 q 336 0 476 0 m 350 1073 l 321 1073 q 291 1086 298 1074 q 284 1122 284 1098 q 290 1157 284 1145 q 315 1168 296 1168 q 355 1168 336 1168 q 381 1157 375 1168 q 387 1122 387 1147 q 380 1085 387 1097 q 350 1073 373 1073 z "},"Č":{"ha":631,"x_min":42,"x_max":589,"o":"m 321 0 q 153 19 205 0 q 42 210 42 59 q 45 389 42 265 q 59 807 52 688 q 112 949 64 905 q 321 1001 168 1001 q 519 958 461 1001 q 583 807 576 915 q 589 691 589 721 q 548 642 589 658 q 473 629 517 629 q 391 642 415 629 q 366 686 366 655 q 355 806 366 771 q 321 842 343 842 q 284 788 294 842 q 275 606 275 735 q 277 366 275 463 q 289 218 279 268 q 321 169 298 169 q 358 206 350 169 q 366 314 366 243 q 368 342 366 330 q 407 372 373 363 q 502 380 438 380 q 559 359 541 380 q 582 299 577 338 q 587 210 587 261 q 550 68 587 117 q 415 4 507 12 q 321 0 368 0 m 452 1275 q 475 1264 465 1275 q 486 1240 486 1253 q 478 1222 486 1230 l 344 1086 q 321 1075 332 1075 q 298 1086 310 1075 l 164 1219 q 156 1237 156 1227 q 167 1262 156 1251 q 191 1273 178 1273 q 205 1267 199 1273 q 321 1174 318 1174 q 437 1270 325 1174 q 452 1275 444 1275 z "},"č":{"ha":643,"x_min":57,"x_max":604,"o":"m 336 0 q 127 52 182 0 q 74 194 79 96 q 60 612 67 313 q 57 791 57 736 q 168 982 57 941 q 336 1001 220 1001 q 430 997 382 1001 q 565 933 522 989 q 602 791 602 884 q 597 701 602 740 q 574 642 592 663 q 517 621 556 621 q 422 628 453 621 q 383 659 388 637 q 380 687 380 671 q 373 795 380 758 q 336 832 365 832 q 303 783 313 832 q 292 635 294 733 q 290 394 290 538 q 299 213 290 266 q 336 159 309 159 q 370 195 358 159 q 381 315 381 230 q 406 359 381 346 q 488 372 430 372 q 563 359 532 372 q 604 310 604 343 q 598 194 604 280 q 534 43 591 85 q 336 0 476 0 m 466 1275 q 490 1264 479 1275 q 500 1240 500 1253 q 492 1222 500 1230 l 358 1086 q 336 1075 347 1075 q 313 1086 324 1075 l 178 1219 q 170 1237 170 1227 q 181 1262 170 1251 q 205 1273 192 1273 q 220 1267 213 1273 q 335 1174 332 1174 q 451 1270 339 1174 q 466 1275 458 1275 z "},"Ď":{"ha":682,"x_min":42,"x_max":623,"o":"m 364 0 l 160 0 q 73 18 103 0 q 42 100 42 37 q 44 361 42 192 q 50 943 50 870 q 69 985 50 973 q 114 1000 87 997 q 152 1001 134 1001 l 370 1001 q 540 957 471 1001 q 623 790 623 903 q 623 564 623 677 l 622 418 q 590 109 621 193 q 519 28 571 57 q 364 0 467 0 m 340 159 q 366 164 354 159 q 390 284 390 176 l 390 723 q 381 813 390 794 q 332 832 372 832 l 279 832 q 273 827 273 832 q 294 169 287 507 q 296 161 294 163 q 340 159 298 159 m 466 1275 q 490 1264 479 1275 q 500 1240 500 1253 q 492 1222 500 1230 l 358 1086 q 336 1075 347 1075 q 313 1086 324 1075 l 178 1219 q 170 1237 170 1227 q 181 1262 170 1251 q 205 1273 192 1273 q 220 1267 213 1273 q 335 1174 332 1174 q 451 1270 339 1174 q 466 1275 458 1275 z "},"ď":{"ha":832,"x_min":57,"x_max":836,"o":"m 354 159 q 380 164 369 159 q 405 284 405 176 l 405 723 q 395 815 405 798 q 347 832 385 832 l 313 832 q 309 827 309 832 q 307 770 309 823 q 299 574 306 717 q 288 172 288 324 q 298 159 288 159 l 354 159 m 378 0 l 167 0 q 125 2 148 0 q 65 57 65 7 q 62 312 65 101 q 57 901 57 733 q 92 984 57 963 q 187 1001 119 1001 l 384 1001 q 555 957 486 1001 q 637 790 637 903 l 636 418 q 604 109 635 193 q 534 28 585 57 q 378 0 483 0 m 733 726 q 714 735 722 726 q 706 753 706 743 q 714 771 706 762 q 770 840 762 817 q 778 863 778 862 q 777 863 778 863 q 766 863 776 863 q 732 862 757 862 q 691 877 700 862 q 682 960 682 892 q 700 991 682 983 q 785 1001 722 1001 q 825 988 814 1001 q 836 945 836 976 l 836 922 q 821 825 836 863 q 751 735 806 787 q 733 726 743 726 z "},"Đ":{"ha":703,"x_min":16,"x_max":644,"o":"m 354 168 q 402 187 393 168 q 411 278 411 206 l 411 717 q 405 805 411 779 q 387 836 399 831 q 358 842 374 842 l 305 842 q 294 829 294 842 q 300 553 294 718 q 320 541 301 541 q 353 513 353 539 q 341 456 353 464 q 327 452 335 452 q 305 449 305 452 q 311 267 305 353 q 315 174 314 215 q 319 168 315 168 l 354 168 m 391 0 l 194 0 q 92 21 119 0 q 64 99 64 42 l 66 441 q 60 449 66 449 q 23 463 30 450 q 16 502 16 475 q 22 539 16 526 q 50 551 27 551 q 67 552 67 551 l 71 943 q 132 999 71 994 q 385 1001 156 1001 q 541 972 490 1001 q 612 892 592 944 q 643 583 642 811 l 644 210 q 562 45 644 98 q 391 0 493 0 z "},"đ":{"ha":696,"x_min":11,"x_max":638,"o":"m 349 168 q 396 187 387 168 q 406 278 406 206 l 406 717 q 399 805 406 779 q 381 836 393 831 q 353 842 369 842 l 300 842 q 288 829 288 842 q 295 553 288 718 q 315 541 296 541 q 348 513 348 539 q 336 456 348 464 q 321 452 330 452 q 300 449 300 452 q 305 267 300 353 q 310 174 309 215 q 314 168 310 168 l 349 168 m 385 0 l 189 0 q 86 21 114 0 q 58 99 58 42 l 61 441 q 54 449 61 449 q 18 463 24 450 q 11 502 11 475 q 16 539 11 526 q 44 551 22 551 q 62 552 62 551 l 65 943 q 127 999 66 994 q 380 1001 151 1001 q 535 972 484 1001 q 606 892 587 944 q 637 583 636 811 l 638 210 q 556 45 638 98 q 385 0 488 0 z "},"Ē":{"ha":593,"x_min":42,"x_max":564,"o":"m 149 0 q 70 22 97 0 q 42 100 42 45 q 50 943 42 191 q 68 985 50 972 q 149 1001 93 1001 q 337 998 245 1001 q 513 995 425 995 q 541 988 529 995 q 564 881 564 973 q 550 844 564 855 q 282 812 528 825 q 273 802 273 811 q 279 608 273 719 q 286 465 283 536 q 288 451 286 454 q 301 448 291 448 q 432 445 380 448 q 494 443 468 443 q 521 437 510 443 q 545 330 545 422 q 531 292 545 304 q 481 277 517 280 q 297 261 406 269 q 292 255 292 260 l 292 202 q 513 188 292 188 q 541 181 529 188 q 564 74 564 166 q 550 37 564 48 q 500 22 536 25 q 149 0 290 0 m 439 1075 l 169 1077 q 144 1087 150 1077 q 138 1118 138 1097 q 142 1147 138 1137 q 164 1157 147 1157 l 441 1154 q 463 1145 458 1154 q 468 1116 468 1135 q 462 1085 468 1095 q 439 1075 456 1075 z "},"ē":{"ha":661,"x_min":57,"x_max":603,"o":"m 336 0 q 189 18 245 0 q 123 56 149 30 q 74 194 79 100 q 67 370 71 250 q 57 791 57 686 q 240 996 57 975 q 336 1001 289 1001 q 497 969 439 1001 q 572 876 548 941 q 602 637 602 797 l 602 589 q 599 527 602 556 q 572 468 595 490 q 495 446 550 446 q 290 445 292 446 q 289 394 289 444 q 299 213 289 266 q 336 159 309 159 q 381 315 381 159 q 421 366 381 353 q 488 372 444 372 q 575 353 543 372 q 603 310 603 338 q 598 195 603 270 q 528 39 591 81 q 336 0 470 0 m 388 634 q 401 647 401 634 q 392 799 401 766 q 352 832 384 832 q 306 787 319 832 q 292 648 292 743 q 307 635 292 636 l 388 634 m 459 1075 l 189 1077 q 164 1087 170 1077 q 158 1118 158 1097 q 163 1147 158 1137 q 184 1157 168 1157 l 462 1154 q 484 1145 479 1154 q 488 1116 488 1135 q 483 1085 488 1095 q 459 1075 477 1075 z "},"Ĕ":{"ha":593,"x_min":42,"x_max":564,"o":"m 149 0 q 70 22 97 0 q 42 100 42 45 q 50 943 42 191 q 68 985 50 972 q 149 1001 93 1001 q 337 998 245 1001 q 513 995 425 995 q 541 988 529 995 q 564 881 564 973 q 550 844 564 855 q 282 812 528 825 q 273 802 273 811 q 279 608 273 719 q 286 465 283 536 q 288 451 286 454 q 301 448 291 448 q 432 445 380 448 q 494 443 468 443 q 521 437 510 443 q 545 330 545 422 q 531 292 545 304 q 481 277 517 280 q 297 261 406 269 q 292 255 292 260 l 292 202 q 513 188 292 188 q 541 181 529 188 q 564 74 564 166 q 550 37 564 48 q 500 22 536 25 q 149 0 290 0 m 302 1030 q 140 1121 216 1030 q 133 1139 133 1130 q 143 1163 133 1153 q 169 1174 154 1174 q 184 1166 176 1174 q 302 1113 238 1113 q 423 1166 368 1113 q 437 1172 429 1172 q 461 1161 450 1172 q 473 1136 473 1150 q 465 1118 473 1127 q 302 1030 390 1030 z "},"ĕ":{"ha":661,"x_min":57,"x_max":603,"o":"m 336 0 q 189 18 245 0 q 123 56 149 30 q 74 194 79 100 q 67 370 71 250 q 57 791 57 686 q 240 996 57 975 q 336 1001 289 1001 q 497 969 439 1001 q 572 876 548 941 q 602 637 602 797 l 602 589 q 599 527 602 556 q 572 468 595 490 q 495 446 550 446 q 290 445 292 446 q 289 394 289 444 q 299 213 289 266 q 336 159 309 159 q 381 315 381 159 q 421 366 381 353 q 488 372 444 372 q 575 353 543 372 q 603 310 603 338 q 598 195 603 270 q 528 39 591 81 q 336 0 470 0 m 388 634 q 401 647 401 634 q 392 799 401 766 q 352 832 384 832 q 306 787 319 832 q 292 648 292 743 q 307 635 292 636 l 388 634 m 323 1030 q 161 1121 236 1030 q 153 1139 153 1130 q 164 1163 153 1153 q 189 1174 174 1174 q 204 1166 196 1174 q 323 1113 258 1113 q 444 1166 388 1113 q 457 1172 450 1172 q 482 1161 471 1172 q 493 1136 493 1150 q 486 1118 493 1127 q 323 1030 410 1030 z "},"Ė":{"ha":593,"x_min":42,"x_max":564,"o":"m 149 0 q 70 22 97 0 q 42 100 42 45 q 50 943 42 191 q 68 985 50 972 q 149 1001 93 1001 q 337 998 245 1001 q 513 995 425 995 q 541 988 529 995 q 564 881 564 973 q 550 844 564 855 q 282 812 528 825 q 273 802 273 811 q 279 608 273 719 q 286 465 283 536 q 288 451 286 454 q 301 448 291 448 q 432 445 380 448 q 494 443 468 443 q 521 437 510 443 q 545 330 545 422 q 531 292 545 304 q 481 277 517 280 q 297 261 406 269 q 292 255 292 260 l 292 202 q 513 188 292 188 q 541 181 529 188 q 564 74 564 166 q 550 37 564 48 q 500 22 536 25 q 149 0 290 0 m 317 1073 l 289 1073 q 259 1086 266 1074 q 252 1122 252 1098 q 257 1157 252 1145 q 283 1168 263 1168 q 323 1168 303 1168 q 349 1157 342 1168 q 355 1122 355 1147 q 348 1085 355 1097 q 317 1073 340 1073 z "},"ė":{"ha":661,"x_min":57,"x_max":603,"o":"m 336 0 q 189 18 245 0 q 123 56 149 30 q 74 194 79 100 q 67 370 71 250 q 57 791 57 686 q 240 996 57 975 q 336 1001 289 1001 q 497 969 439 1001 q 572 876 548 941 q 602 637 602 797 l 602 589 q 599 527 602 556 q 572 468 595 490 q 495 446 550 446 q 290 445 292 446 q 289 394 289 444 q 299 213 289 266 q 336 159 309 159 q 381 315 381 159 q 421 366 381 353 q 488 372 444 372 q 575 353 543 372 q 603 310 603 338 q 598 195 603 270 q 528 39 591 81 q 336 0 470 0 m 388 634 q 401 647 401 634 q 392 799 401 766 q 352 832 384 832 q 306 787 319 832 q 292 648 292 743 q 307 635 292 636 l 388 634 m 338 1073 l 309 1073 q 279 1086 286 1074 q 272 1122 272 1098 q 278 1157 272 1145 q 303 1168 283 1168 q 343 1168 323 1168 q 369 1157 363 1168 q 375 1122 375 1147 q 368 1085 375 1097 q 338 1073 361 1073 z "},"Ę":{"ha":593,"x_min":42,"x_max":564,"o":"m 416 -248 q 363 -230 385 -248 q 340 -176 340 -212 q 374 -55 340 -119 q 408 11 408 9 q 406 12 408 12 q 337 6 404 12 q 149 0 271 0 q 70 22 97 0 q 42 100 42 45 q 50 943 42 191 q 68 985 50 972 q 149 1001 93 1001 q 337 998 245 1001 q 513 995 425 995 q 541 987 529 995 q 564 881 564 973 q 550 844 564 855 q 407 818 528 825 q 283 811 287 811 q 273 802 273 811 q 279 608 273 719 q 285 472 283 536 q 288 451 286 454 q 301 448 291 448 q 432 445 380 448 q 494 443 468 443 q 535 419 524 443 q 545 330 545 395 q 531 292 545 304 q 481 277 517 280 q 353 264 407 269 q 295 260 298 260 q 292 255 292 260 q 292 203 292 218 q 513 188 293 188 q 539 182 529 188 q 564 74 564 166 q 550 37 564 48 q 496 22 536 25 q 468 -3 479 20 q 447 -49 458 -26 q 415 -158 415 -118 q 431 -181 415 -181 q 450 -174 441 -181 q 466 -160 459 -168 q 480 -152 472 -152 q 502 -162 492 -152 q 512 -184 512 -172 q 506 -200 512 -189 q 469 -235 494 -221 q 416 -248 443 -248 z "},"ę":{"ha":661,"x_min":57,"x_max":603,"o":"m 336 -256 q 280 -238 302 -256 q 258 -184 258 -220 q 290 -74 258 -142 q 321 -3 321 -6 q 315 0 321 0 q 135 44 191 0 q 73 194 79 87 q 67 370 71 250 q 60 613 63 490 q 57 791 57 736 q 240 996 57 975 q 336 1001 289 1001 q 497 969 439 1001 q 563 897 539 945 q 602 637 602 819 l 602 589 q 599 527 602 556 q 572 468 595 490 q 495 446 550 446 q 290 445 292 446 q 289 394 289 444 q 299 213 289 266 q 336 159 309 159 q 381 315 381 159 q 421 366 381 353 q 488 372 444 372 q 560 361 530 372 q 603 310 603 345 q 598 194 603 270 q 547 54 593 98 q 403 3 501 9 q 387 -9 392 2 q 371 -45 380 -27 q 332 -166 332 -126 q 347 -190 332 -190 q 367 -183 358 -190 q 383 -168 376 -176 q 397 -160 389 -160 q 419 -170 409 -160 q 429 -193 429 -180 q 427 -201 429 -197 q 386 -243 411 -229 q 336 -256 361 -256 m 390 633 q 399 636 396 633 q 401 644 401 639 q 392 800 400 768 q 352 832 385 832 q 301 770 315 832 q 292 648 292 728 q 307 635 292 636 l 390 633 z "},"Ě":{"ha":593,"x_min":42,"x_max":564,"o":"m 149 0 q 70 22 97 0 q 42 100 42 45 q 50 943 42 191 q 68 985 50 972 q 149 1001 93 1001 q 337 998 245 1001 q 513 995 425 995 q 541 988 529 995 q 564 881 564 973 q 550 844 564 855 q 282 812 528 825 q 273 802 273 811 q 279 608 273 719 q 286 465 283 536 q 288 451 286 454 q 301 448 291 448 q 432 445 380 448 q 494 443 468 443 q 521 437 510 443 q 545 330 545 422 q 531 292 545 304 q 481 277 517 280 q 297 261 406 269 q 292 255 292 260 l 292 202 q 513 188 292 188 q 541 181 529 188 q 564 74 564 166 q 550 37 564 48 q 500 22 536 25 q 149 0 290 0 m 433 1275 q 457 1264 446 1275 q 468 1240 468 1253 q 460 1222 468 1230 l 326 1086 q 303 1075 314 1075 q 280 1086 292 1075 l 146 1219 q 138 1237 138 1227 q 149 1262 138 1251 q 173 1273 159 1273 q 187 1267 180 1273 q 302 1174 300 1174 q 418 1270 307 1174 q 433 1275 425 1275 z "},"ě":{"ha":661,"x_min":57,"x_max":603,"o":"m 336 0 q 189 18 245 0 q 123 56 149 30 q 74 194 79 100 q 67 370 71 250 q 57 791 57 686 q 240 996 57 975 q 336 1001 289 1001 q 497 969 439 1001 q 572 876 548 941 q 602 637 602 797 l 602 589 q 599 527 602 556 q 572 468 595 490 q 495 446 550 446 q 290 445 292 446 q 289 394 289 444 q 299 213 289 266 q 336 159 309 159 q 381 315 381 159 q 421 366 381 353 q 488 372 444 372 q 575 353 543 372 q 603 310 603 338 q 598 195 603 270 q 528 39 591 81 q 336 0 470 0 m 388 634 q 401 647 401 634 q 392 799 401 766 q 352 832 384 832 q 306 787 319 832 q 292 648 292 743 q 307 635 292 636 l 388 634 m 454 1275 q 477 1264 467 1275 q 488 1240 488 1253 q 480 1222 488 1230 l 346 1086 q 323 1075 334 1075 q 300 1086 312 1075 l 166 1219 q 158 1237 158 1227 q 169 1262 158 1251 q 193 1273 180 1273 q 208 1267 201 1273 q 323 1174 320 1174 q 439 1270 327 1174 q 454 1275 446 1275 z "},"Ĝ":{"ha":685,"x_min":42,"x_max":678,"o":"m 350 0 q 188 14 245 0 q 42 210 42 50 q 45 389 42 265 q 59 807 51 676 q 115 952 64 908 q 321 1001 171 1001 q 467 984 411 1001 q 539 939 512 970 q 583 806 578 895 q 588 691 588 731 q 549 642 588 659 q 473 629 518 629 q 374 656 391 629 q 366 686 366 669 q 321 842 366 842 q 284 788 294 842 q 274 606 274 735 q 286 280 274 391 q 338 169 298 169 q 380 181 362 169 q 409 235 398 194 q 422 361 418 270 q 414 370 422 370 l 386 370 q 340 390 349 370 q 331 451 331 410 q 343 516 331 494 q 397 538 355 538 q 570 534 519 538 q 634 532 605 532 q 657 526 648 532 q 673 499 667 520 q 678 433 678 478 q 651 393 678 401 q 644 388 645 391 q 642 378 642 385 q 644 310 644 345 q 596 75 644 142 q 486 11 560 24 q 350 0 429 0 m 490 1075 q 475 1080 482 1075 q 359 1176 363 1176 q 244 1082 357 1176 q 230 1077 237 1077 q 205 1088 216 1077 q 195 1113 195 1099 q 203 1131 195 1122 l 337 1264 q 360 1275 349 1275 q 382 1263 371 1275 l 517 1128 q 525 1110 525 1120 q 514 1086 525 1097 q 490 1075 503 1075 z "},"ĝ":{"ha":676,"x_min":37,"x_max":618,"o":"m 334 0 q 104 65 169 0 q 49 242 49 121 q 64 399 49 313 q 109 440 70 431 q 184 446 133 446 q 265 429 242 446 q 284 385 284 414 q 277 341 284 376 q 271 238 271 306 q 309 159 271 159 q 343 182 327 159 q 380 394 380 235 q 378 473 380 444 q 375 506 375 503 q 374 508 375 508 q 331 502 372 508 q 248 496 290 496 q 76 559 125 496 q 37 697 37 609 q 70 882 37 823 q 232 960 113 960 q 296 957 264 960 q 332 954 328 954 q 342 958 340 954 q 382 992 353 983 q 459 1001 412 1001 q 557 985 533 1001 q 587 919 582 968 q 618 443 618 600 q 612 266 618 347 q 526 55 600 117 q 334 0 460 0 m 297 690 q 347 699 320 690 q 353 705 353 701 l 343 792 q 334 797 343 795 q 292 800 311 800 q 264 741 264 800 q 270 702 264 714 q 297 690 276 690 m 458 1075 q 443 1080 450 1075 q 327 1176 331 1176 q 212 1082 324 1176 q 197 1077 205 1077 q 173 1088 184 1077 q 162 1113 162 1099 q 170 1131 162 1122 l 304 1264 q 328 1275 316 1275 q 350 1263 338 1275 l 484 1128 q 492 1110 492 1120 q 481 1086 492 1097 q 458 1075 471 1075 z "},"Ğ":{"ha":685,"x_min":42,"x_max":678,"o":"m 350 0 q 188 14 245 0 q 42 210 42 50 q 45 389 42 265 q 59 807 51 676 q 115 952 64 908 q 321 1001 171 1001 q 467 984 411 1001 q 539 939 512 970 q 583 806 578 895 q 588 691 588 731 q 549 642 588 659 q 473 629 518 629 q 374 656 391 629 q 366 686 366 669 q 321 842 366 842 q 284 788 294 842 q 274 606 274 735 q 286 280 274 391 q 338 169 298 169 q 380 181 362 169 q 409 235 398 194 q 422 361 418 270 q 414 370 422 370 l 386 370 q 340 390 349 370 q 331 451 331 410 q 343 516 331 494 q 397 538 355 538 q 570 534 519 538 q 634 532 605 532 q 657 526 648 532 q 673 499 667 520 q 678 433 678 478 q 651 393 678 401 q 644 388 645 391 q 642 378 642 385 q 644 310 644 345 q 596 75 644 142 q 486 11 560 24 q 350 0 429 0 m 359 1077 q 197 1168 273 1077 q 190 1185 190 1177 q 200 1210 190 1200 q 226 1221 211 1221 q 241 1213 233 1221 q 359 1160 295 1160 q 480 1213 425 1160 q 494 1219 486 1219 q 518 1208 507 1219 q 530 1183 530 1197 q 522 1165 530 1174 q 359 1077 447 1077 z "},"ğ":{"ha":676,"x_min":37,"x_max":618,"o":"m 334 0 q 104 65 169 0 q 49 242 49 121 q 64 399 49 313 q 109 440 70 431 q 184 446 133 446 q 265 429 242 446 q 284 385 284 414 q 277 341 284 376 q 271 238 271 306 q 309 159 271 159 q 343 182 327 159 q 380 394 380 235 q 378 473 380 444 q 375 506 375 503 q 374 508 375 508 q 331 502 372 508 q 248 496 290 496 q 76 559 125 496 q 37 697 37 609 q 70 882 37 823 q 232 960 113 960 q 296 957 264 960 q 332 954 328 954 q 342 958 340 954 q 382 992 353 983 q 459 1001 412 1001 q 557 985 533 1001 q 587 919 582 968 q 618 443 618 600 q 612 266 618 347 q 526 55 600 117 q 334 0 460 0 m 297 690 q 347 699 320 690 q 353 705 353 701 l 343 792 q 334 797 343 795 q 292 800 311 800 q 264 741 264 800 q 270 702 264 714 q 297 690 276 690 m 327 1077 q 165 1168 240 1077 q 157 1185 157 1177 q 168 1210 157 1200 q 193 1221 178 1221 q 208 1213 200 1221 q 327 1160 262 1160 q 448 1213 392 1160 q 461 1219 454 1219 q 486 1208 475 1219 q 497 1183 497 1197 q 490 1165 497 1174 q 327 1077 414 1077 z "},"Ġ":{"ha":685,"x_min":42,"x_max":678,"o":"m 350 0 q 188 14 245 0 q 42 210 42 50 q 45 389 42 265 q 59 807 51 676 q 115 952 64 908 q 321 1001 171 1001 q 467 984 411 1001 q 539 939 512 970 q 583 806 578 895 q 588 691 588 731 q 549 642 588 659 q 473 629 518 629 q 374 656 391 629 q 366 686 366 669 q 321 842 366 842 q 284 788 294 842 q 274 606 274 735 q 286 280 274 391 q 338 169 298 169 q 380 181 362 169 q 409 235 398 194 q 422 361 418 270 q 414 370 422 370 l 386 370 q 340 390 349 370 q 331 451 331 410 q 343 516 331 494 q 397 538 355 538 q 570 534 519 538 q 634 532 605 532 q 657 526 648 532 q 673 499 667 520 q 678 433 678 478 q 651 393 678 401 q 644 388 645 391 q 642 378 642 385 q 644 310 644 345 q 596 75 644 142 q 486 11 560 24 q 350 0 429 0 m 374 1073 l 346 1073 q 316 1086 323 1074 q 309 1122 309 1098 q 314 1157 309 1145 q 340 1168 320 1168 q 380 1168 360 1168 q 406 1157 399 1168 q 412 1122 412 1147 q 405 1085 412 1097 q 374 1073 397 1073 z "},"ġ":{"ha":676,"x_min":37,"x_max":618,"o":"m 334 0 q 104 65 169 0 q 49 242 49 121 q 64 399 49 313 q 109 440 70 431 q 184 446 133 446 q 265 429 242 446 q 284 385 284 414 q 277 341 284 376 q 271 238 271 306 q 309 159 271 159 q 343 182 327 159 q 380 394 380 235 q 378 473 380 444 q 375 506 375 503 q 374 508 375 508 q 331 502 372 508 q 248 496 290 496 q 76 559 125 496 q 37 697 37 609 q 70 882 37 823 q 232 960 113 960 q 296 957 264 960 q 332 954 328 954 q 342 958 340 954 q 382 992 353 983 q 459 1001 412 1001 q 557 985 533 1001 q 587 919 582 968 q 618 443 618 600 q 612 266 618 347 q 526 55 600 117 q 334 0 460 0 m 297 690 q 347 699 320 690 q 353 705 353 701 l 343 792 q 334 797 343 795 q 292 800 311 800 q 264 741 264 800 q 270 702 264 714 q 297 690 276 690 m 342 1073 l 313 1073 q 283 1086 290 1074 q 276 1122 276 1098 q 282 1157 276 1145 q 307 1168 288 1168 q 347 1168 328 1168 q 373 1157 367 1168 q 379 1122 379 1147 q 372 1085 379 1097 q 342 1073 365 1073 z "},"Ģ":{"ha":685,"x_min":42,"x_max":678,"o":"m 350 0 q 188 14 245 0 q 42 210 42 50 q 45 389 42 265 q 59 807 51 676 q 115 952 64 908 q 321 1001 171 1001 q 467 984 411 1001 q 539 939 512 970 q 583 806 578 895 q 588 691 588 731 q 549 642 588 659 q 473 629 518 629 q 374 656 391 629 q 366 686 366 669 q 321 842 366 842 q 284 788 294 842 q 274 606 274 735 q 286 280 274 391 q 338 169 298 169 q 380 181 362 169 q 409 235 398 194 q 422 361 418 270 q 414 370 422 370 l 386 370 q 340 390 349 370 q 331 451 331 410 q 343 516 331 494 q 397 538 355 538 q 570 534 519 538 q 634 532 605 532 q 657 526 648 532 q 673 499 667 520 q 678 433 678 478 q 651 393 678 401 q 644 388 645 391 q 642 378 642 385 q 644 310 644 345 q 596 75 644 142 q 486 11 560 24 q 350 0 429 0 m 334 -342 q 315 -334 323 -342 q 307 -315 307 -326 q 315 -298 307 -307 q 371 -230 363 -252 q 379 -207 379 -208 q 378 -205 379 -205 q 368 -206 377 -205 q 334 -207 358 -207 q 292 -192 301 -207 q 283 -109 283 -177 q 301 -78 283 -86 q 387 -68 323 -68 q 426 -80 415 -68 q 437 -124 437 -93 l 437 -146 q 422 -243 437 -205 q 352 -334 408 -281 q 334 -342 344 -342 z "},"ģ":{"ha":676,"x_min":37,"x_max":618,"o":"m 334 0 q 104 65 169 0 q 49 242 49 121 q 64 399 49 313 q 109 440 70 431 q 184 446 133 446 q 265 429 242 446 q 284 385 284 414 q 277 341 284 376 q 271 238 271 306 q 309 159 271 159 q 343 182 327 159 q 380 394 380 235 q 378 473 380 444 q 375 506 375 503 q 374 508 375 508 q 331 502 372 508 q 248 496 290 496 q 76 559 125 496 q 37 697 37 609 q 70 882 37 823 q 232 960 113 960 q 296 957 264 960 q 332 954 328 954 q 342 958 340 954 q 382 992 353 983 q 459 1001 412 1001 q 557 985 533 1001 q 587 919 582 968 q 618 443 618 600 q 612 266 618 347 q 526 55 600 117 q 334 0 460 0 m 297 690 q 347 699 320 690 q 353 705 353 701 l 343 792 q 334 797 343 795 q 292 800 311 800 q 264 741 264 800 q 270 702 264 714 q 297 690 276 690 m 301 1075 q 261 1087 272 1075 q 250 1131 251 1100 l 250 1154 q 265 1251 250 1213 q 335 1341 279 1289 q 353 1350 344 1350 q 372 1341 363 1350 q 380 1322 380 1333 q 372 1305 380 1314 q 308 1214 308 1243 q 313 1213 308 1213 q 354 1214 329 1214 q 396 1199 387 1214 q 405 1116 405 1184 q 386 1085 405 1093 q 301 1075 364 1075 z "},"Ĥ":{"ha":730,"x_min":42,"x_max":671,"o":"m 548 0 q 449 18 476 0 q 418 98 418 40 q 421 531 418 214 q 408 546 421 546 l 305 546 q 288 523 288 546 q 291 349 288 513 q 294 82 294 185 q 276 23 294 41 q 172 0 253 0 q 70 21 98 0 q 42 98 42 42 q 49 935 42 188 q 86 989 50 976 q 198 1001 119 1001 q 247 982 231 1001 q 267 918 262 964 q 275 748 271 874 q 280 732 276 736 q 294 728 283 728 q 399 727 353 727 q 419 731 414 727 q 424 747 424 734 q 426 935 424 819 q 435 970 426 956 q 574 1001 454 1001 q 623 982 607 1001 q 642 918 638 964 q 654 681 648 859 q 666 319 661 503 q 671 82 671 135 q 646 18 671 35 q 548 0 621 0 m 487 1075 q 472 1080 479 1075 q 356 1176 360 1176 q 241 1082 353 1176 q 227 1077 234 1077 q 202 1088 213 1077 q 191 1113 191 1099 q 199 1131 191 1122 l 334 1264 q 357 1275 345 1275 q 379 1263 368 1275 l 513 1128 q 522 1110 522 1120 q 511 1086 522 1097 q 487 1075 500 1075 z "},"ĥ":{"ha":689,"x_min":57,"x_max":668,"o":"m 545 0 q 437 26 463 0 q 417 93 417 46 q 420 534 420 488 q 366 640 420 640 q 301 611 301 640 q 295 399 301 595 q 279 83 290 202 q 260 18 275 37 q 212 0 245 0 q 73 31 91 0 q 63 66 63 45 l 57 907 q 82 979 57 958 q 185 1001 107 1001 q 253 996 226 1001 q 294 972 281 990 q 308 919 308 955 l 307 839 q 315 827 307 827 q 408 833 368 833 q 492 829 449 833 q 571 804 534 825 q 656 600 651 758 q 668 82 668 258 q 635 13 668 31 q 545 0 610 0 m 484 1075 q 469 1080 475 1075 q 353 1176 357 1176 q 237 1082 350 1176 q 223 1077 231 1077 q 199 1088 210 1077 q 188 1113 188 1099 q 196 1131 188 1122 l 330 1264 q 353 1275 342 1275 q 376 1263 364 1275 l 510 1128 q 518 1110 518 1120 q 507 1086 518 1097 q 484 1075 496 1075 z "},"Ħ":{"ha":767,"x_min":16,"x_max":751,"o":"m 585 0 q 481 22 507 0 q 455 98 455 45 q 457 356 455 235 q 458 489 458 476 q 446 501 458 501 q 398 498 439 501 q 342 494 357 494 q 321 474 321 494 q 326 300 321 441 q 332 82 332 159 q 298 12 332 29 q 210 0 273 0 q 106 21 134 0 q 79 98 79 43 q 81 341 79 184 q 85 715 85 546 q 81 719 85 719 l 54 719 q 23 733 29 719 q 16 775 16 747 q 24 820 16 805 q 61 835 33 835 l 83 835 q 86 838 86 835 q 87 911 86 883 l 87 935 q 106 981 87 967 q 235 1001 136 1001 q 284 982 269 1001 q 302 918 300 964 l 307 840 q 314 833 308 833 l 456 833 q 462 838 462 833 q 463 935 463 894 q 473 970 463 956 q 611 1001 491 1001 q 660 982 644 1001 q 680 918 675 964 q 683 866 682 895 q 685 836 685 838 q 686 833 685 835 q 721 831 686 831 q 737 827 730 831 q 751 763 751 818 q 713 731 751 732 l 692 730 q 690 727 690 730 q 708 82 708 235 q 668 9 708 25 q 585 0 643 0 m 437 681 q 456 685 451 681 q 461 703 461 690 l 461 721 q 456 725 461 725 q 313 718 313 724 q 317 687 313 694 q 332 681 321 681 l 437 681 z "},"ħ":{"ha":741,"x_min":11,"x_max":683,"o":"m 560 0 q 467 15 493 0 q 430 98 430 36 q 432 286 430 118 q 435 500 435 454 q 381 606 435 606 q 315 578 316 606 q 295 83 305 189 q 275 18 290 37 q 227 0 260 0 q 109 14 140 0 q 78 66 78 28 l 77 246 q 71 817 71 775 q 39 818 71 818 q 16 828 20 818 q 11 860 11 839 q 17 893 11 882 q 45 904 23 904 q 71 905 71 904 q 113 988 71 969 q 201 1001 140 1001 q 269 996 241 1001 q 305 977 292 991 q 323 919 323 959 q 324 903 323 904 q 451 901 325 901 q 465 899 459 901 q 475 851 475 892 q 446 827 475 828 q 328 824 334 824 q 322 819 322 824 q 324 796 322 800 q 334 793 326 793 q 367 797 340 793 q 423 800 394 800 q 507 796 464 800 q 586 771 549 792 q 671 566 666 724 q 683 82 683 231 q 651 14 683 31 q 560 0 627 0 z "},"Ĩ":{"ha":393,"x_min":42,"x_max":372,"o":"m 210 0 q 107 22 133 0 q 81 98 81 45 q 85 682 81 231 q 88 935 88 891 q 98 970 88 956 q 237 1001 117 1001 q 285 982 270 1001 q 305 918 300 964 q 316 681 310 859 q 328 319 323 503 q 333 82 333 135 q 300 12 333 29 q 210 0 275 0 m 280 1075 q 192 1097 246 1075 q 125 1120 138 1120 q 88 1088 103 1120 q 71 1077 83 1077 q 51 1082 59 1077 q 42 1098 42 1088 q 52 1133 42 1103 q 83 1183 62 1163 q 134 1203 104 1203 q 216 1181 168 1203 q 288 1158 264 1158 q 325 1190 308 1158 q 345 1202 331 1202 q 372 1180 372 1202 q 363 1139 372 1165 q 338 1094 355 1114 q 280 1075 321 1075 z "},"ĩ":{"ha":351,"x_min":11,"x_max":340,"o":"m 178 0 q 76 19 104 0 q 48 87 48 37 q 54 315 48 118 q 62 705 62 626 q 71 736 62 724 q 210 764 90 764 q 259 747 243 764 q 279 690 274 731 q 290 496 285 629 q 298 234 295 363 q 301 73 301 105 q 268 12 301 26 q 178 0 243 0 m 249 838 q 161 860 215 838 q 94 882 106 882 q 57 851 72 882 q 39 840 52 840 q 19 845 28 840 q 11 861 11 850 q 21 896 11 865 q 52 946 31 926 q 102 966 73 966 q 185 943 137 966 q 257 921 233 921 q 294 953 277 921 q 313 964 300 964 q 340 943 340 964 q 332 902 340 928 q 307 857 324 876 q 249 838 290 838 z "},"Ī":{"ha":368,"x_min":16,"x_max":347,"o":"m 185 0 q 82 22 108 0 q 56 98 56 45 q 60 682 56 231 q 63 935 63 891 q 73 970 63 956 q 212 1001 92 1001 q 260 982 245 1001 q 280 918 275 964 q 291 681 285 859 q 303 319 298 503 q 308 82 308 135 q 275 12 308 29 q 185 0 250 0 m 317 1075 l 47 1077 q 22 1087 28 1077 q 16 1118 16 1097 q 21 1147 16 1137 q 43 1157 26 1157 l 320 1154 q 342 1145 337 1154 q 347 1116 347 1135 q 341 1085 347 1095 q 317 1075 335 1075 z "},"ī":{"ha":351,"x_min":11,"x_max":341,"o":"m 179 0 q 77 19 105 0 q 49 87 49 37 q 54 315 49 118 q 62 705 62 626 q 72 736 62 724 q 211 764 91 764 q 259 747 244 764 q 279 690 275 731 q 291 496 286 629 q 299 234 296 363 q 302 73 302 105 q 269 12 302 26 q 179 0 243 0 m 312 838 l 42 840 q 17 850 23 840 q 11 881 11 860 q 16 910 11 900 q 37 920 20 920 l 315 917 q 336 907 332 917 q 341 878 341 898 q 335 847 341 857 q 312 838 330 838 z "},"Ĭ":{"ha":378,"x_min":16,"x_max":356,"o":"m 190 0 q 86 22 113 0 q 60 98 60 45 q 65 682 60 231 q 68 935 68 891 q 77 970 68 956 q 216 1001 96 1001 q 265 982 250 1001 q 285 918 280 964 q 296 681 290 859 q 308 319 302 503 q 313 82 313 135 q 279 12 313 29 q 190 0 254 0 m 186 1077 q 24 1168 99 1077 q 16 1185 16 1177 q 27 1210 16 1200 q 52 1221 37 1221 q 67 1213 59 1221 q 186 1160 121 1160 q 307 1213 251 1160 q 320 1219 313 1219 q 345 1208 334 1219 q 356 1183 356 1197 q 349 1165 356 1174 q 186 1077 273 1077 z "},"ĭ":{"ha":361,"x_min":11,"x_max":351,"o":"m 184 0 q 82 19 110 0 q 54 87 54 37 q 59 315 54 118 q 67 705 67 626 q 77 736 67 724 q 216 764 96 764 q 264 747 249 764 q 284 690 279 731 q 295 496 290 629 q 303 234 300 363 q 307 73 307 105 q 273 12 307 26 q 184 0 248 0 m 180 840 q 18 930 94 840 q 11 948 11 939 q 21 973 11 962 q 47 983 32 983 q 62 976 54 983 q 180 922 116 922 q 301 976 245 922 q 315 981 307 981 q 339 970 328 981 q 351 945 351 960 q 343 928 351 937 q 180 840 268 840 z "},"Į":{"ha":354,"x_min":42,"x_max":295,"o":"m 161 -250 q 108 -231 130 -249 q 85 -178 85 -213 q 136 -20 85 -113 q 142 -7 142 -11 q 128 2 142 1 q 63 26 85 5 q 42 98 42 47 q 47 682 42 264 q 50 935 50 891 q 60 970 50 956 q 198 1001 78 1001 q 247 982 232 1001 q 267 918 262 964 q 278 681 272 859 q 290 319 285 503 q 295 82 295 135 q 279 25 295 43 q 230 3 262 7 q 210 -12 216 1 q 198 -41 205 -26 q 160 -159 160 -119 q 176 -182 160 -182 q 195 -175 186 -182 q 210 -161 204 -169 q 224 -153 216 -153 q 247 -163 237 -153 q 257 -185 257 -173 q 254 -195 257 -190 q 214 -236 239 -222 q 161 -250 188 -250 z "},"į":{"ha":368,"x_min":57,"x_max":310,"o":"m 182 -248 q 106 -176 106 -248 q 137 -66 106 -128 q 167 -2 167 -4 q 165 0 167 0 q 84 19 111 1 q 57 87 57 37 q 62 315 57 121 q 71 705 71 587 q 80 737 71 724 q 219 764 99 764 q 268 747 252 764 q 288 690 283 731 q 299 496 294 629 q 307 234 304 363 q 310 73 310 105 q 294 23 310 39 q 248 3 279 7 q 230 -14 237 2 l 217 -40 q 181 -154 181 -112 q 197 -181 181 -181 q 217 -174 208 -181 q 232 -160 226 -168 q 247 -153 238 -153 q 269 -162 258 -153 q 279 -184 279 -172 q 276 -193 279 -189 q 235 -235 260 -221 q 182 -248 210 -248 m 133 802 q 84 812 99 802 q 64 852 68 822 q 60 943 60 882 q 87 987 60 975 q 208 1001 119 1001 q 258 988 243 1001 q 275 959 270 979 q 281 861 281 934 q 261 819 281 831 q 133 802 231 802 z "},"İ":{"ha":353,"x_min":42,"x_max":294,"o":"m 172 0 q 68 22 94 0 q 42 98 42 45 q 47 682 42 231 q 50 935 50 891 q 59 970 50 956 q 198 1001 78 1001 q 247 982 231 1001 q 267 918 262 964 q 278 681 271 859 q 289 319 284 503 q 294 82 294 135 q 261 12 294 29 q 172 0 236 0 m 182 1073 l 154 1073 q 124 1086 131 1074 q 117 1122 117 1098 q 122 1157 117 1145 q 148 1168 128 1168 q 188 1168 168 1168 q 214 1157 208 1168 q 220 1122 220 1147 q 213 1085 220 1097 q 182 1073 205 1073 z "},"Ĳ":{"ha":926,"x_min":42,"x_max":867,"o":"m 172 0 q 68 22 94 0 q 42 98 42 45 q 47 682 42 231 q 50 935 50 891 q 59 970 50 956 q 198 1001 78 1001 q 247 982 231 1001 q 267 918 262 964 q 278 681 271 859 q 289 319 284 503 q 294 82 294 135 q 261 12 294 29 q 172 0 236 0 m 595 0 q 457 35 504 0 q 391 141 410 70 q 361 435 361 252 q 394 481 361 465 q 475 498 427 498 q 574 471 557 498 q 583 440 583 458 q 586 218 583 276 q 610 159 589 159 q 638 202 634 159 q 641 292 641 233 q 636 656 641 528 q 631 943 631 797 q 641 977 631 964 q 668 993 648 987 q 780 1001 699 1001 q 828 987 813 1001 q 848 927 844 972 q 867 514 867 725 q 857 194 867 357 q 787 39 850 81 q 595 0 730 0 z "},"ĳ":{"ha":876,"x_min":57,"x_max":818,"o":"m 187 0 q 85 19 113 0 q 57 87 57 37 q 62 315 57 118 q 71 705 71 626 q 80 736 71 724 q 219 764 99 764 q 268 747 252 764 q 288 690 283 731 q 299 496 294 629 q 307 234 304 363 q 310 73 310 105 q 277 12 310 26 q 187 0 252 0 m 133 802 q 83 812 99 802 q 69 831 75 818 q 60 943 60 854 q 69 974 60 961 q 208 1001 88 1001 q 258 988 243 1001 q 273 966 268 981 q 281 861 281 942 q 252 815 281 827 q 133 802 219 802 m 561 0 q 415 46 463 0 q 367 186 367 92 q 389 304 367 277 q 438 322 404 322 q 532 308 508 322 q 553 256 553 296 l 553 214 q 568 169 553 169 q 581 177 576 169 q 585 229 585 186 l 585 697 q 595 733 585 718 q 733 764 613 764 q 783 745 767 764 q 818 271 818 703 l 818 210 q 749 35 818 79 q 667 7 715 14 q 561 0 620 0 m 648 802 q 599 812 614 802 q 584 833 589 819 q 575 943 575 857 q 598 985 575 973 q 724 1001 629 1001 q 774 988 759 1001 q 787 968 783 981 q 796 861 796 944 q 768 816 796 827 q 648 802 736 802 z "},"Ĵ":{"ha":573,"x_min":5,"x_max":551,"o":"m 239 0 q 102 35 149 0 q 36 141 55 70 q 5 435 5 252 q 38 481 5 465 q 120 498 71 498 q 219 471 202 498 q 227 440 227 458 q 231 218 227 276 q 254 159 234 159 q 283 202 279 159 q 286 292 286 233 q 281 656 286 528 q 276 943 276 797 q 286 977 276 964 q 313 993 292 987 q 425 1001 344 1001 q 473 987 458 1001 q 492 927 488 972 q 511 514 511 725 q 501 194 511 357 q 431 39 494 81 q 239 0 374 0 m 517 1075 q 502 1080 509 1075 q 386 1176 390 1176 q 271 1082 383 1176 q 256 1077 264 1077 q 232 1088 243 1077 q 221 1113 221 1099 q 229 1131 221 1122 l 363 1264 q 387 1275 375 1275 q 409 1263 397 1275 l 543 1128 q 551 1110 551 1120 q 541 1086 551 1097 q 517 1075 530 1075 z "},"ĵ":{"ha":508,"x_min":-1,"x_max":498,"o":"m 193 0 q 47 46 95 0 q -1 186 -1 92 q 22 304 -1 277 q 71 322 37 322 q 165 308 140 322 q 185 256 185 296 l 185 214 q 200 169 185 169 q 213 177 209 169 q 217 229 217 186 l 218 697 q 227 733 218 718 q 366 764 245 764 q 415 745 399 764 q 450 271 450 703 l 450 210 q 381 35 450 79 q 300 7 347 14 q 193 0 252 0 m 463 838 q 448 843 455 838 q 332 939 336 939 q 217 845 330 939 q 203 840 210 840 q 178 850 189 840 q 168 876 168 861 q 176 893 168 885 l 310 1027 q 333 1038 321 1038 q 355 1026 344 1038 l 490 890 q 498 873 498 882 q 487 848 498 859 q 463 838 476 838 z "},"Ķ":{"ha":672,"x_min":42,"x_max":630,"o":"m 562 0 q 423 31 441 0 q 414 66 414 45 q 409 204 414 151 q 310 379 397 323 q 296 385 302 385 q 288 372 288 385 q 294 82 294 119 q 271 19 294 37 q 172 0 248 0 q 72 20 98 0 q 42 98 42 41 q 49 935 42 188 q 82 988 50 975 q 198 1001 115 1001 q 247 982 231 1001 q 266 918 262 964 q 279 625 273 848 q 287 610 280 610 q 302 616 292 610 q 410 807 399 674 q 414 935 414 853 q 423 970 414 956 q 562 1001 441 1001 q 613 983 595 1001 q 630 918 630 965 q 500 501 630 632 q 497 496 497 498 q 500 492 497 494 q 600 321 570 425 q 630 83 630 218 q 613 18 630 36 q 562 0 595 0 m 311 -342 q 292 -334 300 -342 q 283 -315 283 -326 q 292 -298 283 -307 q 348 -230 340 -252 q 355 -207 355 -208 q 354 -205 355 -205 q 344 -206 353 -205 q 310 -207 334 -207 q 268 -192 277 -207 q 259 -109 259 -177 q 277 -78 259 -86 q 363 -68 300 -68 q 402 -80 391 -68 q 414 -124 413 -93 l 414 -146 q 399 -243 414 -205 q 328 -334 384 -281 q 311 -342 320 -342 z "},"ķ":{"ha":684,"x_min":57,"x_max":645,"o":"m 577 0 q 438 31 456 0 q 429 66 429 45 q 424 204 429 151 q 325 379 412 323 q 311 385 317 385 q 303 372 303 385 q 309 82 309 119 q 286 19 309 37 q 187 0 262 0 q 87 20 113 0 q 57 98 57 41 q 64 935 57 188 q 97 988 64 975 q 213 1001 130 1001 q 261 982 246 1001 q 281 918 277 964 q 294 625 288 848 q 302 610 295 610 q 317 616 307 610 q 425 807 414 674 q 429 935 429 853 q 438 970 429 956 q 577 1001 456 1001 q 628 983 610 1001 q 645 918 645 965 q 515 501 645 632 q 512 496 512 498 q 515 492 512 494 q 615 321 585 425 q 645 83 645 218 q 628 18 645 36 q 577 0 610 0 m 326 -342 q 307 -334 315 -342 q 298 -315 298 -326 q 307 -298 298 -307 q 362 -230 355 -252 q 370 -207 370 -208 q 369 -205 370 -205 q 359 -206 368 -205 q 325 -207 349 -207 q 283 -192 292 -207 q 274 -109 274 -177 q 292 -78 274 -86 q 378 -68 315 -68 q 417 -80 406 -68 q 429 -124 428 -93 l 429 -146 q 414 -243 429 -205 q 343 -334 399 -281 q 326 -342 335 -342 z "},"Ĺ":{"ha":533,"x_min":42,"x_max":533,"o":"m 149 0 q 70 22 97 0 q 42 100 42 45 q 47 688 42 234 q 50 943 50 900 q 74 988 50 977 q 198 1001 103 1001 q 247 987 231 1001 q 260 965 254 980 q 292 212 277 911 q 297 197 292 202 q 317 192 301 193 q 481 188 465 188 q 509 181 498 188 q 533 74 533 166 q 519 37 533 48 q 469 21 505 25 q 149 0 263 0 m 182 1077 q 159 1088 170 1077 q 148 1113 148 1099 q 156 1130 148 1122 l 290 1264 q 311 1275 301 1275 q 341 1257 323 1275 q 359 1227 359 1239 q 350 1211 359 1219 l 197 1082 q 182 1077 191 1077 z "},"ĺ":{"ha":515,"x_min":57,"x_max":522,"o":"m 213 0 q 75 31 93 0 q 65 66 65 45 q 62 319 65 110 q 57 903 57 736 q 84 980 57 958 q 187 1001 112 1001 q 286 982 262 1001 q 310 919 310 964 q 303 711 310 871 q 289 209 289 389 q 292 193 289 199 q 304 188 294 188 q 375 192 311 188 q 462 196 439 196 q 511 173 499 196 q 522 100 522 150 q 510 30 522 53 q 458 5 498 7 q 213 0 338 0 m 152 1077 q 128 1088 139 1077 q 117 1113 117 1099 q 125 1130 117 1122 l 260 1264 q 280 1275 271 1275 q 311 1257 293 1275 q 329 1227 329 1239 q 319 1211 329 1219 l 167 1082 q 152 1077 160 1077 z "},"Ļ":{"ha":533,"x_min":42,"x_max":533,"o":"m 149 0 q 70 22 97 0 q 42 100 42 45 q 47 688 42 234 q 50 943 50 900 q 74 988 50 977 q 198 1001 103 1001 q 247 987 231 1001 q 260 965 254 980 q 292 212 277 911 q 297 197 292 202 q 317 192 301 193 q 481 188 465 188 q 509 181 498 188 q 533 74 533 166 q 519 37 533 48 q 469 21 505 25 q 149 0 263 0 m 262 -342 q 243 -334 251 -342 q 235 -315 235 -326 q 243 -298 235 -307 q 299 -230 291 -252 q 307 -207 307 -208 q 305 -205 307 -205 q 295 -206 304 -205 q 261 -207 286 -207 q 219 -192 229 -207 q 210 -109 210 -177 q 229 -78 210 -86 q 314 -68 251 -68 q 353 -80 342 -68 q 365 -124 364 -93 l 365 -146 q 350 -243 365 -205 q 279 -334 335 -281 q 262 -342 271 -342 z "},"ļ":{"ha":515,"x_min":57,"x_max":522,"o":"m 213 0 q 75 31 93 0 q 65 66 65 45 q 62 319 65 110 q 57 903 57 736 q 84 980 57 958 q 187 1001 112 1001 q 286 982 262 1001 q 310 919 310 964 q 303 711 310 871 q 289 209 289 389 q 292 193 289 199 q 304 188 294 188 q 375 192 311 188 q 462 196 439 196 q 511 173 499 196 q 522 100 522 150 q 510 30 522 53 q 458 5 498 7 q 213 0 338 0 m 271 -342 q 252 -334 260 -342 q 243 -315 243 -326 q 252 -298 243 -307 q 308 -230 300 -252 q 315 -207 315 -208 q 314 -205 315 -205 q 304 -206 313 -205 q 270 -207 294 -207 q 228 -192 237 -207 q 219 -109 219 -177 q 237 -78 219 -86 q 323 -68 260 -68 q 362 -80 351 -68 q 374 -124 373 -93 l 374 -146 q 359 -243 374 -205 q 288 -334 344 -281 q 271 -342 280 -342 z "},"Ľ":{"ha":538,"x_min":42,"x_max":533,"o":"m 149 0 q 70 22 97 0 q 42 100 42 45 q 47 688 42 234 q 50 943 50 900 q 74 988 50 977 q 198 1001 103 1001 q 247 987 231 1001 q 260 965 254 980 q 292 212 277 911 q 297 197 292 202 q 317 192 301 193 q 481 188 465 188 q 509 181 498 188 q 533 74 533 166 q 519 37 533 48 q 469 21 505 25 q 149 0 263 0 m 403 726 q 384 735 392 726 q 376 753 376 743 q 384 771 376 762 q 440 840 432 817 q 448 863 448 862 q 446 863 448 863 q 436 863 446 863 q 402 862 427 862 q 360 877 370 862 q 351 960 351 892 q 370 991 351 983 q 455 1001 392 1001 q 494 988 484 1001 q 506 945 505 976 l 506 922 q 491 825 506 863 q 420 735 476 787 q 403 726 412 726 z "},"ľ":{"ha":532,"x_min":57,"x_max":522,"o":"m 213 0 q 75 31 93 0 q 65 66 65 45 q 62 319 65 110 q 57 903 57 736 q 84 980 57 958 q 187 1001 112 1001 q 286 982 262 1001 q 310 919 310 964 q 303 711 310 871 q 289 209 289 389 q 292 193 289 199 q 304 188 294 188 q 375 192 311 188 q 462 196 439 196 q 511 173 499 196 q 522 100 522 150 q 510 30 522 53 q 458 5 498 7 q 213 0 338 0 m 420 726 q 400 735 409 726 q 392 753 392 743 q 401 771 392 762 q 456 840 448 817 q 465 863 465 862 q 463 863 465 863 q 453 863 463 863 q 418 862 444 862 q 377 877 386 862 q 368 960 368 892 q 387 991 368 983 q 471 1001 408 1001 q 511 988 500 1001 q 522 945 522 976 l 522 922 q 508 825 522 863 q 437 735 493 787 q 420 726 429 726 z "},"Ŀ":{"ha":558,"x_min":42,"x_max":547,"o":"m 149 0 q 70 22 97 0 q 42 100 42 45 q 47 688 42 234 q 50 943 50 900 q 74 988 50 977 q 198 1001 103 1001 q 247 987 231 1001 q 260 965 254 980 q 292 212 277 911 q 297 197 292 202 q 317 192 301 193 q 481 188 465 188 q 509 181 498 188 q 533 74 533 166 q 519 37 533 48 q 469 21 505 25 q 149 0 263 0 m 399 401 q 350 411 365 401 q 333 437 338 418 q 326 542 326 461 q 347 583 326 571 q 474 600 377 600 q 525 587 509 600 q 538 566 534 580 q 547 459 547 543 q 517 414 547 426 q 399 401 485 401 z "},"ŀ":{"ha":573,"x_min":57,"x_max":581,"o":"m 213 0 q 75 31 93 0 q 65 66 65 45 q 62 319 65 110 q 57 903 57 736 q 84 980 57 958 q 187 1001 112 1001 q 286 982 262 1001 q 310 919 310 964 q 303 711 310 871 q 289 209 289 389 q 292 193 289 199 q 304 188 294 188 q 375 192 311 188 q 462 196 439 196 q 511 173 499 196 q 522 100 522 150 q 510 30 522 53 q 458 5 498 7 q 213 0 338 0 m 432 401 q 383 411 398 401 q 366 437 372 418 q 359 542 359 461 q 380 583 359 571 q 507 600 410 600 q 558 587 543 600 q 572 566 567 580 q 581 459 581 543 q 551 414 581 426 q 432 401 518 401 z "},"Ł":{"ha":592,"x_min":-28,"x_max":589,"o":"m 205 0 q 126 22 154 0 q 99 100 99 45 l 100 240 q 99 241 100 241 q 60 212 98 241 q 36 201 47 201 q -7 232 18 201 q -28 277 -28 258 q -7 310 -28 294 l 97 392 q 101 400 101 395 q 104 703 102 558 q 106 943 106 902 q 126 986 106 975 q 255 1001 153 1001 q 303 987 288 1001 q 323 927 319 972 q 338 582 329 863 q 372 608 338 581 q 422 640 412 640 q 473 597 438 640 q 480 578 480 587 q 462 548 480 565 q 346 448 444 531 q 343 433 343 446 q 349 213 349 224 q 354 197 349 202 q 373 192 358 192 q 450 190 399 192 q 538 188 505 188 q 565 181 554 188 q 589 74 589 166 q 575 37 589 48 q 526 22 561 25 q 205 0 316 0 z "}}}
